<svg xmlns="http://www.w3.org/2000/svg" xmlns:xlink="http://www.w3.org/1999/xlink" width="350" zoomAndPan="magnify" viewBox="0 0 262.5 153.000002" height="204" preserveAspectRatio="xMidYMid meet" version="1.0"><defs><clipPath id="303f2fb21f"><path d="M 0.710938 0 L 261.292969 0 L 261.292969 76.003906 L 0.710938 76.003906 Z M 0.710938 0 " clip-rule="nonzero"/></clipPath><clipPath id="d27bb4e85d"><path d="M 0.710938 0 L 261.292969 0 L 261.292969 76.003906 L 0.710938 76.003906 Z M 0.710938 0 " clip-rule="nonzero"/></clipPath><clipPath id="2696521b70"><rect x="0" width="262" y="0" height="77"/></clipPath><clipPath id="3424267f59"><path d="M 126 49.40625 L 131 49.40625 L 131 76 L 126 76 Z M 126 49.40625 " clip-rule="nonzero"/></clipPath><clipPath id="fcbe9eaaff"><path d="M 131 49.40625 L 136 49.40625 L 136 76 L 131 76 Z M 131 49.40625 " clip-rule="nonzero"/></clipPath><clipPath id="09e386bbb8"><path d="M 131 71 L 157.375 71 L 157.375 76 L 131 76 Z M 131 71 " clip-rule="nonzero"/></clipPath><clipPath id="ea18ef465c"><path d="M 131 75 L 157.375 75 L 157.375 81 L 131 81 Z M 131 75 " clip-rule="nonzero"/></clipPath><clipPath id="120d5623df"><path d="M 131 75 L 136 75 L 136 102.308594 L 131 102.308594 Z M 131 75 " clip-rule="nonzero"/></clipPath><clipPath id="88eb83bcaa"><path d="M 126 75 L 131 75 L 131 102.308594 L 126 102.308594 Z M 126 75 " clip-rule="nonzero"/></clipPath><clipPath id="294cb9f960"><path d="M 104.472656 75 L 131 75 L 131 81 L 104.472656 81 Z M 104.472656 75 " clip-rule="nonzero"/></clipPath><clipPath id="c70bfb8586"><path d="M 104.472656 71 L 131 71 L 131 76 L 104.472656 76 Z M 104.472656 71 " clip-rule="nonzero"/></clipPath><clipPath id="e397917142"><path d="M 63.964844 8.96875 L 150 8.96875 L 150 116 L 63.964844 116 Z M 63.964844 8.96875 " clip-rule="nonzero"/></clipPath><clipPath id="a24b4097ce"><path d="M 112 36 L 198.089844 36 L 198.089844 143.089844 L 112 143.089844 Z M 112 36 " clip-rule="nonzero"/></clipPath><clipPath id="fff6e01e28"><path d="M 63.964844 76.0625 L 150 76.0625 L 150 116 L 63.964844 116 Z M 63.964844 76.0625 " clip-rule="nonzero"/></clipPath><clipPath id="22c5a4e967"><path d="M 112 76.0625 L 198.089844 76.0625 L 198.089844 143 L 112 143 Z M 112 76.0625 " clip-rule="nonzero"/></clipPath></defs><g clip-path="url(#303f2fb21f)"><g transform="matrix(1, 0, 0, 1, 0.000000000000000111, 0.000000000000009523)"><g clip-path="url(#2696521b70)"><g clip-path="url(#d27bb4e85d)"><path fill="#e8eeed" d="M 0.710938 0 L 261.378906 0 L 261.378906 76.003906 L 0.710938 76.003906 Z M 0.710938 0 " fill-opacity="1" fill-rule="nonzero"/></g></g></g></g><path fill="#1f3f3a" d="M 131 70.890625 L 131 75.929688 L 145.582031 61.347656 L 131 70.890625 " fill-opacity="1" fill-rule="nonzero"/><path fill="#1f3f3a" d="M 136.039062 75.929688 L 145.582031 61.347656 L 131 75.929688 L 136.039062 75.929688 " fill-opacity="1" fill-rule="nonzero"/><path fill="#ffffff" d="M 131 71.378906 L 131 75.929688 L 144.171875 62.757812 L 131 71.378906 " fill-opacity="1" fill-rule="nonzero"/><path fill="#1f3f3a" d="M 136.039062 75.933594 L 131 75.929688 L 145.582031 90.515625 L 136.039062 75.933594 " fill-opacity="1" fill-rule="nonzero"/><path fill="#1f3f3a" d="M 131 80.972656 L 145.582031 90.515625 L 131 75.929688 L 131 80.972656 " fill-opacity="1" fill-rule="nonzero"/><path fill="#ffffff" d="M 135.550781 75.929688 L 131 75.929688 L 144.171875 89.105469 L 135.550781 75.929688 " fill-opacity="1" fill-rule="nonzero"/><path fill="#1f3f3a" d="M 131 80.972656 L 131 75.929688 L 116.417969 90.515625 Z M 131 80.972656 " fill-opacity="1" fill-rule="nonzero"/><path fill="#1f3f3a" d="M 125.957031 75.933594 L 116.417969 90.515625 L 131 75.933594 Z M 125.957031 75.933594 " fill-opacity="1" fill-rule="nonzero"/><path fill="#ffffff" d="M 131 80.484375 L 131 75.933594 L 117.824219 89.105469 Z M 131 80.484375 " fill-opacity="1" fill-rule="nonzero"/><path fill="#1f3f3a" d="M 125.957031 75.929688 L 131 75.933594 L 116.414062 61.347656 L 125.957031 75.929688 " fill-opacity="1" fill-rule="nonzero"/><path fill="#1f3f3a" d="M 131 70.890625 L 116.414062 61.347656 L 131 75.929688 L 131 70.890625 " fill-opacity="1" fill-rule="nonzero"/><path fill="#ffffff" d="M 126.445312 75.929688 L 131 75.929688 L 117.824219 62.757812 L 126.445312 75.929688 " fill-opacity="1" fill-rule="nonzero"/><g clip-path="url(#3424267f59)"><path fill="#1f3f3a" d="M 126.414062 71.347656 L 131 75.929688 L 131 49.402344 L 126.414062 71.347656 " fill-opacity="1" fill-rule="nonzero"/></g><g clip-path="url(#fcbe9eaaff)"><path fill="#1f3f3a" d="M 135.582031 71.347656 L 131 49.402344 L 131 75.929688 L 135.582031 71.347656 " fill-opacity="1" fill-rule="nonzero"/></g><path fill="#ffffff" d="M 126.859375 71.792969 L 131 75.929688 L 131 51.96875 L 126.859375 71.792969 " fill-opacity="1" fill-rule="nonzero"/><g clip-path="url(#09e386bbb8)"><path fill="#1f3f3a" d="M 135.582031 71.347656 L 131 75.929688 L 157.527344 75.929688 L 135.582031 71.347656 " fill-opacity="1" fill-rule="nonzero"/></g><g clip-path="url(#ea18ef465c)"><path fill="#1f3f3a" d="M 135.582031 80.515625 L 157.527344 75.929688 L 131 75.929688 L 135.582031 80.515625 " fill-opacity="1" fill-rule="nonzero"/></g><path fill="#ffffff" d="M 135.140625 71.792969 L 131 75.929688 L 154.960938 75.929688 L 135.140625 71.792969 " fill-opacity="1" fill-rule="nonzero"/><g clip-path="url(#120d5623df)"><path fill="#1f3f3a" d="M 135.582031 80.515625 L 131 75.929688 L 131 102.457031 Z M 135.582031 80.515625 " fill-opacity="1" fill-rule="nonzero"/></g><g clip-path="url(#88eb83bcaa)"><path fill="#1f3f3a" d="M 126.414062 80.515625 L 131 102.457031 L 131 75.933594 Z M 126.414062 80.515625 " fill-opacity="1" fill-rule="nonzero"/></g><path fill="#ffffff" d="M 135.140625 80.070312 L 131 75.933594 L 131 99.894531 Z M 135.140625 80.070312 " fill-opacity="1" fill-rule="nonzero"/><g clip-path="url(#294cb9f960)"><path fill="#1f3f3a" d="M 126.414062 80.515625 L 131 75.933594 L 104.472656 75.933594 Z M 126.414062 80.515625 " fill-opacity="1" fill-rule="nonzero"/></g><g clip-path="url(#c70bfb8586)"><path fill="#1f3f3a" d="M 126.414062 71.347656 L 104.472656 75.933594 L 131 75.933594 Z M 126.414062 71.347656 " fill-opacity="1" fill-rule="nonzero"/></g><path fill="#ffffff" d="M 126.859375 80.070312 L 131 75.933594 L 107.035156 75.933594 Z M 126.859375 80.070312 " fill-opacity="1" fill-rule="nonzero"/><g clip-path="url(#e397917142)"><path fill="#1f3f3a" d="M 149.457031 47.183594 C 145.054688 44.355469 139.957031 42.511719 134.484375 41.957031 L 130.988281 8.960938 L 127.496094 41.953125 C 120.671875 42.644531 114.441406 45.34375 109.398438 49.449219 L 91.125 36.128906 L 104.449219 54.402344 C 100.34375 59.441406 97.644531 65.671875 96.953125 72.5 L 63.960938 75.992188 L 96.953125 79.484375 C 97.648438 86.308594 100.34375 92.539062 104.449219 97.582031 L 91.125 115.855469 L 114.078125 99.121094 C 112.316406 97.832031 110.707031 96.339844 109.28125 94.6875 C 109.25 94.652344 109.21875 94.617188 109.1875 94.582031 C 108.972656 94.328125 108.761719 94.074219 108.554688 93.8125 C 108.535156 93.785156 108.511719 93.757812 108.488281 93.726562 C 108.273438 93.453125 108.0625 93.179688 107.859375 92.902344 C 105.164062 89.226562 103.328125 84.878906 102.640625 80.164062 C 102.628906 80.078125 102.613281 79.996094 102.605469 79.910156 C 102.585938 79.777344 102.566406 79.640625 102.550781 79.503906 C 102.542969 79.441406 102.535156 79.375 102.527344 79.308594 C 102.503906 79.113281 102.484375 78.917969 102.464844 78.71875 C 102.457031 78.648438 102.453125 78.578125 102.445312 78.503906 C 102.4375 78.371094 102.425781 78.238281 102.414062 78.105469 C 102.410156 78.023438 102.402344 77.941406 102.398438 77.863281 C 102.390625 77.734375 102.382812 77.605469 102.375 77.476562 C 102.371094 77.394531 102.367188 77.316406 102.363281 77.238281 C 102.359375 77.097656 102.355469 76.957031 102.351562 76.820312 C 102.347656 76.75 102.34375 76.683594 102.34375 76.613281 C 102.339844 76.410156 102.335938 76.199219 102.335938 75.992188 C 102.335938 75.769531 102.339844 75.546875 102.34375 75.328125 C 102.347656 75.257812 102.347656 75.191406 102.351562 75.121094 C 102.355469 74.964844 102.363281 74.808594 102.371094 74.648438 C 102.371094 74.578125 102.375 74.503906 102.378906 74.433594 C 102.390625 74.246094 102.402344 74.054688 102.414062 73.867188 C 102.417969 73.832031 102.421875 73.796875 102.421875 73.761719 C 102.4375 73.554688 102.457031 73.351562 102.476562 73.144531 C 102.484375 73.066406 102.492188 72.984375 102.503906 72.90625 C 102.515625 72.769531 102.53125 72.628906 102.550781 72.492188 C 102.558594 72.410156 102.570312 72.324219 102.582031 72.238281 C 102.601562 72.085938 102.625 71.929688 102.648438 71.773438 C 102.65625 71.71875 102.660156 71.660156 102.671875 71.605469 C 103.382812 66.96875 105.207031 62.703125 107.859375 59.082031 C 109.601562 56.703125 111.699219 54.601562 114.078125 52.859375 C 117.699219 50.207031 121.96875 48.382812 126.601562 47.671875 C 126.660156 47.664062 126.714844 47.65625 126.769531 47.648438 C 126.925781 47.625 127.082031 47.601562 127.238281 47.582031 C 127.320312 47.574219 127.40625 47.5625 127.492188 47.550781 C 127.628906 47.535156 127.765625 47.519531 127.90625 47.503906 C 127.984375 47.496094 128.0625 47.488281 128.144531 47.480469 C 128.347656 47.457031 128.554688 47.4375 128.757812 47.425781 C 128.796875 47.421875 128.832031 47.421875 128.867188 47.417969 C 129.054688 47.402344 129.242188 47.390625 129.433594 47.382812 C 129.503906 47.375 129.574219 47.375 129.644531 47.371094 C 129.804688 47.363281 129.960938 47.359375 130.121094 47.351562 C 130.1875 47.351562 130.257812 47.347656 130.324219 47.347656 C 130.546875 47.339844 130.769531 47.339844 130.988281 47.339844 C 131.265625 47.339844 131.539062 47.34375 131.8125 47.351562 C 131.867188 47.351562 131.921875 47.355469 131.976562 47.355469 C 132.234375 47.367188 132.496094 47.375 132.757812 47.394531 C 132.8125 47.394531 132.867188 47.402344 132.917969 47.402344 C 133.167969 47.421875 133.414062 47.4375 133.65625 47.460938 C 133.683594 47.464844 133.710938 47.464844 133.738281 47.46875 C 133.996094 47.492188 134.253906 47.523438 134.511719 47.554688 C 134.574219 47.5625 134.636719 47.570312 134.699219 47.578125 C 136.289062 47.785156 137.839844 48.121094 139.335938 48.578125 L 130.988281 61.675781 L 149.457031 47.183594 " fill-opacity="1" fill-rule="nonzero"/></g><g clip-path="url(#a24b4097ce)"><path fill="#1f3f3a" d="M 165.027344 79.484375 L 198.019531 75.992188 L 165.027344 72.5 C 164.332031 65.675781 161.636719 59.441406 157.53125 54.402344 L 170.855469 36.128906 L 147.902344 52.859375 C 149.660156 54.148438 151.265625 55.636719 152.691406 57.285156 C 152.71875 57.316406 152.746094 57.351562 152.773438 57.382812 C 152.980469 57.625 153.1875 57.875 153.390625 58.128906 C 153.425781 58.175781 153.464844 58.222656 153.5 58.269531 C 153.699219 58.519531 153.894531 58.773438 154.085938 59.035156 C 156.792969 62.714844 158.644531 67.070312 159.335938 71.800781 C 159.351562 71.882812 159.359375 71.96875 159.371094 72.046875 C 159.390625 72.183594 159.40625 72.3125 159.425781 72.449219 C 159.433594 72.519531 159.441406 72.585938 159.449219 72.65625 C 159.472656 72.855469 159.496094 73.050781 159.515625 73.25 C 159.519531 73.3125 159.523438 73.375 159.53125 73.4375 C 159.542969 73.582031 159.554688 73.726562 159.566406 73.871094 C 159.570312 73.949219 159.574219 74.027344 159.582031 74.105469 C 159.589844 74.234375 159.597656 74.371094 159.601562 74.5 C 159.609375 74.578125 159.609375 74.65625 159.613281 74.734375 C 159.621094 74.875 159.625 75.019531 159.628906 75.160156 C 159.632812 75.230469 159.632812 75.296875 159.636719 75.363281 C 159.640625 75.570312 159.644531 75.78125 159.644531 75.992188 C 159.644531 76.214844 159.640625 76.433594 159.636719 76.65625 C 159.632812 76.726562 159.628906 76.792969 159.628906 76.859375 C 159.625 77.019531 159.617188 77.179688 159.609375 77.335938 C 159.609375 77.40625 159.605469 77.476562 159.601562 77.550781 C 159.589844 77.738281 159.578125 77.929688 159.566406 78.117188 C 159.5625 78.152344 159.558594 78.1875 159.558594 78.222656 C 159.539062 78.425781 159.523438 78.632812 159.503906 78.839844 C 159.496094 78.917969 159.484375 78.996094 159.476562 79.078125 C 159.460938 79.214844 159.445312 79.351562 159.429688 79.492188 C 159.417969 79.574219 159.410156 79.660156 159.398438 79.742188 C 159.378906 79.898438 159.355469 80.054688 159.332031 80.210938 C 159.324219 80.265625 159.316406 80.320312 159.308594 80.378906 C 158.597656 85.011719 156.773438 89.28125 154.121094 92.902344 C 152.378906 95.28125 150.277344 97.378906 147.902344 99.121094 C 144.28125 101.773438 140.011719 103.597656 135.375 104.308594 C 135.320312 104.320312 135.265625 104.328125 135.207031 104.332031 C 135.054688 104.359375 134.898438 104.378906 134.742188 104.398438 C 134.65625 104.410156 134.574219 104.421875 134.488281 104.429688 C 134.351562 104.449219 134.214844 104.464844 134.074219 104.480469 C 133.996094 104.488281 133.914062 104.496094 133.835938 104.503906 C 133.632812 104.523438 133.425781 104.542969 133.21875 104.558594 C 133.183594 104.5625 133.148438 104.5625 133.113281 104.566406 C 132.925781 104.578125 132.738281 104.589844 132.546875 104.601562 C 132.476562 104.605469 132.402344 104.609375 132.332031 104.613281 C 132.175781 104.621094 132.019531 104.625 131.859375 104.628906 C 131.789062 104.632812 131.722656 104.636719 131.65625 104.636719 C 131.433594 104.640625 131.210938 104.644531 130.988281 104.644531 C 130.714844 104.644531 130.441406 104.640625 130.167969 104.632812 C 130.113281 104.628906 130.058594 104.628906 130.003906 104.628906 C 129.742188 104.617188 129.480469 104.605469 129.222656 104.589844 C 129.167969 104.585938 129.113281 104.582031 129.0625 104.578125 C 128.8125 104.5625 128.566406 104.542969 128.320312 104.523438 C 128.292969 104.519531 128.269531 104.515625 128.242188 104.511719 C 127.980469 104.488281 127.722656 104.460938 127.46875 104.429688 C 127.40625 104.421875 127.34375 104.414062 127.28125 104.40625 C 125.691406 104.199219 124.140625 103.863281 122.644531 103.40625 L 130.988281 90.308594 L 112.523438 104.796875 C 116.925781 107.628906 122.019531 109.472656 127.496094 110.027344 L 130.988281 143.023438 L 134.484375 110.03125 C 141.308594 109.335938 147.539062 106.636719 152.582031 102.53125 L 170.855469 115.855469 L 157.53125 97.582031 C 161.636719 92.539062 164.335938 86.308594 165.027344 79.484375 " fill-opacity="1" fill-rule="nonzero"/></g><g clip-path="url(#fff6e01e28)"><path fill="#ffffff" d="M 149.457031 47.117188 C 145.054688 44.289062 139.957031 42.441406 134.484375 41.886719 L 130.988281 8.890625 L 127.496094 41.886719 C 120.671875 42.578125 114.441406 45.277344 109.398438 49.382812 L 91.125 36.058594 L 104.449219 54.332031 C 100.34375 59.375 97.644531 65.605469 96.953125 72.429688 L 63.960938 75.921875 L 96.953125 79.414062 C 97.648438 86.238281 100.34375 92.472656 104.449219 97.511719 L 91.125 115.785156 L 114.078125 99.050781 C 112.316406 97.761719 110.707031 96.273438 109.28125 94.617188 C 109.25 94.582031 109.21875 94.546875 109.1875 94.511719 C 108.972656 94.257812 108.761719 94.003906 108.554688 93.746094 C 108.535156 93.714844 108.511719 93.6875 108.488281 93.65625 C 108.273438 93.386719 108.0625 93.113281 107.859375 92.832031 C 105.164062 89.15625 103.328125 84.8125 102.640625 80.09375 C 102.628906 80.011719 102.613281 79.925781 102.605469 79.839844 C 102.585938 79.707031 102.566406 79.570312 102.550781 79.4375 C 102.542969 79.371094 102.535156 79.304688 102.527344 79.238281 C 102.503906 79.042969 102.484375 78.847656 102.464844 78.652344 C 102.457031 78.578125 102.453125 78.507812 102.445312 78.4375 C 102.4375 78.300781 102.425781 78.171875 102.414062 78.035156 C 102.410156 77.957031 102.402344 77.875 102.398438 77.792969 C 102.390625 77.664062 102.382812 77.535156 102.375 77.40625 C 102.371094 77.328125 102.367188 77.25 102.363281 77.167969 C 102.359375 77.03125 102.355469 76.890625 102.351562 76.75 C 102.347656 76.679688 102.34375 76.613281 102.34375 76.546875 C 102.339844 76.339844 102.335938 76.132812 102.335938 75.921875 C 102.335938 75.699219 102.339844 75.480469 102.34375 75.257812 C 102.347656 75.191406 102.347656 75.121094 102.351562 75.054688 C 102.355469 74.894531 102.363281 74.738281 102.371094 74.578125 C 102.371094 74.507812 102.375 74.4375 102.378906 74.363281 C 102.390625 74.175781 102.402344 73.988281 102.414062 73.800781 C 102.417969 73.765625 102.421875 73.730469 102.421875 73.691406 C 102.4375 73.488281 102.457031 73.28125 102.476562 73.074219 C 102.484375 72.996094 102.492188 72.917969 102.503906 72.839844 C 102.515625 72.699219 102.53125 72.5625 102.550781 72.421875 C 102.558594 72.339844 102.570312 72.253906 102.582031 72.171875 C 102.601562 72.015625 102.625 71.859375 102.648438 71.703125 C 102.65625 71.648438 102.660156 71.59375 102.671875 71.535156 C 103.382812 66.902344 105.207031 62.632812 107.859375 59.011719 C 109.601562 56.632812 111.699219 54.535156 114.078125 52.792969 C 117.699219 50.140625 121.96875 48.316406 126.601562 47.605469 C 126.660156 47.59375 126.714844 47.589844 126.769531 47.582031 C 126.925781 47.554688 127.082031 47.535156 127.238281 47.515625 C 127.320312 47.503906 127.40625 47.492188 127.492188 47.484375 C 127.628906 47.464844 127.765625 47.449219 127.90625 47.433594 C 127.984375 47.425781 128.0625 47.417969 128.144531 47.410156 C 128.347656 47.390625 128.554688 47.371094 128.757812 47.355469 C 128.796875 47.351562 128.832031 47.351562 128.867188 47.347656 C 129.054688 47.332031 129.242188 47.324219 129.433594 47.3125 C 129.503906 47.308594 129.574219 47.304688 129.644531 47.300781 C 129.804688 47.296875 129.960938 47.289062 130.121094 47.285156 C 130.1875 47.28125 130.257812 47.277344 130.324219 47.277344 C 130.546875 47.273438 130.769531 47.269531 130.988281 47.269531 C 131.265625 47.269531 131.539062 47.273438 131.8125 47.28125 C 131.867188 47.285156 131.921875 47.285156 131.976562 47.285156 C 132.234375 47.296875 132.496094 47.308594 132.757812 47.324219 C 132.8125 47.328125 132.867188 47.332031 132.917969 47.335938 C 133.167969 47.351562 133.414062 47.371094 133.65625 47.394531 C 133.683594 47.394531 133.710938 47.398438 133.738281 47.402344 C 133.996094 47.425781 134.253906 47.453125 134.511719 47.484375 C 134.574219 47.492188 134.636719 47.5 134.699219 47.507812 C 136.289062 47.714844 137.839844 48.050781 139.335938 48.507812 L 130.988281 61.605469 L 149.457031 47.117188 " fill-opacity="1" fill-rule="nonzero"/></g><g clip-path="url(#22c5a4e967)"><path fill="#ffffff" d="M 165.027344 79.414062 L 198.019531 75.921875 L 165.027344 72.429688 C 164.332031 65.605469 161.636719 59.375 157.53125 54.332031 L 170.855469 36.058594 L 147.902344 52.792969 C 149.660156 54.082031 151.265625 55.566406 152.691406 57.214844 C 152.71875 57.25 152.746094 57.28125 152.773438 57.3125 C 152.980469 57.558594 153.1875 57.804688 153.390625 58.058594 C 153.425781 58.105469 153.464844 58.152344 153.5 58.199219 C 153.699219 58.453125 153.894531 58.707031 154.085938 58.964844 C 156.792969 62.648438 158.644531 67.003906 159.335938 71.734375 C 159.351562 71.816406 159.359375 71.898438 159.371094 71.980469 C 159.390625 72.113281 159.40625 72.246094 159.425781 72.378906 C 159.433594 72.449219 159.441406 72.519531 159.449219 72.589844 C 159.472656 72.785156 159.496094 72.984375 159.515625 73.179688 C 159.519531 73.242188 159.523438 73.308594 159.53125 73.371094 C 159.542969 73.511719 159.554688 73.65625 159.566406 73.800781 C 159.570312 73.878906 159.574219 73.957031 159.582031 74.035156 C 159.589844 74.167969 159.597656 74.300781 159.601562 74.433594 C 159.609375 74.511719 159.609375 74.589844 159.613281 74.667969 C 159.621094 74.808594 159.625 74.949219 159.628906 75.089844 C 159.632812 75.160156 159.632812 75.226562 159.636719 75.292969 C 159.640625 75.503906 159.644531 75.714844 159.644531 75.921875 C 159.644531 76.144531 159.640625 76.367188 159.636719 76.585938 C 159.632812 76.65625 159.628906 76.722656 159.628906 76.792969 C 159.625 76.953125 159.617188 77.109375 159.609375 77.265625 C 159.609375 77.339844 159.605469 77.410156 159.601562 77.480469 C 159.589844 77.671875 159.578125 77.859375 159.566406 78.046875 C 159.5625 78.082031 159.558594 78.117188 159.558594 78.152344 C 159.539062 78.359375 159.523438 78.566406 159.503906 78.769531 C 159.496094 78.847656 159.484375 78.925781 159.476562 79.007812 C 159.460938 79.144531 159.445312 79.285156 159.429688 79.421875 C 159.417969 79.507812 159.410156 79.589844 159.398438 79.675781 C 159.378906 79.832031 159.355469 79.984375 159.332031 80.140625 C 159.324219 80.199219 159.316406 80.253906 159.308594 80.308594 C 158.597656 84.945312 156.773438 89.210938 154.121094 92.832031 C 152.378906 95.210938 150.277344 97.3125 147.902344 99.050781 C 144.28125 101.707031 140.011719 103.53125 135.375 104.242188 C 135.320312 104.25 135.265625 104.257812 135.207031 104.265625 C 135.054688 104.289062 134.898438 104.308594 134.742188 104.332031 C 134.65625 104.34375 134.574219 104.351562 134.488281 104.363281 C 134.351562 104.378906 134.214844 104.394531 134.074219 104.410156 C 133.996094 104.417969 133.914062 104.425781 133.835938 104.433594 C 133.632812 104.457031 133.425781 104.476562 133.21875 104.488281 C 133.183594 104.492188 133.148438 104.492188 133.113281 104.496094 C 132.925781 104.511719 132.738281 104.523438 132.546875 104.53125 C 132.476562 104.539062 132.402344 104.539062 132.332031 104.542969 C 132.175781 104.550781 132.019531 104.554688 131.859375 104.5625 C 131.789062 104.5625 131.722656 104.566406 131.65625 104.566406 C 131.433594 104.574219 131.210938 104.574219 130.988281 104.574219 C 130.714844 104.574219 130.441406 104.570312 130.167969 104.5625 C 130.113281 104.5625 130.058594 104.558594 130.003906 104.558594 C 129.742188 104.546875 129.480469 104.539062 129.222656 104.523438 C 129.167969 104.519531 129.113281 104.511719 129.0625 104.511719 C 128.8125 104.492188 128.566406 104.476562 128.320312 104.453125 C 128.292969 104.449219 128.269531 104.449219 128.242188 104.445312 C 127.980469 104.421875 127.722656 104.390625 127.46875 104.359375 C 127.40625 104.351562 127.34375 104.34375 127.28125 104.335938 C 125.691406 104.128906 124.140625 103.792969 122.644531 103.339844 L 130.988281 90.238281 L 112.523438 104.730469 C 116.925781 107.558594 122.019531 109.40625 127.496094 109.957031 L 130.988281 142.953125 L 134.484375 109.960938 C 141.308594 109.269531 147.539062 106.570312 152.582031 102.464844 L 170.855469 115.785156 L 157.53125 97.511719 C 161.636719 92.472656 164.335938 86.242188 165.027344 79.414062 " fill-opacity="1" fill-rule="nonzero"/></g></svg>