<svg xmlns="http://www.w3.org/2000/svg" xmlns:xlink="http://www.w3.org/1999/xlink" width="150" zoomAndPan="magnify" viewBox="0 0 112.5 56.249996" height="75" preserveAspectRatio="xMidYMid meet" version="1.0"><defs><g/><clipPath id="f3d568d3d3"><path d="M 0.824219 1.699219 L 26.210938 1.699219 L 26.210938 29.90625 L 0.824219 29.90625 Z M 0.824219 1.699219 " clip-rule="nonzero"/></clipPath><clipPath id="9fd29f163d"><path d="M 0.824219 3 L 6 3 L 6 10 L 0.824219 10 Z M 0.824219 3 " clip-rule="nonzero"/></clipPath><clipPath id="4679a24ecf"><path d="M 4 1.699219 L 8 1.699219 L 8 6 L 4 6 Z M 4 1.699219 " clip-rule="nonzero"/></clipPath><clipPath id="6659f7e417"><path d="M 4 6 L 9 6 L 9 12.042969 L 4 12.042969 Z M 4 6 " clip-rule="nonzero"/></clipPath><clipPath id="1c1cb987b0"><path d="M 15.4375 8.355469 L 20.214844 8.355469 L 20.214844 12.339844 L 15.4375 12.339844 Z M 15.4375 8.355469 " clip-rule="nonzero"/></clipPath><clipPath id="8e7e067596"><path d="M 20.203125 9.5625 C 20.171875 8.820312 19.648438 8.355469 18.96875 8.355469 C 18.453125 8.355469 17.972656 8.667969 17.773438 9.109375 C 17.582031 8.667969 17.121094 8.355469 16.621094 8.355469 C 15.96875 8.355469 15.46875 8.820312 15.4375 9.5625 C 15.4375 11.101562 16.617188 11.859375 17.773438 12.339844 C 18.972656 11.859375 20.203125 11.101562 20.203125 9.5625 Z M 20.203125 9.5625 " clip-rule="nonzero"/></clipPath><clipPath id="da55cecf17"><path d="M 0.4375 0.355469 L 5.214844 0.355469 L 5.214844 4.339844 L 0.4375 4.339844 Z M 0.4375 0.355469 " clip-rule="nonzero"/></clipPath><clipPath id="54a1bef755"><path d="M 5.203125 1.5625 C 5.171875 0.820312 4.648438 0.355469 3.96875 0.355469 C 3.453125 0.355469 2.972656 0.667969 2.773438 1.109375 C 2.582031 0.667969 2.121094 0.355469 1.621094 0.355469 C 0.96875 0.355469 0.46875 0.820312 0.4375 1.5625 C 0.4375 3.101562 1.617188 3.859375 2.773438 4.339844 C 3.972656 3.859375 5.203125 3.101562 5.203125 1.5625 Z M 5.203125 1.5625 " clip-rule="nonzero"/></clipPath><clipPath id="4034a53356"><rect x="0" width="6" y="0" height="5"/></clipPath><clipPath id="9658266785"><path d="M 27 9 L 41 9 L 41 21 L 27 21 Z M 27 9 " clip-rule="nonzero"/></clipPath><clipPath id="25d8e3a6c6"><path d="M 40.257812 0.164062 L 47.878906 22.402344 L 25.640625 30.019531 L 18.023438 7.785156 Z M 40.257812 0.164062 " clip-rule="nonzero"/></clipPath><clipPath id="8571a88923"><path d="M 40.257812 0.164062 L 47.878906 22.402344 L 25.640625 30.019531 L 18.023438 7.785156 Z M 40.257812 0.164062 " clip-rule="nonzero"/></clipPath><clipPath id="9aac83422c"><path d="M 30 3 L 44 3 L 44 14 L 30 14 Z M 30 3 " clip-rule="nonzero"/></clipPath><clipPath id="097dd71bc9"><path d="M 40.257812 0.164062 L 47.878906 22.402344 L 25.640625 30.019531 L 18.023438 7.785156 Z M 40.257812 0.164062 " clip-rule="nonzero"/></clipPath><clipPath id="087e6d4dcb"><path d="M 40.257812 0.164062 L 47.878906 22.402344 L 25.640625 30.019531 L 18.023438 7.785156 Z M 40.257812 0.164062 " clip-rule="nonzero"/></clipPath><clipPath id="c7ce971ed0"><path d="M 25 17 L 34 17 L 34 30 L 25 30 Z M 25 17 " clip-rule="nonzero"/></clipPath><clipPath id="7f41c8fd46"><path d="M 40.257812 0.164062 L 47.878906 22.402344 L 25.640625 30.019531 L 18.023438 7.785156 Z M 40.257812 0.164062 " clip-rule="nonzero"/></clipPath><clipPath id="4b8ab5f50b"><path d="M 40.257812 0.164062 L 47.878906 22.402344 L 25.640625 30.019531 L 18.023438 7.785156 Z M 40.257812 0.164062 " clip-rule="nonzero"/></clipPath><clipPath id="bcf473127e"><path d="M 32.765625 16.878906 L 35.996094 26.320312 L 25.210938 30.015625 L 21.976562 20.574219 Z M 32.765625 16.878906 " clip-rule="nonzero"/></clipPath><clipPath id="1d347103a6"><path d="M 37 11 L 38 11 L 38 12 L 37 12 Z M 37 11 " clip-rule="nonzero"/></clipPath><clipPath id="d46aa609dc"><path d="M 40.257812 0.164062 L 47.878906 22.402344 L 25.640625 30.019531 L 18.023438 7.785156 Z M 40.257812 0.164062 " clip-rule="nonzero"/></clipPath><clipPath id="727a2b131d"><path d="M 40.257812 0.164062 L 47.878906 22.402344 L 25.640625 30.019531 L 18.023438 7.785156 Z M 40.257812 0.164062 " clip-rule="nonzero"/></clipPath><clipPath id="12cfc18ff6"><path d="M 47 0.15625 L 108.203125 0.15625 L 108.203125 10 L 47 10 Z M 47 0.15625 " clip-rule="nonzero"/></clipPath><clipPath id="b2e0924e0f"><path d="M 0.0976562 2 L 4 2 L 4 7 L 0.0976562 7 Z M 0.0976562 2 " clip-rule="nonzero"/></clipPath><clipPath id="1761b951d5"><rect x="0" width="62" y="0" height="10"/></clipPath><clipPath id="6183e532ae"><rect x="0" width="64" y="0" height="10"/></clipPath><clipPath id="9c1a20a8d2"><path d="M 0.0742188 6 L 6 6 L 6 11 L 0.0742188 11 Z M 0.0742188 6 " clip-rule="nonzero"/></clipPath><clipPath id="a3b752fd57"><rect x="0" width="51" y="0" height="16"/></clipPath><clipPath id="f0377ee49a"><rect x="0" width="109" y="0" height="31"/></clipPath><clipPath id="ffafb37604"><rect x="0" width="68" y="0" height="7"/></clipPath></defs><g transform="matrix(1, 0, 0, 1, 1, 6)"><g clip-path="url(#f0377ee49a)"><path fill="#ffffff" d="M 21.996094 5.625 L 20.363281 6.855469 L 21.996094 7.628906 Z M 21.996094 5.625 " fill-opacity="1" fill-rule="nonzero"/><path fill="#ffffff" d="M 13.46875 5.625 L 13.46875 7.628906 L 15.101562 6.851562 Z M 13.46875 5.625 " fill-opacity="1" fill-rule="nonzero"/><path fill="#ffffff" d="M 12.800781 10.484375 L 11.742188 12.785156 L 15.519531 14.726562 Z M 12.800781 10.484375 " fill-opacity="1" fill-rule="nonzero"/><path fill="#ffffff" d="M 3.695312 19.371094 L 4.53125 23.902344 L 7.714844 21.203125 Z M 3.695312 19.371094 " fill-opacity="1" fill-rule="nonzero"/><path fill="#ffffff" d="M 5.449219 25.167969 L 9.46875 27 L 8.632812 22.464844 Z M 5.449219 25.167969 " fill-opacity="1" fill-rule="nonzero"/><path fill="#ffffff" d="M 17.734375 15.292969 L 21.640625 9.1875 L 17.734375 7.328125 L 13.824219 9.1875 L 17.734375 15.292969 " fill-opacity="1" fill-rule="nonzero"/><path fill="#ffffff" d="M 17.734375 17.617188 L 15.21875 16.324219 L 13.882812 19.519531 L 17.734375 21.03125 L 21.582031 19.519531 L 20.25 16.324219 L 17.734375 17.617188 " fill-opacity="1" fill-rule="nonzero"/><path fill="#ffffff" d="M 19.949219 14.726562 L 23.722656 12.785156 L 22.664062 10.484375 Z M 19.949219 14.726562 " fill-opacity="1" fill-rule="nonzero"/><g clip-path="url(#f3d568d3d3)"><path fill="#ffffff" d="M 21.640625 15.609375 L 23.425781 19.886719 L 21.214844 29.109375 L 10.335938 29.109375 L 3.316406 25.90625 L 1.621094 16.710938 L 9.847656 20.460938 L 10.664062 24.882812 L 12.121094 19.695312 L 13.828125 15.609375 L 9.703125 13.492188 L 11.910156 8.695312 L 11.910156 2.5 L 16.6875 6.097656 L 17.734375 5.601562 L 18.777344 6.097656 L 23.554688 2.5 L 23.554688 8.695312 L 25.765625 13.492188 Z M 26.488281 13.15625 L 24.351562 8.519531 L 24.351562 2.5 C 24.351562 2.195312 24.183594 1.921875 23.910156 1.785156 C 23.796875 1.730469 23.675781 1.699219 23.554688 1.699219 C 23.386719 1.699219 23.214844 1.753906 23.074219 1.863281 L 18.683594 5.167969 L 18.074219 4.878906 C 17.96875 4.828125 17.851562 4.800781 17.734375 4.800781 C 17.613281 4.800781 17.496094 4.828125 17.390625 4.878906 L 16.78125 5.167969 L 12.390625 1.863281 C 12.25 1.753906 12.082031 1.699219 11.910156 1.699219 C 11.789062 1.699219 11.667969 1.730469 11.554688 1.785156 C 11.285156 1.921875 11.113281 2.195312 11.113281 2.5 L 11.113281 8.519531 L 8.976562 13.15625 C 8.796875 13.542969 8.957031 14.003906 9.335938 14.199219 L 12.804688 15.984375 L 11.382812 19.390625 C 11.371094 19.417969 11.359375 19.449219 11.351562 19.480469 L 10.824219 21.355469 L 10.632812 20.316406 C 10.585938 20.058594 10.414062 19.84375 10.179688 19.734375 L 1.953125 15.984375 C 1.847656 15.933594 1.734375 15.910156 1.621094 15.910156 C 1.445312 15.910156 1.273438 15.96875 1.128906 16.082031 C 0.894531 16.261719 0.78125 16.5625 0.835938 16.855469 L 2.53125 26.050781 C 2.578125 26.308594 2.75 26.527344 2.984375 26.632812 L 10.003906 29.835938 C 10.109375 29.882812 10.222656 29.90625 10.335938 29.90625 L 21.214844 29.90625 C 21.585938 29.90625 21.90625 29.652344 21.992188 29.292969 L 24.203125 20.074219 C 24.242188 19.910156 24.226562 19.734375 24.164062 19.578125 L 22.660156 15.984375 L 26.128906 14.199219 C 26.507812 14.003906 26.667969 13.542969 26.488281 13.15625 " fill-opacity="1" fill-rule="nonzero"/></g><path fill="#ffffff" d="M 11.53125 27.546875 L 13.875 27.546875 L 12.796875 23.046875 Z M 11.53125 27.546875 " fill-opacity="1" fill-rule="nonzero"/><path fill="#ffffff" d="M 18.511719 27.546875 L 19.988281 27.546875 L 21.503906 21.222656 L 18.511719 22.398438 L 18.511719 27.546875 " fill-opacity="1" fill-rule="nonzero"/><path fill="#ffffff" d="M 15.480469 27.546875 L 16.953125 27.546875 L 16.953125 22.398438 L 13.964844 21.222656 L 15.480469 27.546875 " fill-opacity="1" fill-rule="nonzero"/><g clip-path="url(#9fd29f163d)"><path fill="#ffffff" d="M 4.824219 6.902344 C 4.722656 6.949219 4.625 7.003906 4.53125 7.0625 C 4.171875 7.296875 3.875 7.628906 3.664062 8.003906 C 3.621094 8.082031 3.578125 8.164062 3.542969 8.246094 C 3.5 8.332031 3.460938 8.441406 3.425781 8.53125 C 3.402344 8.605469 3.375 8.6875 3.359375 8.761719 C 3.359375 8.761719 3.351562 8.796875 3.339844 8.832031 C 3.246094 8.40625 3.066406 8 2.808594 7.648438 C 2.808594 7.648438 2.726562 7.535156 2.726562 7.535156 C 2.675781 7.476562 2.621094 7.414062 2.570312 7.351562 C 2.527344 7.308594 2.445312 7.226562 2.398438 7.183594 C 2.121094 6.925781 1.804688 6.71875 1.457031 6.570312 C 1.476562 6.5625 1.5 6.550781 1.5 6.550781 C 2.339844 6.183594 3 5.4375 3.273438 4.5625 C 3.296875 4.484375 3.320312 4.402344 3.335938 4.320312 C 3.429688 4.710938 3.59375 5.085938 3.824219 5.417969 C 3.863281 5.46875 3.929688 5.558594 3.96875 5.609375 C 3.996094 5.640625 4.074219 5.730469 4.101562 5.761719 C 4.167969 5.828125 4.230469 5.894531 4.296875 5.957031 C 4.332031 5.984375 4.421875 6.0625 4.453125 6.089844 C 4.503906 6.128906 4.59375 6.191406 4.644531 6.230469 C 4.699219 6.265625 4.792969 6.324219 4.847656 6.359375 C 4.886719 6.378906 4.992188 6.433594 5.027344 6.453125 C 5.109375 6.492188 5.195312 6.527344 5.277344 6.5625 C 5.304688 6.570312 5.335938 6.582031 5.363281 6.589844 C 5.285156 6.632812 5.210938 6.675781 5.140625 6.730469 C 5.117188 6.746094 5.105469 6.777344 5.113281 6.808594 C 5.125 6.851562 5.164062 6.875 5.207031 6.867188 C 5.296875 6.84375 5.503906 6.792969 5.589844 6.773438 C 5.601562 6.773438 5.613281 6.765625 5.625 6.761719 C 5.769531 6.699219 5.792969 6.492188 5.671875 6.390625 C 5.652344 6.371094 5.625 6.359375 5.597656 6.347656 C 5.550781 6.328125 5.503906 6.308594 5.457031 6.289062 C 5.378906 6.261719 5.304688 6.21875 5.234375 6.1875 C 5.203125 6.175781 5.152344 6.144531 5.125 6.128906 L 5.019531 6.070312 C 5.019531 6.070312 4.917969 6 4.917969 6 C 4.894531 5.988281 4.863281 5.964844 4.839844 5.949219 C 4.828125 5.941406 4.734375 5.871094 4.71875 5.855469 C 4.082031 5.347656 3.683594 4.574219 3.636719 3.757812 C 3.628906 3.65625 3.617188 3.515625 3.609375 3.417969 C 3.589844 3.15625 3.246094 3.066406 3.105469 3.285156 C 3.066406 3.339844 3.058594 3.40625 3.054688 3.46875 C 3.054688 3.46875 3.035156 3.726562 3.035156 3.726562 C 3.023438 3.886719 3 4.054688 2.964844 4.210938 C 2.792969 5 2.269531 5.707031 1.558594 6.089844 L 1.453125 6.148438 C 1.453125 6.148438 1.339844 6.199219 1.339844 6.199219 C 1.3125 6.210938 1.261719 6.234375 1.230469 6.246094 C 1.195312 6.257812 1.09375 6.296875 1.058594 6.308594 C 0.992188 6.328125 0.929688 6.378906 0.898438 6.445312 C 0.824219 6.585938 0.894531 6.769531 1.042969 6.828125 C 1.117188 6.855469 1.199219 6.882812 1.273438 6.914062 C 1.664062 7.074219 2.019531 7.328125 2.300781 7.640625 C 2.691406 8.074219 2.945312 8.632812 3.015625 9.210938 C 3.027344 9.300781 3.042969 9.5 3.050781 9.59375 L 3.0625 9.722656 L 3.0625 9.726562 L 3.066406 9.734375 C 3.070312 9.796875 3.101562 9.855469 3.148438 9.902344 C 3.316406 10.058594 3.597656 9.949219 3.605469 9.71875 C 3.625 9.476562 3.636719 9.203125 3.683594 8.96875 C 3.699219 8.894531 3.71875 8.804688 3.742188 8.730469 C 3.75 8.699219 3.753906 8.679688 3.765625 8.644531 L 3.773438 8.617188 C 3.773438 8.617188 3.816406 8.5 3.816406 8.5 C 3.835938 8.445312 3.863281 8.386719 3.886719 8.332031 C 4.117188 7.824219 4.480469 7.394531 4.90625 7.035156 C 4.980469 6.976562 4.910156 6.863281 4.824219 6.902344 Z M 5.511719 6.519531 C 5.511719 6.519531 5.511719 6.519531 5.507812 6.523438 C 5.5 6.523438 5.496094 6.527344 5.488281 6.53125 C 5.492188 6.527344 5.496094 6.523438 5.503906 6.523438 C 5.503906 6.523438 5.507812 6.519531 5.511719 6.519531 Z M 3.222656 3.449219 C 3.222656 3.445312 3.222656 3.449219 3.222656 3.449219 Z M 3.226562 9.691406 C 3.226562 9.691406 3.226562 9.6875 3.226562 9.6875 C 3.226562 9.683594 3.230469 9.683594 3.230469 9.683594 Z M 3.441406 9.691406 C 3.441406 9.691406 3.441406 9.691406 3.441406 9.6875 C 3.441406 9.691406 3.441406 9.691406 3.441406 9.691406 C 3.441406 9.691406 3.445312 9.695312 3.441406 9.691406 Z M 3.441406 9.691406 " fill-opacity="1" fill-rule="nonzero"/></g><g clip-path="url(#4679a24ecf)"><path fill="#ffffff" d="M 4.78125 3.722656 C 4.945312 3.828125 5.121094 3.941406 5.273438 4.070312 C 5.550781 4.3125 5.734375 4.660156 5.777344 5.027344 C 5.785156 5.105469 5.792969 5.222656 5.800781 5.304688 C 5.800781 5.320312 5.800781 5.324219 5.804688 5.347656 C 5.828125 5.464844 5.96875 5.535156 6.074219 5.484375 C 6.140625 5.453125 6.183594 5.386719 6.1875 5.316406 L 6.1875 5.296875 C 6.1875 5.296875 6.191406 5.261719 6.191406 5.261719 C 6.207031 5.105469 6.21875 4.953125 6.261719 4.804688 C 6.394531 4.347656 6.757812 3.96875 7.207031 3.816406 L 7.222656 3.8125 C 7.222656 3.8125 7.230469 3.808594 7.230469 3.808594 C 7.390625 3.761719 7.417969 3.53125 7.265625 3.453125 C 6.6875 3.269531 6.261719 2.761719 6.210938 2.152344 C 6.207031 2.105469 6.195312 1.992188 6.191406 1.941406 C 6.191406 1.855469 6.140625 1.777344 6.058594 1.75 C 5.921875 1.707031 5.796875 1.804688 5.796875 1.945312 L 5.792969 1.980469 C 5.792969 1.980469 5.789062 2.050781 5.789062 2.050781 C 5.78125 2.164062 5.769531 2.269531 5.746094 2.378906 C 5.738281 2.402344 5.726562 2.449219 5.71875 2.472656 C 5.699219 2.542969 5.667969 2.617188 5.636719 2.683594 C 5.582031 2.800781 5.511719 2.914062 5.425781 3.011719 C 5.359375 3.09375 5.277344 3.167969 5.195312 3.238281 C 5.109375 3.308594 5.019531 3.375 4.921875 3.429688 C 4.875 3.460938 4.820312 3.488281 4.765625 3.511719 C 4.675781 3.554688 4.683594 3.695312 4.78125 3.722656 Z M 7.128906 3.71875 C 7.132812 3.71875 7.136719 3.722656 7.140625 3.722656 C 7.136719 3.722656 7.132812 3.722656 7.128906 3.71875 Z M 5.886719 1.949219 C 5.886719 1.945312 5.886719 1.945312 5.886719 1.949219 Z M 5.886719 1.949219 " fill-opacity="1" fill-rule="nonzero"/></g><g clip-path="url(#6659f7e417)"><path fill="#ffffff" d="M 8.808594 9.003906 C 8.179688 8.800781 7.667969 8.328125 7.410156 7.722656 C 7.390625 7.671875 7.359375 7.601562 7.34375 7.554688 C 7.3125 7.457031 7.28125 7.355469 7.253906 7.253906 C 7.214844 7.082031 7.183594 6.910156 7.136719 6.742188 C 7.109375 6.660156 6.988281 6.671875 6.980469 6.757812 C 6.960938 6.9375 6.953125 7.117188 6.96875 7.300781 C 6.984375 7.453125 7.011719 7.605469 7.0625 7.75 L 7.09375 7.847656 L 7.132812 7.941406 C 7.1875 8.066406 7.253906 8.191406 7.324219 8.308594 C 7.582031 8.71875 7.957031 9.046875 8.394531 9.253906 C 7.710938 9.570312 7.203125 10.175781 6.992188 10.886719 C 6.984375 10.859375 6.976562 10.832031 6.96875 10.8125 C 6.8125 10.335938 6.515625 9.90625 6.125 9.589844 C 6.078125 9.554688 6.003906 9.5 5.957031 9.46875 C 5.90625 9.433594 5.832031 9.386719 5.78125 9.359375 C 5.753906 9.34375 5.671875 9.296875 5.644531 9.285156 C 5.617188 9.273438 5.59375 9.261719 5.570312 9.253906 C 5.695312 9.191406 5.816406 9.125 5.925781 9.046875 C 6.125 8.910156 6.304688 8.746094 6.457031 8.5625 C 6.589844 8.402344 6.695312 8.226562 6.765625 8.03125 C 6.796875 7.9375 6.824219 7.835938 6.832031 7.734375 C 6.835938 7.707031 6.824219 7.679688 6.800781 7.664062 C 6.765625 7.636719 6.714844 7.648438 6.691406 7.683594 C 6.613281 7.789062 6.550781 7.890625 6.476562 7.988281 C 6.40625 8.085938 6.335938 8.183594 6.261719 8.277344 C 6.230469 8.316406 6.175781 8.375 6.144531 8.414062 C 6.105469 8.449219 6.054688 8.503906 6.011719 8.535156 C 5.835938 8.695312 5.632812 8.824219 5.417969 8.921875 C 5.339844 8.957031 5.25 8.988281 5.167969 9.015625 C 5.050781 9.050781 4.972656 9.183594 4.996094 9.300781 C 5.007812 9.382812 5.070312 9.460938 5.152344 9.492188 L 5.167969 9.496094 L 5.1875 9.503906 C 5.1875 9.503906 5.269531 9.535156 5.269531 9.535156 C 5.339844 9.558594 5.40625 9.59375 5.472656 9.625 C 5.496094 9.636719 5.570312 9.675781 5.589844 9.6875 C 6.167969 10.019531 6.578125 10.617188 6.683594 11.273438 C 6.707031 11.433594 6.71875 11.605469 6.734375 11.761719 C 6.746094 12.050781 7.140625 12.109375 7.234375 11.84375 C 7.246094 11.820312 7.25 11.796875 7.25 11.773438 C 7.257812 11.703125 7.269531 11.554688 7.273438 11.484375 C 7.3125 10.984375 7.515625 10.496094 7.859375 10.125 C 8.09375 9.863281 8.398438 9.660156 8.730469 9.539062 C 8.800781 9.511719 8.894531 9.488281 8.941406 9.421875 C 9.0625 9.273438 8.988281 9.050781 8.808594 9.003906 Z M 5.28125 9.140625 C 5.28125 9.140625 5.289062 9.140625 5.289062 9.140625 C 5.289062 9.144531 5.289062 9.144531 5.289062 9.144531 C 5.285156 9.140625 5.285156 9.140625 5.28125 9.140625 Z M 8.699219 9.378906 C 8.695312 9.378906 8.691406 9.375 8.691406 9.375 C 8.691406 9.375 8.699219 9.378906 8.699219 9.378906 C 8.703125 9.378906 8.703125 9.378906 8.699219 9.378906 Z M 8.699219 9.378906 " fill-opacity="1" fill-rule="nonzero"/></g><g clip-path="url(#1c1cb987b0)"><g clip-path="url(#8e7e067596)"><g transform="matrix(1, 0, 0, 1, 15, 8)"><g clip-path="url(#4034a53356)"><g clip-path="url(#da55cecf17)"><g clip-path="url(#54a1bef755)"><path fill="#f7d6e0" d="M 0.4375 0.355469 L 5.199219 0.355469 L 5.199219 4.339844 L 0.4375 4.339844 Z M 0.4375 0.355469 " fill-opacity="1" fill-rule="nonzero"/></g></g></g></g></g></g><g clip-path="url(#9658266785)"><g clip-path="url(#25d8e3a6c6)"><g clip-path="url(#8571a88923)"><path fill="#ffffff" d="M 30.808594 13.648438 C 30.828125 13.671875 30.847656 13.691406 30.867188 13.714844 C 31.265625 14.105469 31.6875 14.472656 32.117188 14.828125 C 33.050781 15.597656 34.027344 16.316406 35.019531 17.007812 C 35.855469 17.589844 36.71875 18.136719 37.625 18.609375 C 38.070312 18.84375 38.519531 19.066406 38.992188 19.242188 C 39.242188 19.339844 39.492188 19.421875 39.761719 19.460938 C 39.855469 19.472656 39.957031 19.472656 40.054688 19.476562 C 40.089844 19.476562 40.128906 19.472656 40.171875 19.441406 C 40.160156 19.386719 40.152344 19.332031 40.136719 19.277344 C 40.097656 19.148438 40.03125 19.035156 39.964844 18.917969 C 39.789062 18.625 39.578125 18.359375 39.351562 18.105469 C 38.84375 17.535156 38.269531 17.035156 37.652344 16.582031 C 36.332031 15.613281 34.894531 14.859375 33.359375 14.292969 C 32.636719 14.023438 31.898438 13.8125 31.136719 13.683594 C 31.03125 13.664062 30.921875 13.652344 30.8125 13.636719 C 30.808594 13.636719 30.800781 13.636719 30.796875 13.636719 C 30.800781 13.640625 30.804688 13.644531 30.808594 13.648438 Z M 37.230469 11.882812 C 36.964844 11.78125 36.703125 11.679688 36.4375 11.582031 C 36.070312 11.445312 35.71875 11.285156 35.371094 11.101562 C 34.957031 10.882812 34.542969 10.667969 34.113281 10.476562 C 33.507812 10.203125 32.882812 9.976562 32.230469 9.835938 C 31.738281 9.726562 31.242188 9.667969 30.738281 9.699219 C 30.484375 9.710938 30.234375 9.75 29.988281 9.820312 C 29.796875 9.875 29.617188 9.953125 29.453125 10.070312 C 29.121094 10.296875 28.988281 10.613281 29.035156 11.007812 C 29.0625 11.226562 29.132812 11.425781 29.226562 11.621094 C 29.425781 12.046875 29.699219 12.421875 30 12.78125 C 30.136719 12.945312 30.285156 13.105469 30.429688 13.265625 C 30.449219 13.292969 30.476562 13.304688 30.507812 13.308594 C 31.320312 13.378906 32.109375 13.554688 32.886719 13.792969 C 34.203125 14.199219 35.449219 14.765625 36.640625 15.457031 C 37.464844 15.929688 38.242188 16.46875 38.957031 17.09375 C 39.402344 17.480469 39.816406 17.890625 40.175781 18.355469 C 40.335938 18.566406 40.484375 18.78125 40.59375 19.023438 C 40.648438 19.140625 40.6875 19.265625 40.699219 19.394531 C 40.726562 19.699219 40.554688 19.941406 40.257812 20.015625 C 40.136719 20.046875 40.015625 20.058594 39.890625 20.050781 C 39.621094 20.039062 39.363281 19.976562 39.109375 19.890625 C 38.695312 19.753906 38.304688 19.570312 37.917969 19.375 C 37.03125 18.917969 36.183594 18.398438 35.363281 17.832031 C 34.140625 16.984375 32.949219 16.09375 31.808594 15.136719 C 31.230469 14.65625 30.675781 14.152344 30.160156 13.601562 C 30.136719 13.578125 30.113281 13.566406 30.078125 13.5625 C 29.679688 13.550781 29.28125 13.5625 28.886719 13.644531 C 28.621094 13.699219 28.367188 13.78125 28.136719 13.925781 C 28.113281 13.9375 28.089844 13.953125 28.066406 13.972656 C 27.773438 14.1875 27.671875 14.472656 27.753906 14.832031 C 27.8125 15.09375 27.929688 15.332031 28.070312 15.554688 C 28.488281 16.242188 29.015625 16.832031 29.625 17.351562 C 29.746094 17.457031 29.871094 17.550781 29.992188 17.648438 C 30.011719 17.664062 30.027344 17.679688 30.042969 17.691406 C 30.039062 17.695312 30.035156 17.699219 30.035156 17.703125 C 29.988281 17.679688 29.941406 17.65625 29.898438 17.628906 C 29.632812 17.460938 29.390625 17.265625 29.164062 17.050781 C 28.707031 16.628906 28.296875 16.164062 27.953125 15.640625 C 27.804688 15.414062 27.675781 15.175781 27.59375 14.914062 C 27.5625 14.800781 27.539062 14.6875 27.539062 14.570312 C 27.535156 14.300781 27.632812 14.078125 27.820312 13.886719 C 27.976562 13.730469 28.164062 13.625 28.367188 13.542969 C 28.753906 13.382812 29.164062 13.316406 29.582031 13.292969 C 29.671875 13.285156 29.761719 13.285156 29.867188 13.28125 C 29.847656 13.253906 29.832031 13.238281 29.816406 13.21875 C 29.566406 12.929688 29.332031 12.625 29.125 12.300781 C 28.957031 12.035156 28.8125 11.761719 28.714844 11.460938 C 28.660156 11.28125 28.621094 11.097656 28.613281 10.910156 C 28.601562 10.398438 28.816406 10.007812 29.238281 9.726562 C 29.480469 9.5625 29.753906 9.460938 30.039062 9.398438 C 30.660156 9.261719 31.28125 9.289062 31.902344 9.398438 C 32.585938 9.519531 33.238281 9.742188 33.875 10.019531 C 34.40625 10.25 34.917969 10.527344 35.425781 10.804688 C 35.988281 11.109375 36.53125 11.449219 37.078125 11.78125 C 37.128906 11.8125 37.175781 11.847656 37.226562 11.882812 L 37.230469 11.882812 " fill-opacity="1" fill-rule="nonzero"/></g></g></g><g clip-path="url(#9aac83422c)"><g clip-path="url(#097dd71bc9)"><g clip-path="url(#087e6d4dcb)"><path fill="#ffffff" d="M 41.765625 9.664062 C 41.742188 9.628906 41.722656 9.605469 41.703125 9.582031 C 41.1875 8.917969 40.597656 8.324219 39.957031 7.785156 C 38.691406 6.714844 37.304688 5.84375 35.804688 5.15625 C 34.835938 4.710938 33.84375 4.339844 32.816406 4.0625 C 32.394531 3.949219 31.96875 3.859375 31.535156 3.820312 C 31.292969 3.796875 31.054688 3.792969 30.816406 3.832031 C 30.707031 3.851562 30.601562 3.878906 30.511719 3.941406 C 30.4375 3.992188 30.410156 4.058594 30.425781 4.144531 C 30.429688 4.171875 30.4375 4.199219 30.445312 4.222656 C 30.480469 4.332031 30.539062 4.429688 30.605469 4.527344 C 30.78125 4.789062 30.996094 5.023438 31.214844 5.25 C 31.789062 5.835938 32.417969 6.351562 33.074219 6.832031 C 34.214844 7.660156 35.445312 8.335938 36.734375 8.90625 C 37.464844 9.226562 38.21875 9.488281 39.003906 9.652344 C 39.613281 9.785156 40.230469 9.855469 40.851562 9.820312 C 41.136719 9.804688 41.417969 9.773438 41.691406 9.6875 C 41.710938 9.679688 41.734375 9.671875 41.765625 9.664062 Z M 42.070312 9.515625 C 42.171875 9.453125 42.257812 9.375 42.328125 9.285156 C 42.554688 9.011719 42.636719 8.695312 42.605469 8.347656 C 42.585938 8.125 42.527344 7.914062 42.449219 7.710938 C 42.246094 7.179688 41.964844 6.695312 41.605469 6.253906 C 41.285156 5.855469 40.917969 5.503906 40.527344 5.175781 C 40.132812 4.839844 39.734375 4.503906 39.335938 4.167969 C 39.273438 4.113281 39.210938 4.058594 39.152344 4 C 39.527344 4.230469 39.90625 4.453125 40.28125 4.6875 C 41.054688 5.175781 41.707031 5.796875 42.226562 6.554688 C 42.492188 6.941406 42.707031 7.355469 42.855469 7.804688 C 42.941406 8.066406 42.992188 8.335938 42.972656 8.613281 C 42.9375 9.101562 42.730469 9.5 42.339844 9.800781 C 42.328125 9.808594 42.320312 9.816406 42.308594 9.824219 C 42.304688 9.828125 42.304688 9.828125 42.300781 9.835938 C 42.308594 9.847656 42.316406 9.863281 42.328125 9.878906 C 42.550781 10.210938 42.753906 10.558594 42.917969 10.925781 C 43.097656 11.328125 43.234375 11.742188 43.269531 12.1875 C 43.285156 12.382812 43.277344 12.574219 43.234375 12.765625 C 43.160156 13.082031 42.992188 13.335938 42.707031 13.5 C 42.527344 13.605469 42.328125 13.660156 42.117188 13.6875 C 41.851562 13.722656 41.582031 13.710938 41.3125 13.675781 C 40.742188 13.601562 40.183594 13.460938 39.644531 13.253906 C 39.410156 13.164062 39.1875 13.050781 38.984375 12.898438 C 38.945312 12.867188 38.910156 12.832031 38.882812 12.789062 C 38.90625 12.800781 38.929688 12.8125 38.953125 12.824219 C 39.375 13.054688 39.828125 13.195312 40.292969 13.296875 C 40.707031 13.390625 41.125 13.460938 41.550781 13.476562 C 41.796875 13.480469 42.042969 13.46875 42.28125 13.398438 C 42.398438 13.367188 42.507812 13.316406 42.605469 13.25 C 42.773438 13.132812 42.878906 12.972656 42.929688 12.773438 C 42.980469 12.582031 42.984375 12.386719 42.964844 12.191406 C 42.929688 11.847656 42.828125 11.519531 42.695312 11.203125 C 42.519531 10.792969 42.296875 10.410156 42.042969 10.042969 C 42.03125 10.027344 42.023438 10.011719 42.011719 10 C 42.003906 10 41.996094 10 41.988281 10 C 41.625 10.148438 41.238281 10.203125 40.847656 10.226562 C 40.183594 10.269531 39.53125 10.199219 38.882812 10.0625 C 38.125 9.902344 37.394531 9.660156 36.683594 9.351562 C 35.191406 8.707031 33.785156 7.914062 32.496094 6.921875 C 31.894531 6.460938 31.320312 5.964844 30.804688 5.410156 C 30.597656 5.1875 30.402344 4.960938 30.242188 4.703125 C 30.152344 4.5625 30.078125 4.414062 30.046875 4.246094 C 29.980469 3.9375 30.125 3.6875 30.417969 3.558594 C 30.605469 3.472656 30.804688 3.441406 31.007812 3.433594 C 31.347656 3.414062 31.683594 3.453125 32.015625 3.511719 C 32.582031 3.609375 33.132812 3.761719 33.679688 3.941406 C 35.144531 4.425781 36.542969 5.046875 37.859375 5.855469 C 38.890625 6.488281 39.859375 7.199219 40.738281 8.03125 C 41.207031 8.480469 41.648438 8.960938 42.039062 9.480469 C 42.046875 9.492188 42.058594 9.5 42.070312 9.515625 " fill-opacity="1" fill-rule="nonzero"/></g></g></g><g clip-path="url(#c7ce971ed0)"><g clip-path="url(#7f41c8fd46)"><g clip-path="url(#4b8ab5f50b)"><g clip-path="url(#bcf473127e)"><path fill="#ffffff" d="M 25.648438 29.867188 C 25.4375 29.738281 25.238281 29.613281 25.03125 29.488281 C 27.203125 26.035156 29.371094 22.585938 31.546875 19.132812 C 31.519531 19.128906 31.492188 19.125 31.46875 19.125 C 31.300781 19.113281 31.128906 19.101562 30.957031 19.09375 C 30.9375 19.09375 30.917969 19.089844 30.898438 19.085938 C 30.816406 19.070312 30.777344 18.980469 30.820312 18.910156 C 30.835938 18.886719 30.855469 18.867188 30.871094 18.847656 C 31.015625 18.683594 31.15625 18.519531 31.300781 18.355469 C 31.324219 18.328125 31.328125 18.304688 31.320312 18.269531 C 31.265625 18.074219 31.214844 17.875 31.164062 17.679688 C 31.15625 17.644531 31.144531 17.609375 31.140625 17.574219 C 31.125 17.480469 31.203125 17.414062 31.292969 17.441406 C 31.316406 17.445312 31.339844 17.457031 31.363281 17.46875 C 31.558594 17.550781 31.753906 17.632812 31.949219 17.71875 C 31.988281 17.734375 32.015625 17.730469 32.050781 17.710938 C 32.230469 17.589844 32.417969 17.472656 32.601562 17.355469 C 32.609375 17.351562 32.617188 17.34375 32.625 17.339844 C 32.667969 17.3125 32.714844 17.296875 32.765625 17.328125 C 32.816406 17.359375 32.828125 17.40625 32.824219 17.464844 C 32.800781 17.707031 32.78125 17.949219 32.761719 18.199219 C 32.785156 18.214844 32.808594 18.234375 32.832031 18.257812 C 32.992188 18.386719 33.152344 18.519531 33.3125 18.652344 C 33.328125 18.664062 33.339844 18.675781 33.355469 18.6875 C 33.417969 18.757812 33.394531 18.855469 33.304688 18.886719 C 33.242188 18.90625 33.171875 18.917969 33.105469 18.933594 C 32.941406 18.972656 32.777344 19.011719 32.613281 19.046875 C 32.570312 19.058594 32.550781 19.082031 32.535156 19.121094 C 32.457031 19.316406 32.378906 19.515625 32.300781 19.714844 C 32.296875 19.726562 32.289062 19.742188 32.285156 19.757812 C 32.265625 19.804688 32.234375 19.839844 32.179688 19.84375 C 32.125 19.847656 32.085938 19.820312 32.058594 19.773438 C 32.019531 19.710938 31.984375 19.648438 31.945312 19.585938 C 31.890625 19.496094 31.839844 19.410156 31.78125 19.3125 C 29.734375 22.832031 27.695312 26.347656 25.648438 29.867188 " fill-opacity="1" fill-rule="nonzero"/></g></g></g></g><g clip-path="url(#1d347103a6)"><g clip-path="url(#d46aa609dc)"><g clip-path="url(#727a2b131d)"><path fill="#ffffff" d="M 37.226562 11.882812 L 37.230469 11.878906 C 37.230469 11.878906 37.230469 11.882812 37.230469 11.882812 C 37.230469 11.882812 37.226562 11.882812 37.226562 11.882812 " fill-opacity="1" fill-rule="nonzero"/></g></g></g><g clip-path="url(#12cfc18ff6)"><g transform="matrix(1, 0, 0, 1, 47, 0.000000000000004441)"><g clip-path="url(#1761b951d5)"><g clip-path="url(#b2e0924e0f)"><g fill="#ffffff" fill-opacity="1"><g transform="translate(0.2857, 6.815818)"><g><path d="M 0.578125 -4.03125 L 2.984375 -4.03125 L 2.984375 -3.46875 L 1.15625 -3.46875 L 1.15625 -2.25 L 2.75 -2.25 L 2.75 -1.6875 L 1.15625 -1.6875 L 1.15625 0 L 0.578125 0 Z M 0.578125 -4.03125 "/></g></g></g></g><g fill="#ffffff" fill-opacity="1"><g transform="translate(5.207366, 6.815818)"><g><path d="M 0.234375 -1.1875 C 0.234375 -1.414062 0.289062 -1.625 0.40625 -1.8125 C 0.519531 -2 0.671875 -2.144531 0.859375 -2.25 C 1.054688 -2.363281 1.285156 -2.421875 1.546875 -2.421875 C 1.796875 -2.421875 2.015625 -2.363281 2.203125 -2.25 C 2.398438 -2.144531 2.550781 -2 2.65625 -1.8125 C 2.757812 -1.625 2.8125 -1.414062 2.8125 -1.1875 C 2.8125 -0.945312 2.753906 -0.734375 2.640625 -0.546875 C 2.535156 -0.359375 2.390625 -0.207031 2.203125 -0.09375 C 2.015625 0.0078125 1.789062 0.0625 1.53125 0.0625 C 1.28125 0.0625 1.054688 0.0078125 0.859375 -0.09375 C 0.671875 -0.195312 0.519531 -0.34375 0.40625 -0.53125 C 0.289062 -0.71875 0.234375 -0.9375 0.234375 -1.1875 Z M 0.8125 -1.171875 C 0.8125 -1.035156 0.84375 -0.90625 0.90625 -0.78125 C 0.96875 -0.664062 1.050781 -0.570312 1.15625 -0.5 C 1.269531 -0.4375 1.394531 -0.40625 1.53125 -0.40625 C 1.738281 -0.40625 1.910156 -0.476562 2.046875 -0.625 C 2.179688 -0.769531 2.25 -0.953125 2.25 -1.171875 C 2.25 -1.390625 2.179688 -1.570312 2.046875 -1.71875 C 1.910156 -1.875 1.738281 -1.953125 1.53125 -1.953125 C 1.382812 -1.953125 1.257812 -1.914062 1.15625 -1.84375 C 1.050781 -1.78125 0.96875 -1.6875 0.90625 -1.5625 C 0.84375 -1.445312 0.8125 -1.316406 0.8125 -1.171875 Z M 0.8125 -1.171875 "/></g></g></g><g fill="#ffffff" fill-opacity="1"><g transform="translate(10.129025, 6.815818)"><g><path d="M 1.34375 -1.484375 L 1.890625 -2.328125 L 2.453125 -2.328125 L 1.546875 -1.078125 Z M 2.546875 0 L 1.875 0 L 0.09375 -2.328125 L 0.796875 -2.328125 Z M 1.28125 -0.84375 L 0.6875 0 L 0.125 0 L 1.015625 -1.21875 Z M 1.28125 -0.84375 "/></g></g></g><g fill="#ffffff" fill-opacity="1"><g transform="translate(14.694766, 6.815818)"><g><path d="M 0.640625 1.125 L 2.171875 -2.328125 L 2.6875 -2.328125 L 1.1875 1.125 Z M 1.21875 0.015625 L 0.09375 -2.328125 L 0.734375 -2.328125 L 1.65625 -0.265625 Z M 1.21875 0.015625 "/></g></g></g><g fill="#ffffff" fill-opacity="1"><g transform="translate(19.399538, 6.815818)"><g/></g></g><g fill="#ffffff" fill-opacity="1"><g transform="translate(22.04666, 6.815818)"><g><path d="M 1.15625 -2.4375 L 1.140625 -2.234375 L 1.21875 -2.359375 L 2.8125 -4.03125 L 3.578125 -4.03125 L 1.90625 -2.28125 L 3.65625 0 L 2.90625 0 L 1.46875 -1.921875 L 1.15625 -1.609375 L 1.15625 0 L 0.578125 0 L 0.578125 -4.03125 L 1.15625 -4.03125 Z M 1.15625 -2.4375 "/></g></g></g><g fill="#ffffff" fill-opacity="1"><g transform="translate(27.769134, 6.815818)"><g><path d="M 0.4375 -2.328125 L 1 -2.328125 L 1 0 L 0.4375 0 Z M 0.40625 -3.15625 C 0.40625 -3.238281 0.4375 -3.304688 0.5 -3.359375 C 0.570312 -3.421875 0.648438 -3.453125 0.734375 -3.453125 C 0.816406 -3.453125 0.890625 -3.421875 0.953125 -3.359375 C 1.023438 -3.304688 1.0625 -3.238281 1.0625 -3.15625 C 1.0625 -3.0625 1.023438 -2.984375 0.953125 -2.921875 C 0.890625 -2.867188 0.816406 -2.84375 0.734375 -2.84375 C 0.648438 -2.84375 0.570312 -2.867188 0.5 -2.921875 C 0.4375 -2.984375 0.40625 -3.0625 0.40625 -3.15625 Z M 0.40625 -3.15625 "/></g></g></g><g fill="#ffffff" fill-opacity="1"><g transform="translate(31.13365, 6.815818)"><g><path d="M 0.953125 -2.328125 L 1 -1.78125 L 0.96875 -1.859375 C 1.039062 -2.023438 1.160156 -2.160156 1.328125 -2.265625 C 1.492188 -2.367188 1.6875 -2.421875 1.90625 -2.421875 C 2.125 -2.421875 2.304688 -2.351562 2.453125 -2.21875 C 2.597656 -2.09375 2.671875 -1.925781 2.671875 -1.71875 L 2.671875 0 L 2.109375 0 L 2.109375 -1.53125 C 2.109375 -1.644531 2.070312 -1.738281 2 -1.8125 C 1.9375 -1.894531 1.832031 -1.9375 1.6875 -1.9375 C 1.488281 -1.9375 1.320312 -1.851562 1.1875 -1.6875 C 1.0625 -1.53125 1 -1.320312 1 -1.0625 L 1 0 L 0.4375 0 L 0.4375 -2.328125 Z M 0.953125 -2.328125 "/></g></g></g><g fill="#ffffff" fill-opacity="1"><g transform="translate(36.172093, 6.815818)"><g><path d="M 1.578125 1.15625 C 1.398438 1.15625 1.242188 1.132812 1.109375 1.09375 C 0.972656 1.050781 0.851562 0.992188 0.75 0.921875 C 0.644531 0.847656 0.539062 0.769531 0.4375 0.6875 L 0.78125 0.3125 C 0.894531 0.414062 1.015625 0.5 1.140625 0.5625 C 1.265625 0.625 1.40625 0.65625 1.5625 0.65625 C 1.8125 0.65625 2.003906 0.597656 2.140625 0.484375 C 2.285156 0.367188 2.359375 0.207031 2.359375 0 L 2.359375 -0.59375 L 2.390625 -0.5 C 2.328125 -0.34375 2.210938 -0.207031 2.046875 -0.09375 C 1.878906 0.0078125 1.671875 0.0625 1.421875 0.0625 C 1.203125 0.0625 1.003906 0.0078125 0.828125 -0.09375 C 0.648438 -0.207031 0.503906 -0.359375 0.390625 -0.546875 C 0.285156 -0.734375 0.234375 -0.941406 0.234375 -1.171875 C 0.234375 -1.410156 0.289062 -1.625 0.40625 -1.8125 C 0.519531 -2 0.671875 -2.144531 0.859375 -2.25 C 1.046875 -2.363281 1.242188 -2.421875 1.453125 -2.421875 C 1.660156 -2.421875 1.847656 -2.378906 2.015625 -2.296875 C 2.179688 -2.222656 2.300781 -2.125 2.375 -2 L 2.34375 -1.90625 L 2.40625 -2.328125 L 2.921875 -2.328125 L 2.921875 0.015625 C 2.921875 0.222656 2.863281 0.410156 2.75 0.578125 C 2.644531 0.753906 2.488281 0.894531 2.28125 1 C 2.082031 1.101562 1.847656 1.15625 1.578125 1.15625 Z M 0.8125 -1.1875 C 0.8125 -1.039062 0.84375 -0.90625 0.90625 -0.78125 C 0.976562 -0.664062 1.070312 -0.570312 1.1875 -0.5 C 1.300781 -0.4375 1.429688 -0.40625 1.578125 -0.40625 C 1.773438 -0.40625 1.941406 -0.457031 2.078125 -0.5625 C 2.210938 -0.664062 2.304688 -0.796875 2.359375 -0.953125 L 2.359375 -1.421875 C 2.304688 -1.585938 2.207031 -1.71875 2.0625 -1.8125 C 1.925781 -1.914062 1.765625 -1.96875 1.578125 -1.96875 C 1.429688 -1.96875 1.300781 -1.929688 1.1875 -1.859375 C 1.070312 -1.796875 0.976562 -1.707031 0.90625 -1.59375 C 0.84375 -1.476562 0.8125 -1.34375 0.8125 -1.1875 Z M 0.8125 -1.1875 "/></g></g></g><g fill="#ffffff" fill-opacity="1"><g transform="translate(41.455228, 6.815818)"><g><path d="M 1.390625 0.0625 C 1.171875 0.0625 0.972656 0.0078125 0.796875 -0.09375 C 0.628906 -0.195312 0.492188 -0.34375 0.390625 -0.53125 C 0.285156 -0.71875 0.234375 -0.941406 0.234375 -1.203125 C 0.234375 -1.453125 0.285156 -1.664062 0.390625 -1.84375 C 0.503906 -2.03125 0.648438 -2.171875 0.828125 -2.265625 C 1.015625 -2.367188 1.222656 -2.421875 1.453125 -2.421875 C 1.628906 -2.421875 1.796875 -2.382812 1.953125 -2.3125 C 2.117188 -2.238281 2.25 -2.140625 2.34375 -2.015625 L 2.328125 -1.8125 L 2.328125 -4.328125 L 2.890625 -4.328125 L 2.890625 0 L 2.3125 0 L 2.3125 -0.5625 L 2.375 -0.40625 C 2.269531 -0.269531 2.128906 -0.15625 1.953125 -0.0625 C 1.785156 0.0195312 1.597656 0.0625 1.390625 0.0625 Z M 1.5625 -0.421875 C 1.757812 -0.421875 1.921875 -0.46875 2.046875 -0.5625 C 2.179688 -0.664062 2.269531 -0.804688 2.3125 -0.984375 L 2.3125 -1.4375 C 2.28125 -1.59375 2.191406 -1.71875 2.046875 -1.8125 C 1.910156 -1.914062 1.75 -1.96875 1.5625 -1.96875 C 1.425781 -1.96875 1.300781 -1.9375 1.1875 -1.875 C 1.070312 -1.8125 0.976562 -1.71875 0.90625 -1.59375 C 0.84375 -1.476562 0.8125 -1.347656 0.8125 -1.203125 C 0.8125 -1.054688 0.84375 -0.921875 0.90625 -0.796875 C 0.976562 -0.679688 1.070312 -0.585938 1.1875 -0.515625 C 1.300781 -0.453125 1.425781 -0.421875 1.5625 -0.421875 Z M 1.5625 -0.421875 "/></g></g></g><g fill="#ffffff" fill-opacity="1"><g transform="translate(46.704999, 6.815818)"><g><path d="M 0.234375 -1.1875 C 0.234375 -1.414062 0.289062 -1.625 0.40625 -1.8125 C 0.519531 -2 0.671875 -2.144531 0.859375 -2.25 C 1.054688 -2.363281 1.285156 -2.421875 1.546875 -2.421875 C 1.796875 -2.421875 2.015625 -2.363281 2.203125 -2.25 C 2.398438 -2.144531 2.550781 -2 2.65625 -1.8125 C 2.757812 -1.625 2.8125 -1.414062 2.8125 -1.1875 C 2.8125 -0.945312 2.753906 -0.734375 2.640625 -0.546875 C 2.535156 -0.359375 2.390625 -0.207031 2.203125 -0.09375 C 2.015625 0.0078125 1.789062 0.0625 1.53125 0.0625 C 1.28125 0.0625 1.054688 0.0078125 0.859375 -0.09375 C 0.671875 -0.195312 0.519531 -0.34375 0.40625 -0.53125 C 0.289062 -0.71875 0.234375 -0.9375 0.234375 -1.1875 Z M 0.8125 -1.171875 C 0.8125 -1.035156 0.84375 -0.90625 0.90625 -0.78125 C 0.96875 -0.664062 1.050781 -0.570312 1.15625 -0.5 C 1.269531 -0.4375 1.394531 -0.40625 1.53125 -0.40625 C 1.738281 -0.40625 1.910156 -0.476562 2.046875 -0.625 C 2.179688 -0.769531 2.25 -0.953125 2.25 -1.171875 C 2.25 -1.390625 2.179688 -1.570312 2.046875 -1.71875 C 1.910156 -1.875 1.738281 -1.953125 1.53125 -1.953125 C 1.382812 -1.953125 1.257812 -1.914062 1.15625 -1.84375 C 1.050781 -1.78125 0.96875 -1.6875 0.90625 -1.5625 C 0.84375 -1.445312 0.8125 -1.316406 0.8125 -1.171875 Z M 0.8125 -1.171875 "/></g></g></g><g fill="#ffffff" fill-opacity="1"><g transform="translate(51.682268, 6.815818)"><g><path d="M 0.953125 -2.328125 L 1 -1.8125 L 0.96875 -1.859375 C 1.050781 -2.035156 1.171875 -2.171875 1.328125 -2.265625 C 1.484375 -2.367188 1.664062 -2.421875 1.875 -2.421875 C 2.0625 -2.421875 2.21875 -2.375 2.34375 -2.28125 C 2.476562 -2.195312 2.5625 -2.070312 2.59375 -1.90625 L 2.5625 -1.890625 C 2.65625 -2.054688 2.78125 -2.1875 2.9375 -2.28125 C 3.09375 -2.375 3.257812 -2.421875 3.4375 -2.421875 C 3.664062 -2.421875 3.84375 -2.351562 3.96875 -2.21875 C 4.101562 -2.09375 4.175781 -1.925781 4.1875 -1.71875 L 4.1875 0 L 3.625 0 L 3.625 -1.515625 C 3.625 -1.628906 3.597656 -1.722656 3.546875 -1.796875 C 3.492188 -1.878906 3.40625 -1.925781 3.28125 -1.9375 C 3.144531 -1.9375 3.023438 -1.894531 2.921875 -1.8125 C 2.816406 -1.726562 2.734375 -1.617188 2.671875 -1.484375 C 2.617188 -1.359375 2.59375 -1.222656 2.59375 -1.078125 L 2.59375 0 L 2.03125 0 L 2.03125 -1.515625 C 2.03125 -1.628906 2 -1.722656 1.9375 -1.796875 C 1.882812 -1.878906 1.796875 -1.925781 1.671875 -1.9375 C 1.535156 -1.9375 1.414062 -1.894531 1.3125 -1.8125 C 1.21875 -1.726562 1.140625 -1.617188 1.078125 -1.484375 C 1.023438 -1.359375 1 -1.222656 1 -1.078125 L 1 0 L 0.4375 0 L 0.4375 -2.328125 Z M 0.953125 -2.328125 "/></g></g></g><g fill="#ffffff" fill-opacity="1"><g transform="translate(58.22909, 6.815818)"><g/></g></g></g></g></g><g transform="matrix(1, 0, 0, 1, 44, 20)"><g clip-path="url(#6183e532ae)"><g fill="#ffffff" fill-opacity="1"><g transform="translate(0.887506, 7.416833)"><g><path d="M 0.609375 0 L 0.609375 -4.453125 L 0.625 -4.453125 L 2.890625 -1.21875 L 2.625 -1.265625 L 4.90625 -4.453125 L 4.921875 -4.453125 L 4.921875 0 L 4.296875 0 L 4.296875 -3.046875 L 4.328125 -2.71875 L 2.75 -0.46875 L 2.734375 -0.46875 L 1.109375 -2.71875 L 1.21875 -3.015625 L 1.21875 0 Z M 0.609375 0 "/></g></g></g><g fill="#ffffff" fill-opacity="1"><g transform="translate(7.860362, 7.416833)"><g><path d="M 0.46875 -2.484375 L 1.0625 -2.484375 L 1.0625 0 L 0.46875 0 Z M 0.4375 -3.375 C 0.4375 -3.457031 0.472656 -3.53125 0.546875 -3.59375 C 0.617188 -3.664062 0.703125 -3.703125 0.796875 -3.703125 C 0.878906 -3.703125 0.957031 -3.664062 1.03125 -3.59375 C 1.101562 -3.53125 1.140625 -3.457031 1.140625 -3.375 C 1.140625 -3.269531 1.101562 -3.1875 1.03125 -3.125 C 0.957031 -3.070312 0.878906 -3.046875 0.796875 -3.046875 C 0.703125 -3.046875 0.617188 -3.070312 0.546875 -3.125 C 0.472656 -3.1875 0.4375 -3.269531 0.4375 -3.375 Z M 0.4375 -3.375 "/></g></g></g><g fill="#ffffff" fill-opacity="1"><g transform="translate(10.85126, 7.416833)"><g><path d="M 1.015625 -2.484375 L 1.0625 -1.90625 L 1.046875 -1.984375 C 1.117188 -2.160156 1.242188 -2.300781 1.421875 -2.40625 C 1.597656 -2.519531 1.804688 -2.578125 2.046875 -2.578125 C 2.273438 -2.578125 2.460938 -2.507812 2.609375 -2.375 C 2.765625 -2.238281 2.84375 -2.054688 2.84375 -1.828125 L 2.84375 0 L 2.25 0 L 2.25 -1.625 C 2.25 -1.75 2.210938 -1.851562 2.140625 -1.9375 C 2.066406 -2.019531 1.957031 -2.0625 1.8125 -2.0625 C 1.59375 -2.0625 1.410156 -1.972656 1.265625 -1.796875 C 1.128906 -1.628906 1.0625 -1.410156 1.0625 -1.140625 L 1.0625 0 L 0.46875 0 L 0.46875 -2.484375 Z M 1.015625 -2.484375 "/></g></g></g><g fill="#ffffff" fill-opacity="1"><g transform="translate(15.628402, 7.416833)"><g><path d="M 0.46875 -2.484375 L 1.0625 -2.484375 L 1.0625 0 L 0.46875 0 Z M 0.4375 -3.375 C 0.4375 -3.457031 0.472656 -3.53125 0.546875 -3.59375 C 0.617188 -3.664062 0.703125 -3.703125 0.796875 -3.703125 C 0.878906 -3.703125 0.957031 -3.664062 1.03125 -3.59375 C 1.101562 -3.53125 1.140625 -3.457031 1.140625 -3.375 C 1.140625 -3.269531 1.101562 -3.1875 1.03125 -3.125 C 0.957031 -3.070312 0.878906 -3.046875 0.796875 -3.046875 C 0.703125 -3.046875 0.617188 -3.070312 0.546875 -3.125 C 0.472656 -3.1875 0.4375 -3.269531 0.4375 -3.375 Z M 0.4375 -3.375 "/></g></g></g><g fill="#ffffff" fill-opacity="1"><g transform="translate(18.6193, 7.416833)"><g><path d="M 1.1875 0.046875 C 1.007812 0.046875 0.835938 0.015625 0.671875 -0.046875 C 0.503906 -0.109375 0.363281 -0.203125 0.25 -0.328125 L 0.5 -0.671875 C 0.601562 -0.566406 0.707031 -0.488281 0.8125 -0.4375 C 0.925781 -0.394531 1.035156 -0.375 1.140625 -0.375 C 1.253906 -0.375 1.351562 -0.394531 1.4375 -0.4375 C 1.53125 -0.476562 1.578125 -0.554688 1.578125 -0.671875 C 1.578125 -0.753906 1.546875 -0.816406 1.484375 -0.859375 C 1.429688 -0.910156 1.359375 -0.953125 1.265625 -0.984375 C 1.179688 -1.015625 1.085938 -1.046875 0.984375 -1.078125 C 0.785156 -1.140625 0.628906 -1.234375 0.515625 -1.359375 C 0.410156 -1.484375 0.359375 -1.632812 0.359375 -1.8125 C 0.359375 -1.9375 0.390625 -2.054688 0.453125 -2.171875 C 0.515625 -2.285156 0.613281 -2.378906 0.75 -2.453125 C 0.882812 -2.535156 1.050781 -2.578125 1.25 -2.578125 C 1.425781 -2.578125 1.582031 -2.554688 1.71875 -2.515625 C 1.863281 -2.472656 1.992188 -2.398438 2.109375 -2.296875 L 1.875 -1.9375 C 1.800781 -2.007812 1.71875 -2.0625 1.625 -2.09375 C 1.53125 -2.132812 1.441406 -2.15625 1.359375 -2.15625 C 1.253906 -2.15625 1.160156 -2.128906 1.078125 -2.078125 C 1.003906 -2.035156 0.96875 -1.972656 0.96875 -1.890625 C 0.96875 -1.804688 0.992188 -1.738281 1.046875 -1.6875 C 1.097656 -1.632812 1.164062 -1.59375 1.25 -1.5625 C 1.34375 -1.539062 1.4375 -1.515625 1.53125 -1.484375 C 1.71875 -1.421875 1.867188 -1.335938 1.984375 -1.234375 C 2.109375 -1.128906 2.171875 -0.976562 2.171875 -0.78125 C 2.171875 -0.632812 2.132812 -0.492188 2.0625 -0.359375 C 1.988281 -0.234375 1.878906 -0.132812 1.734375 -0.0625 C 1.585938 0.0078125 1.40625 0.046875 1.1875 0.046875 Z M 1.1875 0.046875 "/></g></g></g><g fill="#ffffff" fill-opacity="1"><g transform="translate(22.530025, 7.416833)"><g><path d="M 0.703125 -3.5625 L 1.3125 -3.5625 L 1.3125 -2.46875 L 1.984375 -2.46875 L 1.984375 -2 L 1.3125 -2 L 1.3125 0 L 0.703125 0 L 0.703125 -2 L 0.265625 -2 L 0.265625 -2.46875 L 0.703125 -2.46875 Z M 0.703125 -3.5625 "/></g></g></g><g fill="#ffffff" fill-opacity="1"><g transform="translate(26.14997, 7.416833)"><g><path d="M 1 -2.484375 L 1.0625 -1.765625 L 1.046875 -1.859375 C 1.109375 -2.015625 1.195312 -2.144531 1.3125 -2.25 C 1.4375 -2.351562 1.566406 -2.429688 1.703125 -2.484375 C 1.835938 -2.546875 1.945312 -2.578125 2.03125 -2.578125 L 2 -1.984375 C 1.820312 -1.992188 1.660156 -1.957031 1.515625 -1.875 C 1.378906 -1.789062 1.269531 -1.679688 1.1875 -1.546875 C 1.101562 -1.410156 1.0625 -1.265625 1.0625 -1.109375 L 1.0625 0 L 0.46875 0 L 0.46875 -2.484375 Z M 1 -2.484375 "/></g></g></g><g fill="#ffffff" fill-opacity="1"><g transform="translate(29.864865, 7.416833)"><g><path d="M 0.6875 1.1875 L 2.3125 -2.484375 L 2.875 -2.484375 L 1.265625 1.1875 Z M 1.296875 0.015625 L 0.109375 -2.484375 L 0.78125 -2.484375 L 1.765625 -0.28125 Z M 1.296875 0.015625 "/></g></g></g><g fill="#ffffff" fill-opacity="1"><g transform="translate(34.285948, 7.416833)"><g/></g></g><g fill="#ffffff" fill-opacity="1"><g transform="translate(36.511317, 7.416833)"><g><path d="M 0.25 -1.265625 C 0.25 -1.515625 0.304688 -1.738281 0.421875 -1.9375 C 0.546875 -2.132812 0.710938 -2.289062 0.921875 -2.40625 C 1.128906 -2.519531 1.367188 -2.578125 1.640625 -2.578125 C 1.910156 -2.578125 2.148438 -2.519531 2.359375 -2.40625 C 2.566406 -2.289062 2.722656 -2.132812 2.828125 -1.9375 C 2.941406 -1.738281 3 -1.515625 3 -1.265625 C 3 -1.015625 2.941406 -0.789062 2.828125 -0.59375 C 2.710938 -0.394531 2.550781 -0.234375 2.34375 -0.109375 C 2.144531 0.00390625 1.910156 0.0625 1.640625 0.0625 C 1.367188 0.0625 1.128906 0.0078125 0.921875 -0.09375 C 0.722656 -0.207031 0.5625 -0.363281 0.4375 -0.5625 C 0.3125 -0.757812 0.25 -0.992188 0.25 -1.265625 Z M 0.859375 -1.265625 C 0.859375 -1.109375 0.890625 -0.96875 0.953125 -0.84375 C 1.023438 -0.71875 1.117188 -0.617188 1.234375 -0.546875 C 1.347656 -0.472656 1.476562 -0.4375 1.625 -0.4375 C 1.851562 -0.4375 2.039062 -0.515625 2.1875 -0.671875 C 2.332031 -0.828125 2.40625 -1.023438 2.40625 -1.265625 C 2.40625 -1.492188 2.332031 -1.6875 2.1875 -1.84375 C 2.039062 -2.007812 1.851562 -2.09375 1.625 -2.09375 C 1.476562 -2.09375 1.347656 -2.050781 1.234375 -1.96875 C 1.117188 -1.894531 1.023438 -1.796875 0.953125 -1.671875 C 0.890625 -1.546875 0.859375 -1.410156 0.859375 -1.265625 Z M 0.859375 -1.265625 "/></g></g></g><g fill="#ffffff" fill-opacity="1"><g transform="translate(41.22318, 7.416833)"><g><path d="M 0.671875 0 L 0.671875 -1.953125 L 0.25 -1.953125 L 0.25 -2.484375 L 0.671875 -2.484375 L 0.671875 -3.5 C 0.671875 -3.851562 0.753906 -4.125 0.921875 -4.3125 C 1.097656 -4.507812 1.347656 -4.609375 1.671875 -4.609375 C 1.753906 -4.609375 1.847656 -4.59375 1.953125 -4.5625 C 2.054688 -4.539062 2.148438 -4.503906 2.234375 -4.453125 L 1.984375 -4.015625 C 1.953125 -4.054688 1.910156 -4.082031 1.859375 -4.09375 C 1.816406 -4.113281 1.773438 -4.125 1.734375 -4.125 C 1.585938 -4.125 1.472656 -4.070312 1.390625 -3.96875 C 1.316406 -3.875 1.28125 -3.710938 1.28125 -3.484375 L 1.28125 -2.484375 L 2.0625 -2.484375 L 2.0625 -1.953125 L 1.28125 -1.953125 L 1.28125 0 Z M 0.671875 0 "/></g></g></g><g fill="#ffffff" fill-opacity="1"><g transform="translate(44.979614, 7.416833)"><g/></g></g><g fill="#ffffff" fill-opacity="1"><g transform="translate(47.204983, 7.416833)"><g><path d="M 0.609375 -4.3125 L 1.234375 -4.3125 L 1.234375 -0.59375 L 3.390625 -0.59375 L 3.390625 0 L 0.609375 0 Z M 0.609375 -4.3125 "/></g></g></g><g fill="#ffffff" fill-opacity="1"><g transform="translate(52.367856, 7.416833)"><g><path d="M 0.46875 -2.484375 L 1.0625 -2.484375 L 1.0625 0 L 0.46875 0 Z M 0.4375 -3.375 C 0.4375 -3.457031 0.472656 -3.53125 0.546875 -3.59375 C 0.617188 -3.664062 0.703125 -3.703125 0.796875 -3.703125 C 0.878906 -3.703125 0.957031 -3.664062 1.03125 -3.59375 C 1.101562 -3.53125 1.140625 -3.457031 1.140625 -3.375 C 1.140625 -3.269531 1.101562 -3.1875 1.03125 -3.125 C 0.957031 -3.070312 0.878906 -3.046875 0.796875 -3.046875 C 0.703125 -3.046875 0.617188 -3.070312 0.546875 -3.125 C 0.472656 -3.1875 0.4375 -3.269531 0.4375 -3.375 Z M 0.4375 -3.375 "/></g></g></g><g fill="#ffffff" fill-opacity="1"><g transform="translate(55.358754, 7.416833)"><g><path d="M 0.671875 0 L 0.671875 -1.953125 L 0.25 -1.953125 L 0.25 -2.484375 L 0.671875 -2.484375 L 0.671875 -3.5 C 0.671875 -3.851562 0.753906 -4.125 0.921875 -4.3125 C 1.097656 -4.507812 1.347656 -4.609375 1.671875 -4.609375 C 1.753906 -4.609375 1.847656 -4.59375 1.953125 -4.5625 C 2.054688 -4.539062 2.148438 -4.503906 2.234375 -4.453125 L 1.984375 -4.015625 C 1.953125 -4.054688 1.910156 -4.082031 1.859375 -4.09375 C 1.816406 -4.113281 1.773438 -4.125 1.734375 -4.125 C 1.585938 -4.125 1.472656 -4.070312 1.390625 -3.96875 C 1.316406 -3.875 1.28125 -3.710938 1.28125 -3.484375 L 1.28125 -2.484375 L 2.0625 -2.484375 L 2.0625 -1.953125 L 1.28125 -1.953125 L 1.28125 0 Z M 0.671875 0 "/></g></g></g><g fill="#ffffff" fill-opacity="1"><g transform="translate(58.972768, 7.416833)"><g><path d="M 1.640625 0.0625 C 1.347656 0.0625 1.097656 0.00390625 0.890625 -0.109375 C 0.691406 -0.222656 0.535156 -0.378906 0.421875 -0.578125 C 0.304688 -0.773438 0.25 -1.003906 0.25 -1.265625 C 0.25 -1.503906 0.3125 -1.722656 0.4375 -1.921875 C 0.5625 -2.128906 0.726562 -2.289062 0.9375 -2.40625 C 1.15625 -2.519531 1.390625 -2.578125 1.640625 -2.578125 C 1.972656 -2.578125 2.25 -2.476562 2.46875 -2.28125 C 2.6875 -2.09375 2.835938 -1.828125 2.921875 -1.484375 L 0.890625 -0.78125 L 0.75 -1.125 L 2.375 -1.71875 L 2.25 -1.640625 C 2.195312 -1.765625 2.117188 -1.875 2.015625 -1.96875 C 1.921875 -2.0625 1.785156 -2.109375 1.609375 -2.109375 C 1.378906 -2.109375 1.191406 -2.03125 1.046875 -1.875 C 0.910156 -1.726562 0.84375 -1.535156 0.84375 -1.296875 C 0.84375 -1.046875 0.914062 -0.84375 1.0625 -0.6875 C 1.21875 -0.53125 1.410156 -0.453125 1.640625 -0.453125 C 1.753906 -0.453125 1.859375 -0.46875 1.953125 -0.5 C 2.054688 -0.539062 2.148438 -0.59375 2.234375 -0.65625 L 2.5 -0.21875 C 2.375 -0.132812 2.234375 -0.0664062 2.078125 -0.015625 C 1.929688 0.0351562 1.785156 0.0625 1.640625 0.0625 Z M 1.640625 0.0625 "/></g></g></g></g></g><g transform="matrix(1, 0, 0, 1, 52, 7)"><g clip-path="url(#a3b752fd57)"><g clip-path="url(#9c1a20a8d2)"><g fill="#ffffff" fill-opacity="1"><g transform="translate(0.342867, 10.725424)"><g><path d="M 0.40625 -2.03125 C 0.40625 -2.4375 0.5 -2.796875 0.6875 -3.109375 C 0.882812 -3.429688 1.148438 -3.6875 1.484375 -3.875 C 1.828125 -4.0625 2.210938 -4.15625 2.640625 -4.15625 C 3.078125 -4.15625 3.457031 -4.0625 3.78125 -3.875 C 4.113281 -3.6875 4.367188 -3.429688 4.546875 -3.109375 C 4.734375 -2.796875 4.828125 -2.4375 4.828125 -2.03125 C 4.828125 -1.632812 4.734375 -1.273438 4.546875 -0.953125 C 4.367188 -0.628906 4.113281 -0.375 3.78125 -0.1875 C 3.457031 0 3.070312 0.09375 2.625 0.09375 C 2.207031 0.09375 1.832031 0.0078125 1.5 -0.15625 C 1.164062 -0.332031 0.898438 -0.582031 0.703125 -0.90625 C 0.503906 -1.226562 0.40625 -1.601562 0.40625 -2.03125 Z M 1.390625 -2.03125 C 1.390625 -1.78125 1.441406 -1.550781 1.546875 -1.34375 C 1.648438 -1.144531 1.796875 -0.988281 1.984375 -0.875 C 2.171875 -0.757812 2.378906 -0.703125 2.609375 -0.703125 C 2.972656 -0.703125 3.269531 -0.828125 3.5 -1.078125 C 3.738281 -1.328125 3.859375 -1.644531 3.859375 -2.03125 C 3.859375 -2.40625 3.738281 -2.71875 3.5 -2.96875 C 3.269531 -3.226562 2.972656 -3.359375 2.609375 -3.359375 C 2.378906 -3.359375 2.171875 -3.296875 1.984375 -3.171875 C 1.796875 -3.054688 1.648438 -2.894531 1.546875 -2.6875 C 1.441406 -2.488281 1.390625 -2.269531 1.390625 -2.03125 Z M 1.390625 -2.03125 "/></g></g></g></g><g fill="#ffffff" fill-opacity="1"><g transform="translate(9.585962, 10.725424)"><g><path d="M 1.09375 0 L 1.09375 -3.125 L 0.40625 -3.125 L 0.40625 -3.984375 L 1.09375 -3.984375 L 1.09375 -5.625 C 1.09375 -6.1875 1.226562 -6.625 1.5 -6.9375 C 1.769531 -7.257812 2.164062 -7.421875 2.6875 -7.421875 C 2.820312 -7.421875 2.972656 -7.398438 3.140625 -7.359375 C 3.316406 -7.316406 3.46875 -7.25 3.59375 -7.15625 L 3.1875 -6.46875 C 3.132812 -6.53125 3.070312 -6.570312 3 -6.59375 C 2.925781 -6.613281 2.851562 -6.625 2.78125 -6.625 C 2.550781 -6.625 2.367188 -6.546875 2.234375 -6.390625 C 2.109375 -6.234375 2.046875 -5.972656 2.046875 -5.609375 L 2.046875 -3.984375 L 3.3125 -3.984375 L 3.3125 -3.125 L 2.046875 -3.125 L 2.046875 0 Z M 1.09375 0 "/></g></g></g><g fill="#ffffff" fill-opacity="1"><g transform="translate(17.294286, 10.725424)"><g/></g></g><g fill="#ffffff" fill-opacity="1"><g transform="translate(22.54318, 10.725424)"><g><path d="M 0.984375 -6.921875 L 5.125 -6.921875 L 5.125 -5.953125 L 1.96875 -5.953125 L 1.96875 -3.859375 L 4.71875 -3.859375 L 4.71875 -2.90625 L 1.96875 -2.90625 L 1.96875 0 L 0.984375 0 Z M 0.984375 -6.921875 "/></g></g></g><g fill="#ffffff" fill-opacity="1"><g transform="translate(32.024433, 10.725424)"><g><path d="M 2.03125 0.15625 C 1.664062 0.15625 1.363281 0.046875 1.125 -0.171875 C 0.882812 -0.390625 0.757812 -0.675781 0.75 -1.03125 L 0.75 -3.984375 L 1.71875 -3.984375 L 1.71875 -1.375 C 1.726562 -1.164062 1.785156 -0.992188 1.890625 -0.859375 C 2.003906 -0.734375 2.179688 -0.664062 2.421875 -0.65625 C 2.628906 -0.65625 2.816406 -0.71875 2.984375 -0.84375 C 3.160156 -0.976562 3.296875 -1.160156 3.390625 -1.390625 C 3.492188 -1.617188 3.546875 -1.878906 3.546875 -2.171875 L 3.546875 -3.984375 L 4.515625 -3.984375 L 4.515625 0 L 3.640625 0 L 3.578125 -0.9375 L 3.609375 -0.78125 C 3.484375 -0.507812 3.28125 -0.285156 3 -0.109375 C 2.71875 0.0664062 2.394531 0.15625 2.03125 0.15625 Z M 2.03125 0.15625 "/></g></g></g><g fill="#ffffff" fill-opacity="1"><g transform="translate(41.305657, 10.725424)"><g><path d="M 1.625 -3.984375 L 1.703125 -3.0625 L 1.671875 -3.203125 C 1.796875 -3.484375 2 -3.707031 2.28125 -3.875 C 2.570312 -4.050781 2.90625 -4.140625 3.28125 -4.140625 C 3.65625 -4.140625 3.960938 -4.03125 4.203125 -3.8125 C 4.453125 -3.59375 4.578125 -3.304688 4.578125 -2.953125 L 4.578125 0 L 3.625 0 L 3.625 -2.609375 C 3.613281 -2.816406 3.550781 -2.984375 3.4375 -3.109375 C 3.320312 -3.242188 3.144531 -3.316406 2.90625 -3.328125 C 2.5625 -3.328125 2.273438 -3.1875 2.046875 -2.90625 C 1.828125 -2.625 1.71875 -2.265625 1.71875 -1.828125 L 1.71875 0 L 0.75 0 L 0.75 -3.984375 Z M 1.625 -3.984375 "/></g></g></g></g></g></g></g><g transform="matrix(1, 0, 0, 1, 22, 46)"><g clip-path="url(#ffafb37604)"><g fill="#ffffff" fill-opacity="1"><g transform="translate(0.598094, 4.859651)"><g><path d="M 2.328125 0.09375 C 2.066406 0.09375 1.820312 0.046875 1.59375 -0.046875 C 1.363281 -0.140625 1.160156 -0.273438 0.984375 -0.453125 C 0.816406 -0.628906 0.679688 -0.832031 0.578125 -1.0625 C 0.484375 -1.289062 0.4375 -1.535156 0.4375 -1.796875 C 0.4375 -2.054688 0.484375 -2.300781 0.578125 -2.53125 C 0.679688 -2.757812 0.816406 -2.957031 0.984375 -3.125 C 1.160156 -3.300781 1.363281 -3.4375 1.59375 -3.53125 C 1.820312 -3.632812 2.066406 -3.6875 2.328125 -3.6875 C 2.585938 -3.6875 2.832031 -3.632812 3.0625 -3.53125 C 3.289062 -3.4375 3.492188 -3.300781 3.671875 -3.125 C 3.847656 -2.957031 3.984375 -2.757812 4.078125 -2.53125 C 4.171875 -2.300781 4.21875 -2.054688 4.21875 -1.796875 C 4.21875 -1.535156 4.171875 -1.289062 4.078125 -1.0625 C 3.984375 -0.832031 3.847656 -0.628906 3.671875 -0.453125 C 3.492188 -0.273438 3.289062 -0.140625 3.0625 -0.046875 C 2.832031 0.046875 2.585938 0.09375 2.328125 0.09375 Z M 2.328125 -0.109375 C 2.554688 -0.109375 2.769531 -0.148438 2.96875 -0.234375 C 3.175781 -0.328125 3.359375 -0.453125 3.515625 -0.609375 C 3.671875 -0.765625 3.789062 -0.941406 3.875 -1.140625 C 3.96875 -1.347656 4.015625 -1.566406 4.015625 -1.796875 C 4.015625 -2.023438 3.96875 -2.238281 3.875 -2.4375 C 3.789062 -2.644531 3.671875 -2.828125 3.515625 -2.984375 C 3.359375 -3.140625 3.175781 -3.257812 2.96875 -3.34375 C 2.769531 -3.4375 2.554688 -3.484375 2.328125 -3.484375 C 2.097656 -3.484375 1.878906 -3.4375 1.671875 -3.34375 C 1.472656 -3.257812 1.296875 -3.140625 1.140625 -2.984375 C 0.984375 -2.828125 0.859375 -2.644531 0.765625 -2.4375 C 0.679688 -2.238281 0.640625 -2.023438 0.640625 -1.796875 C 0.640625 -1.566406 0.679688 -1.347656 0.765625 -1.140625 C 0.859375 -0.941406 0.984375 -0.765625 1.140625 -0.609375 C 1.296875 -0.453125 1.472656 -0.328125 1.671875 -0.234375 C 1.878906 -0.148438 2.097656 -0.109375 2.328125 -0.109375 Z M 1.25 -1.796875 C 1.25 -2.179688 1.347656 -2.484375 1.546875 -2.703125 C 1.742188 -2.921875 2.015625 -3.03125 2.359375 -3.03125 C 2.660156 -3.03125 2.894531 -2.953125 3.0625 -2.796875 C 3.238281 -2.648438 3.34375 -2.425781 3.375 -2.125 L 3.171875 -2.125 C 3.097656 -2.601562 2.828125 -2.84375 2.359375 -2.84375 C 1.765625 -2.84375 1.46875 -2.492188 1.46875 -1.796875 C 1.46875 -1.460938 1.539062 -1.203125 1.6875 -1.015625 C 1.832031 -0.835938 2.046875 -0.75 2.328125 -0.75 C 2.585938 -0.75 2.789062 -0.8125 2.9375 -0.9375 C 3.09375 -1.070312 3.179688 -1.265625 3.203125 -1.515625 L 3.40625 -1.515625 C 3.394531 -1.222656 3.289062 -0.988281 3.09375 -0.8125 C 2.90625 -0.644531 2.648438 -0.5625 2.328125 -0.5625 C 1.984375 -0.5625 1.71875 -0.671875 1.53125 -0.890625 C 1.34375 -1.109375 1.25 -1.410156 1.25 -1.796875 Z M 1.25 -1.796875 "/></g></g></g><g fill="#ffffff" fill-opacity="1"><g transform="translate(5.251541, 4.859651)"><g/></g></g><g fill="#ffffff" fill-opacity="1"><g transform="translate(6.246009, 4.859651)"><g><path d="M 0.34375 0 L 0.34375 -0.203125 L 2.03125 -1.71875 C 2.175781 -1.84375 2.289062 -1.957031 2.375 -2.0625 C 2.457031 -2.175781 2.519531 -2.285156 2.5625 -2.390625 C 2.601562 -2.492188 2.625 -2.609375 2.625 -2.734375 C 2.625 -2.960938 2.546875 -3.144531 2.390625 -3.28125 C 2.242188 -3.425781 2.019531 -3.5 1.71875 -3.5 C 1.351562 -3.5 1.070312 -3.394531 0.875 -3.1875 C 0.6875 -2.988281 0.585938 -2.648438 0.578125 -2.171875 L 0.359375 -2.171875 C 0.367188 -2.535156 0.425781 -2.828125 0.53125 -3.046875 C 0.644531 -3.273438 0.800781 -3.4375 1 -3.53125 C 1.207031 -3.632812 1.441406 -3.6875 1.703125 -3.6875 C 1.972656 -3.6875 2.191406 -3.644531 2.359375 -3.5625 C 2.535156 -3.476562 2.664062 -3.363281 2.75 -3.21875 C 2.832031 -3.070312 2.875 -2.914062 2.875 -2.75 C 2.875 -2.601562 2.847656 -2.460938 2.796875 -2.328125 C 2.742188 -2.203125 2.660156 -2.070312 2.546875 -1.9375 C 2.441406 -1.8125 2.304688 -1.671875 2.140625 -1.515625 L 0.671875 -0.203125 L 2.953125 -0.203125 L 2.953125 0 Z M 0.34375 0 "/></g></g></g><g fill="#ffffff" fill-opacity="1"><g transform="translate(9.440188, 4.859651)"><g><path d="M 1.75 0.09375 C 1.414062 0.09375 1.132812 0.015625 0.90625 -0.140625 C 0.675781 -0.304688 0.503906 -0.53125 0.390625 -0.8125 C 0.273438 -1.09375 0.21875 -1.425781 0.21875 -1.8125 C 0.21875 -2.1875 0.273438 -2.515625 0.390625 -2.796875 C 0.503906 -3.078125 0.675781 -3.296875 0.90625 -3.453125 C 1.132812 -3.609375 1.414062 -3.6875 1.75 -3.6875 C 2.082031 -3.6875 2.363281 -3.609375 2.59375 -3.453125 C 2.820312 -3.296875 2.992188 -3.078125 3.109375 -2.796875 C 3.222656 -2.515625 3.28125 -2.1875 3.28125 -1.8125 C 3.28125 -1.425781 3.222656 -1.09375 3.109375 -0.8125 C 2.992188 -0.53125 2.820312 -0.304688 2.59375 -0.140625 C 2.363281 0.015625 2.082031 0.09375 1.75 0.09375 Z M 0.453125 -1.8125 C 0.453125 -1.238281 0.5625 -0.8125 0.78125 -0.53125 C 1.007812 -0.25 1.332031 -0.109375 1.75 -0.109375 C 2.164062 -0.109375 2.484375 -0.25 2.703125 -0.53125 C 2.921875 -0.8125 3.03125 -1.238281 3.03125 -1.8125 C 3.03125 -2.375 2.921875 -2.796875 2.703125 -3.078125 C 2.484375 -3.359375 2.164062 -3.5 1.75 -3.5 C 1.332031 -3.5 1.007812 -3.359375 0.78125 -3.078125 C 0.5625 -2.796875 0.453125 -2.375 0.453125 -1.8125 Z M 0.453125 -1.8125 "/></g></g></g><g fill="#ffffff" fill-opacity="1"><g transform="translate(12.904603, 4.859651)"><g><path d="M 0.34375 0 L 0.34375 -0.203125 L 2.03125 -1.71875 C 2.175781 -1.84375 2.289062 -1.957031 2.375 -2.0625 C 2.457031 -2.175781 2.519531 -2.285156 2.5625 -2.390625 C 2.601562 -2.492188 2.625 -2.609375 2.625 -2.734375 C 2.625 -2.960938 2.546875 -3.144531 2.390625 -3.28125 C 2.242188 -3.425781 2.019531 -3.5 1.71875 -3.5 C 1.351562 -3.5 1.070312 -3.394531 0.875 -3.1875 C 0.6875 -2.988281 0.585938 -2.648438 0.578125 -2.171875 L 0.359375 -2.171875 C 0.367188 -2.535156 0.425781 -2.828125 0.53125 -3.046875 C 0.644531 -3.273438 0.800781 -3.4375 1 -3.53125 C 1.207031 -3.632812 1.441406 -3.6875 1.703125 -3.6875 C 1.972656 -3.6875 2.191406 -3.644531 2.359375 -3.5625 C 2.535156 -3.476562 2.664062 -3.363281 2.75 -3.21875 C 2.832031 -3.070312 2.875 -2.914062 2.875 -2.75 C 2.875 -2.601562 2.847656 -2.460938 2.796875 -2.328125 C 2.742188 -2.203125 2.660156 -2.070312 2.546875 -1.9375 C 2.441406 -1.8125 2.304688 -1.671875 2.140625 -1.515625 L 0.671875 -0.203125 L 2.953125 -0.203125 L 2.953125 0 Z M 0.34375 0 "/></g></g></g><g fill="#ffffff" fill-opacity="1"><g transform="translate(16.098783, 4.859651)"><g><path d="M 1.703125 -2.234375 C 1.929688 -2.234375 2.140625 -2.1875 2.328125 -2.09375 C 2.515625 -2.007812 2.664062 -1.878906 2.78125 -1.703125 C 2.894531 -1.535156 2.953125 -1.328125 2.953125 -1.078125 C 2.953125 -0.867188 2.90625 -0.675781 2.8125 -0.5 C 2.71875 -0.320312 2.570312 -0.175781 2.375 -0.0625 C 2.1875 0.0390625 1.945312 0.09375 1.65625 0.09375 C 1.207031 0.09375 0.863281 -0.0390625 0.625 -0.3125 C 0.382812 -0.59375 0.265625 -1.054688 0.265625 -1.703125 C 0.265625 -2.097656 0.316406 -2.441406 0.421875 -2.734375 C 0.535156 -3.035156 0.695312 -3.269531 0.90625 -3.4375 C 1.125 -3.601562 1.398438 -3.6875 1.734375 -3.6875 C 1.992188 -3.6875 2.207031 -3.640625 2.375 -3.546875 C 2.539062 -3.460938 2.664062 -3.34375 2.75 -3.1875 C 2.84375 -3.039062 2.898438 -2.867188 2.921875 -2.671875 L 2.6875 -2.671875 C 2.65625 -2.953125 2.550781 -3.160156 2.375 -3.296875 C 2.207031 -3.429688 1.988281 -3.5 1.71875 -3.5 C 1.457031 -3.5 1.234375 -3.429688 1.046875 -3.296875 C 0.859375 -3.160156 0.710938 -2.941406 0.609375 -2.640625 C 0.515625 -2.335938 0.46875 -1.941406 0.46875 -1.453125 L 0.46875 -1.390625 C 0.519531 -1.546875 0.597656 -1.6875 0.703125 -1.8125 C 0.816406 -1.9375 0.957031 -2.035156 1.125 -2.109375 C 1.289062 -2.191406 1.484375 -2.234375 1.703125 -2.234375 Z M 1.640625 -0.109375 C 2.003906 -0.109375 2.269531 -0.195312 2.4375 -0.375 C 2.613281 -0.5625 2.703125 -0.796875 2.703125 -1.078125 C 2.703125 -1.253906 2.664062 -1.414062 2.59375 -1.5625 C 2.53125 -1.71875 2.421875 -1.835938 2.265625 -1.921875 C 2.109375 -2.003906 1.910156 -2.046875 1.671875 -2.046875 C 1.472656 -2.046875 1.289062 -2.003906 1.125 -1.921875 C 0.957031 -1.847656 0.820312 -1.738281 0.71875 -1.59375 C 0.613281 -1.457031 0.5625 -1.289062 0.5625 -1.09375 C 0.5625 -0.78125 0.660156 -0.535156 0.859375 -0.359375 C 1.054688 -0.191406 1.316406 -0.109375 1.640625 -0.109375 Z M 1.640625 -0.109375 "/></g></g></g><g fill="#ffffff" fill-opacity="1"><g transform="translate(19.271341, 4.859651)"><g><path d="M 0.171875 -0.0625 L 0.171875 -0.390625 L 0.578125 -0.390625 L 0.578125 0.234375 C 0.578125 0.378906 0.550781 0.476562 0.5 0.53125 C 0.445312 0.582031 0.347656 0.609375 0.203125 0.609375 L 0.171875 0.609375 L 0.171875 0.390625 L 0.390625 0.390625 L 0.390625 -0.0625 Z M 0.171875 -0.0625 "/></g></g></g><g fill="#ffffff" fill-opacity="1"><g transform="translate(20.017187, 4.859651)"><g/></g></g><g fill="#ffffff" fill-opacity="1"><g transform="translate(21.011655, 4.859651)"><g><path d="M 2.015625 0.09375 C 1.640625 0.09375 1.320312 0.015625 1.0625 -0.140625 C 0.8125 -0.304688 0.617188 -0.53125 0.484375 -0.8125 C 0.359375 -1.09375 0.296875 -1.425781 0.296875 -1.8125 C 0.296875 -2.1875 0.363281 -2.515625 0.5 -2.796875 C 0.632812 -3.078125 0.832031 -3.296875 1.09375 -3.453125 C 1.351562 -3.609375 1.679688 -3.6875 2.078125 -3.6875 C 2.566406 -3.6875 2.953125 -3.566406 3.234375 -3.328125 C 3.515625 -3.085938 3.679688 -2.734375 3.734375 -2.265625 L 3.5 -2.265625 C 3.4375 -2.703125 3.289062 -3.015625 3.0625 -3.203125 C 2.832031 -3.398438 2.503906 -3.5 2.078125 -3.5 C 1.578125 -3.5 1.195312 -3.363281 0.9375 -3.09375 C 0.675781 -2.820312 0.546875 -2.394531 0.546875 -1.8125 C 0.546875 -1.226562 0.671875 -0.796875 0.921875 -0.515625 C 1.179688 -0.242188 1.5625 -0.109375 2.0625 -0.109375 C 2.476562 -0.109375 2.800781 -0.226562 3.03125 -0.46875 C 3.257812 -0.71875 3.414062 -1.070312 3.5 -1.53125 L 1.671875 -1.53125 L 1.671875 -1.71875 L 3.734375 -1.71875 L 3.734375 -0.015625 L 3.515625 -0.015625 L 3.515625 -1.125 C 3.484375 -0.988281 3.4375 -0.847656 3.375 -0.703125 C 3.3125 -0.566406 3.222656 -0.4375 3.109375 -0.3125 C 3.003906 -0.195312 2.863281 -0.0976562 2.6875 -0.015625 C 2.507812 0.0546875 2.285156 0.09375 2.015625 0.09375 Z M 2.015625 0.09375 "/></g></g></g><g fill="#ffffff" fill-opacity="1"><g transform="translate(25.130039, 4.859651)"><g><path d="M 1.578125 0.09375 C 1.285156 0.09375 1.046875 0.03125 0.859375 -0.09375 C 0.671875 -0.21875 0.523438 -0.390625 0.421875 -0.609375 C 0.328125 -0.828125 0.28125 -1.078125 0.28125 -1.359375 C 0.28125 -1.640625 0.328125 -1.882812 0.421875 -2.09375 C 0.523438 -2.3125 0.671875 -2.484375 0.859375 -2.609375 C 1.046875 -2.734375 1.285156 -2.796875 1.578125 -2.796875 C 1.859375 -2.796875 2.09375 -2.734375 2.28125 -2.609375 C 2.476562 -2.484375 2.625 -2.3125 2.71875 -2.09375 C 2.8125 -1.882812 2.859375 -1.640625 2.859375 -1.359375 C 2.859375 -1.078125 2.8125 -0.828125 2.71875 -0.609375 C 2.625 -0.390625 2.476562 -0.21875 2.28125 -0.09375 C 2.09375 0.03125 1.859375 0.09375 1.578125 0.09375 Z M 0.515625 -1.359375 C 0.515625 -0.929688 0.609375 -0.613281 0.796875 -0.40625 C 0.984375 -0.207031 1.242188 -0.109375 1.578125 -0.109375 C 1.910156 -0.109375 2.171875 -0.207031 2.359375 -0.40625 C 2.546875 -0.613281 2.640625 -0.929688 2.640625 -1.359375 C 2.640625 -1.773438 2.546875 -2.082031 2.359375 -2.28125 C 2.171875 -2.488281 1.910156 -2.59375 1.578125 -2.59375 C 1.242188 -2.59375 0.984375 -2.488281 0.796875 -2.28125 C 0.609375 -2.082031 0.515625 -1.773438 0.515625 -1.359375 Z M 0.515625 -1.359375 "/></g></g></g><g fill="#ffffff" fill-opacity="1"><g transform="translate(28.075603, 4.859651)"><g><path d="M 2.5 -2.703125 L 2.71875 -2.703125 L 1.59375 0 L 1.296875 0 L 0.15625 -2.703125 L 0.40625 -2.703125 L 1.453125 -0.203125 Z M 2.5 -2.703125 "/></g></g></g><g fill="#ffffff" fill-opacity="1"><g transform="translate(30.777954, 4.859651)"><g><path d="M 2.578125 -0.859375 L 2.765625 -0.859375 C 2.742188 -0.703125 2.6875 -0.550781 2.59375 -0.40625 C 2.507812 -0.257812 2.382812 -0.140625 2.21875 -0.046875 C 2.050781 0.046875 1.835938 0.09375 1.578125 0.09375 C 1.285156 0.09375 1.039062 0.03125 0.84375 -0.09375 C 0.65625 -0.21875 0.515625 -0.390625 0.421875 -0.609375 C 0.328125 -0.828125 0.28125 -1.078125 0.28125 -1.359375 C 0.28125 -1.640625 0.328125 -1.882812 0.421875 -2.09375 C 0.523438 -2.3125 0.671875 -2.484375 0.859375 -2.609375 C 1.054688 -2.734375 1.296875 -2.796875 1.578125 -2.796875 C 1.929688 -2.796875 2.21875 -2.6875 2.4375 -2.46875 C 2.65625 -2.25 2.765625 -1.929688 2.765625 -1.515625 C 2.765625 -1.484375 2.765625 -1.457031 2.765625 -1.4375 C 2.765625 -1.414062 2.765625 -1.394531 2.765625 -1.375 L 0.515625 -1.375 L 0.515625 -1.359375 C 0.515625 -0.929688 0.609375 -0.613281 0.796875 -0.40625 C 0.984375 -0.207031 1.242188 -0.109375 1.578125 -0.109375 C 1.890625 -0.109375 2.125 -0.175781 2.28125 -0.3125 C 2.4375 -0.445312 2.535156 -0.628906 2.578125 -0.859375 Z M 1.578125 -2.59375 C 1.265625 -2.59375 1.015625 -2.503906 0.828125 -2.328125 C 0.648438 -2.160156 0.546875 -1.898438 0.515625 -1.546875 L 2.546875 -1.546875 C 2.535156 -1.804688 2.488281 -2.015625 2.40625 -2.171875 C 2.320312 -2.328125 2.207031 -2.4375 2.0625 -2.5 C 1.914062 -2.5625 1.753906 -2.59375 1.578125 -2.59375 Z M 1.578125 -2.59375 "/></g></g></g><g fill="#ffffff" fill-opacity="1"><g transform="translate(33.701897, 4.859651)"><g><path d="M 1.71875 -2.71875 L 1.84375 -2.71875 L 1.84375 -2.5 L 1.765625 -2.5 C 1.523438 -2.519531 1.332031 -2.488281 1.1875 -2.40625 C 1.039062 -2.320312 0.925781 -2.203125 0.84375 -2.046875 C 0.769531 -1.890625 0.71875 -1.710938 0.6875 -1.515625 C 0.664062 -1.328125 0.65625 -1.128906 0.65625 -0.921875 L 0.65625 0 L 0.4375 0 L 0.4375 -2.703125 L 0.65625 -2.703125 L 0.65625 -1.828125 C 0.726562 -2.128906 0.851562 -2.351562 1.03125 -2.5 C 1.21875 -2.644531 1.445312 -2.71875 1.71875 -2.71875 Z M 1.71875 -2.71875 "/></g></g></g><g fill="#ffffff" fill-opacity="1"><g transform="translate(35.609753, 4.859651)"><g><path d="M 1.796875 -2.796875 C 2.097656 -2.796875 2.328125 -2.710938 2.484375 -2.546875 C 2.640625 -2.390625 2.71875 -2.140625 2.71875 -1.796875 L 2.71875 0 L 2.5 0 L 2.5 -1.75 C 2.5 -2.050781 2.4375 -2.265625 2.3125 -2.390625 C 2.195312 -2.523438 2.007812 -2.59375 1.75 -2.59375 C 1.507812 -2.59375 1.304688 -2.519531 1.140625 -2.375 C 0.972656 -2.226562 0.847656 -2.019531 0.765625 -1.75 C 0.691406 -1.488281 0.65625 -1.175781 0.65625 -0.8125 L 0.65625 0 L 0.4375 0 L 0.4375 -2.703125 L 0.65625 -2.703125 L 0.65625 -1.78125 C 0.75 -2.15625 0.894531 -2.414062 1.09375 -2.5625 C 1.289062 -2.71875 1.523438 -2.796875 1.796875 -2.796875 Z M 1.796875 -2.796875 "/></g></g></g><g fill="#ffffff" fill-opacity="1"><g transform="translate(38.674216, 4.859651)"><g><path d="M 3.640625 -2.796875 C 3.921875 -2.796875 4.132812 -2.71875 4.28125 -2.5625 C 4.4375 -2.414062 4.515625 -2.175781 4.515625 -1.84375 L 4.515625 0 L 4.296875 0 L 4.296875 -1.796875 C 4.296875 -2.097656 4.238281 -2.304688 4.125 -2.421875 C 4.007812 -2.535156 3.832031 -2.59375 3.59375 -2.59375 C 3.34375 -2.59375 3.140625 -2.519531 2.984375 -2.375 C 2.835938 -2.226562 2.734375 -2.019531 2.671875 -1.75 C 2.609375 -1.488281 2.578125 -1.175781 2.578125 -0.8125 L 2.578125 0 L 2.375 0 L 2.375 -1.796875 C 2.375 -2.097656 2.3125 -2.304688 2.1875 -2.421875 C 2.070312 -2.535156 1.894531 -2.59375 1.65625 -2.59375 C 1.40625 -2.59375 1.203125 -2.519531 1.046875 -2.375 C 0.898438 -2.226562 0.796875 -2.019531 0.734375 -1.75 C 0.679688 -1.488281 0.65625 -1.175781 0.65625 -0.8125 L 0.65625 0 L 0.4375 0 L 0.4375 -2.703125 L 0.65625 -2.703125 L 0.65625 -1.859375 C 0.726562 -2.203125 0.851562 -2.441406 1.03125 -2.578125 C 1.207031 -2.722656 1.425781 -2.796875 1.6875 -2.796875 C 1.976562 -2.796875 2.195312 -2.71875 2.34375 -2.5625 C 2.5 -2.414062 2.578125 -2.179688 2.578125 -1.859375 C 2.660156 -2.203125 2.789062 -2.441406 2.96875 -2.578125 C 3.15625 -2.722656 3.378906 -2.796875 3.640625 -2.796875 Z M 3.640625 -2.796875 "/></g></g></g><g fill="#ffffff" fill-opacity="1"><g transform="translate(43.478992, 4.859651)"><g><path d="M 2.578125 -0.859375 L 2.765625 -0.859375 C 2.742188 -0.703125 2.6875 -0.550781 2.59375 -0.40625 C 2.507812 -0.257812 2.382812 -0.140625 2.21875 -0.046875 C 2.050781 0.046875 1.835938 0.09375 1.578125 0.09375 C 1.285156 0.09375 1.039062 0.03125 0.84375 -0.09375 C 0.65625 -0.21875 0.515625 -0.390625 0.421875 -0.609375 C 0.328125 -0.828125 0.28125 -1.078125 0.28125 -1.359375 C 0.28125 -1.640625 0.328125 -1.882812 0.421875 -2.09375 C 0.523438 -2.3125 0.671875 -2.484375 0.859375 -2.609375 C 1.054688 -2.734375 1.296875 -2.796875 1.578125 -2.796875 C 1.929688 -2.796875 2.21875 -2.6875 2.4375 -2.46875 C 2.65625 -2.25 2.765625 -1.929688 2.765625 -1.515625 C 2.765625 -1.484375 2.765625 -1.457031 2.765625 -1.4375 C 2.765625 -1.414062 2.765625 -1.394531 2.765625 -1.375 L 0.515625 -1.375 L 0.515625 -1.359375 C 0.515625 -0.929688 0.609375 -0.613281 0.796875 -0.40625 C 0.984375 -0.207031 1.242188 -0.109375 1.578125 -0.109375 C 1.890625 -0.109375 2.125 -0.175781 2.28125 -0.3125 C 2.4375 -0.445312 2.535156 -0.628906 2.578125 -0.859375 Z M 1.578125 -2.59375 C 1.265625 -2.59375 1.015625 -2.503906 0.828125 -2.328125 C 0.648438 -2.160156 0.546875 -1.898438 0.515625 -1.546875 L 2.546875 -1.546875 C 2.535156 -1.804688 2.488281 -2.015625 2.40625 -2.171875 C 2.320312 -2.328125 2.207031 -2.4375 2.0625 -2.5 C 1.914062 -2.5625 1.753906 -2.59375 1.578125 -2.59375 Z M 1.578125 -2.59375 "/></g></g></g><g fill="#ffffff" fill-opacity="1"><g transform="translate(46.402936, 4.859651)"><g><path d="M 1.796875 -2.796875 C 2.097656 -2.796875 2.328125 -2.710938 2.484375 -2.546875 C 2.640625 -2.390625 2.71875 -2.140625 2.71875 -1.796875 L 2.71875 0 L 2.5 0 L 2.5 -1.75 C 2.5 -2.050781 2.4375 -2.265625 2.3125 -2.390625 C 2.195312 -2.523438 2.007812 -2.59375 1.75 -2.59375 C 1.507812 -2.59375 1.304688 -2.519531 1.140625 -2.375 C 0.972656 -2.226562 0.847656 -2.019531 0.765625 -1.75 C 0.691406 -1.488281 0.65625 -1.175781 0.65625 -0.8125 L 0.65625 0 L 0.4375 0 L 0.4375 -2.703125 L 0.65625 -2.703125 L 0.65625 -1.78125 C 0.75 -2.15625 0.894531 -2.414062 1.09375 -2.5625 C 1.289062 -2.71875 1.523438 -2.796875 1.796875 -2.796875 Z M 1.796875 -2.796875 "/></g></g></g><g fill="#ffffff" fill-opacity="1"><g transform="translate(49.397143, 4.859651)"><g><path d="M 0.984375 0 C 0.859375 0 0.769531 -0.0195312 0.71875 -0.0625 C 0.675781 -0.113281 0.65625 -0.191406 0.65625 -0.296875 L 0.65625 -2.515625 L 0.140625 -2.515625 L 0.140625 -2.671875 L 0.671875 -2.703125 L 0.71875 -3.28125 L 0.875 -3.28125 L 0.875 -2.703125 L 1.828125 -2.703125 L 1.828125 -2.515625 L 0.875 -2.515625 L 0.875 -0.1875 L 1.828125 -0.1875 L 1.828125 0 Z M 0.984375 0 "/></g></g></g><g fill="#ffffff" fill-opacity="1"><g transform="translate(51.407692, 4.859651)"><g/></g></g><g fill="#ffffff" fill-opacity="1"><g transform="translate(52.40216, 4.859651)"><g><path d="M 1.578125 0.09375 C 1.285156 0.09375 1.046875 0.03125 0.859375 -0.09375 C 0.671875 -0.21875 0.523438 -0.390625 0.421875 -0.609375 C 0.328125 -0.828125 0.28125 -1.078125 0.28125 -1.359375 C 0.28125 -1.640625 0.328125 -1.882812 0.421875 -2.09375 C 0.523438 -2.3125 0.671875 -2.484375 0.859375 -2.609375 C 1.046875 -2.734375 1.285156 -2.796875 1.578125 -2.796875 C 1.859375 -2.796875 2.09375 -2.734375 2.28125 -2.609375 C 2.476562 -2.484375 2.625 -2.3125 2.71875 -2.09375 C 2.8125 -1.882812 2.859375 -1.640625 2.859375 -1.359375 C 2.859375 -1.078125 2.8125 -0.828125 2.71875 -0.609375 C 2.625 -0.390625 2.476562 -0.21875 2.28125 -0.09375 C 2.09375 0.03125 1.859375 0.09375 1.578125 0.09375 Z M 0.515625 -1.359375 C 0.515625 -0.929688 0.609375 -0.613281 0.796875 -0.40625 C 0.984375 -0.207031 1.242188 -0.109375 1.578125 -0.109375 C 1.910156 -0.109375 2.171875 -0.207031 2.359375 -0.40625 C 2.546875 -0.613281 2.640625 -0.929688 2.640625 -1.359375 C 2.640625 -1.773438 2.546875 -2.082031 2.359375 -2.28125 C 2.171875 -2.488281 1.910156 -2.59375 1.578125 -2.59375 C 1.242188 -2.59375 0.984375 -2.488281 0.796875 -2.28125 C 0.609375 -2.082031 0.515625 -1.773438 0.515625 -1.359375 Z M 0.515625 -1.359375 "/></g></g></g><g fill="#ffffff" fill-opacity="1"><g transform="translate(55.396367, 4.859651)"><g><path d="M 0.59375 0 L 0.59375 -2.515625 L 0.15625 -2.515625 L 0.15625 -2.671875 L 0.59375 -2.703125 L 0.59375 -3.484375 C 0.59375 -3.585938 0.613281 -3.660156 0.65625 -3.703125 C 0.707031 -3.753906 0.796875 -3.78125 0.921875 -3.78125 L 1.796875 -3.78125 L 1.796875 -3.59375 L 0.8125 -3.59375 L 0.8125 -2.703125 L 1.671875 -2.703125 L 1.671875 -2.515625 L 0.8125 -2.515625 L 0.8125 0 Z M 0.59375 0 "/></g></g></g><g fill="#ffffff" fill-opacity="1"><g transform="translate(57.190725, 4.859651)"><g/></g></g><g fill="#ffffff" fill-opacity="1"><g transform="translate(58.185192, 4.859651)"><g><path d="M 2.9375 -3.40625 L 0.625 -3.40625 L 0.625 -1.953125 L 2.765625 -1.953125 L 2.765625 -1.765625 L 0.625 -1.765625 L 0.625 0 L 0.40625 0 L 0.40625 -3.59375 L 2.9375 -3.59375 Z M 2.9375 -3.40625 "/></g></g></g><g fill="#ffffff" fill-opacity="1"><g transform="translate(61.228042, 4.859651)"><g><path d="M 2.421875 -2.703125 L 2.640625 -2.703125 L 2.640625 0 L 2.421875 0 L 2.421875 -0.921875 C 2.335938 -0.546875 2.195312 -0.28125 2 -0.125 C 1.8125 0.0195312 1.585938 0.09375 1.328125 0.09375 C 1.023438 0.09375 0.789062 0.015625 0.625 -0.140625 C 0.457031 -0.296875 0.375 -0.550781 0.375 -0.90625 L 0.375 -2.703125 L 0.59375 -2.703125 L 0.59375 -0.953125 C 0.59375 -0.734375 0.617188 -0.5625 0.671875 -0.4375 C 0.734375 -0.3125 0.820312 -0.222656 0.9375 -0.171875 C 1.050781 -0.117188 1.191406 -0.09375 1.359375 -0.09375 C 1.597656 -0.09375 1.796875 -0.164062 1.953125 -0.3125 C 2.109375 -0.46875 2.222656 -0.675781 2.296875 -0.9375 C 2.378906 -1.207031 2.421875 -1.523438 2.421875 -1.890625 Z M 2.421875 -2.703125 "/></g></g></g><g fill="#ffffff" fill-opacity="1"><g transform="translate(64.243862, 4.859651)"><g><path d="M 1.796875 -2.796875 C 2.097656 -2.796875 2.328125 -2.710938 2.484375 -2.546875 C 2.640625 -2.390625 2.71875 -2.140625 2.71875 -1.796875 L 2.71875 0 L 2.5 0 L 2.5 -1.75 C 2.5 -2.050781 2.4375 -2.265625 2.3125 -2.390625 C 2.195312 -2.523438 2.007812 -2.59375 1.75 -2.59375 C 1.507812 -2.59375 1.304688 -2.519531 1.140625 -2.375 C 0.972656 -2.226562 0.847656 -2.019531 0.765625 -1.75 C 0.691406 -1.488281 0.65625 -1.175781 0.65625 -0.8125 L 0.65625 0 L 0.4375 0 L 0.4375 -2.703125 L 0.65625 -2.703125 L 0.65625 -1.78125 C 0.75 -2.15625 0.894531 -2.414062 1.09375 -2.5625 C 1.289062 -2.71875 1.523438 -2.796875 1.796875 -2.796875 Z M 1.796875 -2.796875 "/></g></g></g></g></g></svg>