<svg xmlns="http://www.w3.org/2000/svg" xmlns:xlink="http://www.w3.org/1999/xlink" width="170" zoomAndPan="magnify" viewBox="0 0 127.5 37.5" height="50" preserveAspectRatio="xMidYMid meet" version="1.0"><defs><filter x="0%" y="0%" width="100%" height="100%" id="d43a481f02"><feColorMatrix values="0 0 0 0 1 0 0 0 0 1 0 0 0 0 1 0 0 0 1 0" color-interpolation-filters="sRGB"/></filter><g/><clipPath id="c554bc3939"><path d="M 7.902344 0.550781 L 118.921875 0.550781 L 118.921875 36.816406 L 7.902344 36.816406 Z M 7.902344 0.550781 " clip-rule="nonzero"/></clipPath><clipPath id="09a501fced"><path d="M 0.59375 0 L 126.414062 0 L 126.414062 37.007812 L 0.59375 37.007812 Z M 0.59375 0 " clip-rule="nonzero"/></clipPath><clipPath id="2c4c2522b0"><path d="M 0.59375 0 L 126.414062 0 L 126.414062 37.007812 L 0.59375 37.007812 Z M 0.59375 0 " clip-rule="nonzero"/></clipPath><clipPath id="20a9c78616"><path d="M 10.8125 0 L 116.652344 0 L 116.652344 37.007812 L 10.8125 37.007812 Z M 10.8125 0 " clip-rule="nonzero"/></clipPath><linearGradient x1="8.886087" gradientTransform="matrix(0.739707, 0, 0, 0.744543, 21.435966, 8.597856)" y1="-34.794433" x2="105.276967" gradientUnits="userSpaceOnUse" y2="61.598477" id="ab5e9bf4f9"><stop stop-opacity="1" stop-color="rgb(0%, 29.019165%, 67.83905%)" offset="0"/><stop stop-opacity="1" stop-color="rgb(0%, 29.019165%, 67.83905%)" offset="0.25"/><stop stop-opacity="1" stop-color="rgb(0.195312%, 29.051208%, 67.893982%)" offset="0.257813"/><stop stop-opacity="1" stop-color="rgb(1.023865%, 29.190063%, 68.125916%)" offset="0.261719"/><stop stop-opacity="1" stop-color="rgb(1.657104%, 29.296875%, 68.304443%)" offset="0.265625"/><stop stop-opacity="1" stop-color="rgb(2.290344%, 29.402161%, 68.481445%)" offset="0.269531"/><stop stop-opacity="1" stop-color="rgb(2.923584%, 29.508972%, 68.659973%)" offset="0.273438"/><stop stop-opacity="1" stop-color="rgb(3.555298%, 29.614258%, 68.836975%)" offset="0.277344"/><stop stop-opacity="1" stop-color="rgb(4.188538%, 29.721069%, 69.015503%)" offset="0.28125"/><stop stop-opacity="1" stop-color="rgb(4.821777%, 29.826355%, 69.192505%)" offset="0.285156"/><stop stop-opacity="1" stop-color="rgb(5.455017%, 29.933167%, 69.371033%)" offset="0.289062"/><stop stop-opacity="1" stop-color="rgb(6.088257%, 30.038452%, 69.548035%)" offset="0.292969"/><stop stop-opacity="1" stop-color="rgb(6.721497%, 30.145264%, 69.726562%)" offset="0.296875"/><stop stop-opacity="1" stop-color="rgb(7.354736%, 30.250549%, 69.903564%)" offset="0.300781"/><stop stop-opacity="1" stop-color="rgb(7.987976%, 30.357361%, 70.082092%)" offset="0.304688"/><stop stop-opacity="1" stop-color="rgb(8.61969%, 30.462646%, 70.26062%)" offset="0.308594"/><stop stop-opacity="1" stop-color="rgb(9.25293%, 30.569458%, 70.439148%)" offset="0.3125"/><stop stop-opacity="1" stop-color="rgb(9.886169%, 30.674744%, 70.61615%)" offset="0.316406"/><stop stop-opacity="1" stop-color="rgb(10.519409%, 30.780029%, 70.794678%)" offset="0.320313"/><stop stop-opacity="1" stop-color="rgb(11.152649%, 30.885315%, 70.97168%)" offset="0.324219"/><stop stop-opacity="1" stop-color="rgb(11.785889%, 30.992126%, 71.150208%)" offset="0.328125"/><stop stop-opacity="1" stop-color="rgb(12.419128%, 31.097412%, 71.327209%)" offset="0.332031"/><stop stop-opacity="1" stop-color="rgb(13.052368%, 31.204224%, 71.505737%)" offset="0.335938"/><stop stop-opacity="1" stop-color="rgb(13.684082%, 31.309509%, 71.682739%)" offset="0.339844"/><stop stop-opacity="1" stop-color="rgb(14.317322%, 31.416321%, 71.861267%)" offset="0.34375"/><stop stop-opacity="1" stop-color="rgb(14.950562%, 31.521606%, 72.038269%)" offset="0.347656"/><stop stop-opacity="1" stop-color="rgb(15.583801%, 31.628418%, 72.216797%)" offset="0.351563"/><stop stop-opacity="1" stop-color="rgb(16.217041%, 31.733704%, 72.393799%)" offset="0.355469"/><stop stop-opacity="1" stop-color="rgb(16.850281%, 31.840515%, 72.572327%)" offset="0.359375"/><stop stop-opacity="1" stop-color="rgb(17.481995%, 31.945801%, 72.749329%)" offset="0.363281"/><stop stop-opacity="1" stop-color="rgb(18.115234%, 32.052612%, 72.927856%)" offset="0.367188"/><stop stop-opacity="1" stop-color="rgb(18.748474%, 32.157898%, 73.104858%)" offset="0.371094"/><stop stop-opacity="1" stop-color="rgb(19.381714%, 32.264709%, 73.283386%)" offset="0.375"/><stop stop-opacity="1" stop-color="rgb(20.014954%, 32.369995%, 73.460388%)" offset="0.378906"/><stop stop-opacity="1" stop-color="rgb(20.648193%, 32.476807%, 73.638916%)" offset="0.382812"/><stop stop-opacity="1" stop-color="rgb(21.281433%, 32.582092%, 73.815918%)" offset="0.386719"/><stop stop-opacity="1" stop-color="rgb(21.914673%, 32.688904%, 73.994446%)" offset="0.390625"/><stop stop-opacity="1" stop-color="rgb(22.546387%, 32.794189%, 74.171448%)" offset="0.394531"/><stop stop-opacity="1" stop-color="rgb(23.179626%, 32.901001%, 74.349976%)" offset="0.398438"/><stop stop-opacity="1" stop-color="rgb(23.812866%, 33.006287%, 74.526978%)" offset="0.402344"/><stop stop-opacity="1" stop-color="rgb(24.446106%, 33.113098%, 74.705505%)" offset="0.40625"/><stop stop-opacity="1" stop-color="rgb(25.079346%, 33.218384%, 74.882507%)" offset="0.410156"/><stop stop-opacity="1" stop-color="rgb(25.712585%, 33.325195%, 75.061035%)" offset="0.414063"/><stop stop-opacity="1" stop-color="rgb(26.345825%, 33.430481%, 75.238037%)" offset="0.417969"/><stop stop-opacity="1" stop-color="rgb(26.979065%, 33.537292%, 75.416565%)" offset="0.421875"/><stop stop-opacity="1" stop-color="rgb(27.610779%, 33.642578%, 75.593567%)" offset="0.425781"/><stop stop-opacity="1" stop-color="rgb(28.244019%, 33.74939%, 75.772095%)" offset="0.429688"/><stop stop-opacity="1" stop-color="rgb(28.877258%, 33.854675%, 75.949097%)" offset="0.433594"/><stop stop-opacity="1" stop-color="rgb(29.510498%, 33.959961%, 76.127625%)" offset="0.4375"/><stop stop-opacity="1" stop-color="rgb(30.143738%, 34.065247%, 76.304626%)" offset="0.441406"/><stop stop-opacity="1" stop-color="rgb(30.776978%, 34.172058%, 76.483154%)" offset="0.445312"/><stop stop-opacity="1" stop-color="rgb(31.410217%, 34.277344%, 76.660156%)" offset="0.449219"/><stop stop-opacity="1" stop-color="rgb(32.043457%, 34.384155%, 76.838684%)" offset="0.453125"/><stop stop-opacity="1" stop-color="rgb(32.675171%, 34.489441%, 77.015686%)" offset="0.457031"/><stop stop-opacity="1" stop-color="rgb(33.308411%, 34.596252%, 77.194214%)" offset="0.460938"/><stop stop-opacity="1" stop-color="rgb(33.94165%, 34.701538%, 77.372742%)" offset="0.464844"/><stop stop-opacity="1" stop-color="rgb(34.57489%, 34.80835%, 77.55127%)" offset="0.46875"/><stop stop-opacity="1" stop-color="rgb(35.20813%, 34.913635%, 77.728271%)" offset="0.472656"/><stop stop-opacity="1" stop-color="rgb(35.84137%, 35.020447%, 77.906799%)" offset="0.476562"/><stop stop-opacity="1" stop-color="rgb(36.474609%, 35.125732%, 78.083801%)" offset="0.480469"/><stop stop-opacity="1" stop-color="rgb(37.107849%, 35.232544%, 78.262329%)" offset="0.484375"/><stop stop-opacity="1" stop-color="rgb(37.739563%, 35.33783%, 78.439331%)" offset="0.488281"/><stop stop-opacity="1" stop-color="rgb(38.372803%, 35.444641%, 78.617859%)" offset="0.492187"/><stop stop-opacity="1" stop-color="rgb(39.006042%, 35.549927%, 78.794861%)" offset="0.496094"/><stop stop-opacity="1" stop-color="rgb(39.639282%, 35.656738%, 78.973389%)" offset="0.5"/><stop stop-opacity="1" stop-color="rgb(40.272522%, 35.762024%, 79.150391%)" offset="0.503906"/><stop stop-opacity="1" stop-color="rgb(40.905762%, 35.868835%, 79.328918%)" offset="0.507812"/><stop stop-opacity="1" stop-color="rgb(41.539001%, 35.974121%, 79.50592%)" offset="0.511719"/><stop stop-opacity="1" stop-color="rgb(42.172241%, 36.080933%, 79.684448%)" offset="0.515625"/><stop stop-opacity="1" stop-color="rgb(42.803955%, 36.186218%, 79.86145%)" offset="0.519531"/><stop stop-opacity="1" stop-color="rgb(43.437195%, 36.29303%, 80.039978%)" offset="0.523438"/><stop stop-opacity="1" stop-color="rgb(44.070435%, 36.398315%, 80.21698%)" offset="0.527344"/><stop stop-opacity="1" stop-color="rgb(44.703674%, 36.505127%, 80.395508%)" offset="0.53125"/><stop stop-opacity="1" stop-color="rgb(45.336914%, 36.610413%, 80.57251%)" offset="0.535156"/><stop stop-opacity="1" stop-color="rgb(45.970154%, 36.717224%, 80.751038%)" offset="0.539062"/><stop stop-opacity="1" stop-color="rgb(46.603394%, 36.82251%, 80.92804%)" offset="0.542969"/><stop stop-opacity="1" stop-color="rgb(47.236633%, 36.929321%, 81.106567%)" offset="0.546875"/><stop stop-opacity="1" stop-color="rgb(47.868347%, 37.034607%, 81.283569%)" offset="0.550781"/><stop stop-opacity="1" stop-color="rgb(48.501587%, 37.139893%, 81.462097%)" offset="0.554688"/><stop stop-opacity="1" stop-color="rgb(49.134827%, 37.245178%, 81.639099%)" offset="0.558594"/><stop stop-opacity="1" stop-color="rgb(49.768066%, 37.35199%, 81.817627%)" offset="0.5625"/><stop stop-opacity="1" stop-color="rgb(50.401306%, 37.457275%, 81.994629%)" offset="0.566406"/><stop stop-opacity="1" stop-color="rgb(51.034546%, 37.564087%, 82.173157%)" offset="0.570313"/><stop stop-opacity="1" stop-color="rgb(51.667786%, 37.669373%, 82.350159%)" offset="0.574219"/><stop stop-opacity="1" stop-color="rgb(52.301025%, 37.776184%, 82.528687%)" offset="0.578125"/><stop stop-opacity="1" stop-color="rgb(52.932739%, 37.88147%, 82.705688%)" offset="0.582031"/><stop stop-opacity="1" stop-color="rgb(53.565979%, 37.988281%, 82.884216%)" offset="0.585938"/><stop stop-opacity="1" stop-color="rgb(54.199219%, 38.093567%, 83.061218%)" offset="0.589844"/><stop stop-opacity="1" stop-color="rgb(54.832458%, 38.200378%, 83.239746%)" offset="0.59375"/><stop stop-opacity="1" stop-color="rgb(55.465698%, 38.305664%, 83.416748%)" offset="0.597656"/><stop stop-opacity="1" stop-color="rgb(56.098938%, 38.412476%, 83.595276%)" offset="0.601562"/><stop stop-opacity="1" stop-color="rgb(56.732178%, 38.517761%, 83.772278%)" offset="0.605469"/><stop stop-opacity="1" stop-color="rgb(57.365417%, 38.624573%, 83.950806%)" offset="0.609375"/><stop stop-opacity="1" stop-color="rgb(57.997131%, 38.729858%, 84.127808%)" offset="0.613281"/><stop stop-opacity="1" stop-color="rgb(58.630371%, 38.83667%, 84.306335%)" offset="0.617188"/><stop stop-opacity="1" stop-color="rgb(59.263611%, 38.941956%, 84.484863%)" offset="0.621094"/><stop stop-opacity="1" stop-color="rgb(59.896851%, 39.048767%, 84.663391%)" offset="0.625"/><stop stop-opacity="1" stop-color="rgb(60.53009%, 39.154053%, 84.840393%)" offset="0.628906"/><stop stop-opacity="1" stop-color="rgb(61.16333%, 39.260864%, 85.018921%)" offset="0.632812"/><stop stop-opacity="1" stop-color="rgb(61.79657%, 39.36615%, 85.195923%)" offset="0.636719"/><stop stop-opacity="1" stop-color="rgb(62.42981%, 39.472961%, 85.374451%)" offset="0.640625"/><stop stop-opacity="1" stop-color="rgb(63.061523%, 39.578247%, 85.551453%)" offset="0.644531"/><stop stop-opacity="1" stop-color="rgb(63.694763%, 39.685059%, 85.72998%)" offset="0.648438"/><stop stop-opacity="1" stop-color="rgb(64.328003%, 39.790344%, 85.906982%)" offset="0.652344"/><stop stop-opacity="1" stop-color="rgb(64.961243%, 39.897156%, 86.08551%)" offset="0.65625"/><stop stop-opacity="1" stop-color="rgb(65.594482%, 40.002441%, 86.262512%)" offset="0.660156"/><stop stop-opacity="1" stop-color="rgb(66.227722%, 40.109253%, 86.44104%)" offset="0.664063"/><stop stop-opacity="1" stop-color="rgb(66.860962%, 40.214539%, 86.618042%)" offset="0.667969"/><stop stop-opacity="1" stop-color="rgb(67.494202%, 40.319824%, 86.79657%)" offset="0.671875"/><stop stop-opacity="1" stop-color="rgb(68.125916%, 40.42511%, 86.973572%)" offset="0.675781"/><stop stop-opacity="1" stop-color="rgb(68.759155%, 40.531921%, 87.1521%)" offset="0.679688"/><stop stop-opacity="1" stop-color="rgb(69.392395%, 40.637207%, 87.329102%)" offset="0.683594"/><stop stop-opacity="1" stop-color="rgb(70.025635%, 40.744019%, 87.507629%)" offset="0.6875"/><stop stop-opacity="1" stop-color="rgb(70.658875%, 40.849304%, 87.684631%)" offset="0.691406"/><stop stop-opacity="1" stop-color="rgb(71.292114%, 40.956116%, 87.863159%)" offset="0.695312"/><stop stop-opacity="1" stop-color="rgb(71.925354%, 41.061401%, 88.040161%)" offset="0.699219"/><stop stop-opacity="1" stop-color="rgb(72.558594%, 41.168213%, 88.218689%)" offset="0.703125"/><stop stop-opacity="1" stop-color="rgb(73.190308%, 41.273499%, 88.395691%)" offset="0.707031"/><stop stop-opacity="1" stop-color="rgb(73.823547%, 41.38031%, 88.574219%)" offset="0.710938"/><stop stop-opacity="1" stop-color="rgb(74.456787%, 41.485596%, 88.751221%)" offset="0.714844"/><stop stop-opacity="1" stop-color="rgb(75.090027%, 41.592407%, 88.929749%)" offset="0.71875"/><stop stop-opacity="1" stop-color="rgb(75.723267%, 41.697693%, 89.10675%)" offset="0.722656"/><stop stop-opacity="1" stop-color="rgb(76.356506%, 41.804504%, 89.285278%)" offset="0.726562"/><stop stop-opacity="1" stop-color="rgb(76.98822%, 41.90979%, 89.46228%)" offset="0.730469"/><stop stop-opacity="1" stop-color="rgb(77.62146%, 42.016602%, 89.640808%)" offset="0.734375"/><stop stop-opacity="1" stop-color="rgb(78.2547%, 42.121887%, 89.81781%)" offset="0.738281"/><stop stop-opacity="1" stop-color="rgb(78.887939%, 42.228699%, 89.996338%)" offset="0.742188"/><stop stop-opacity="1" stop-color="rgb(79.248047%, 42.288208%, 90.097046%)" offset="0.746094"/><stop stop-opacity="1" stop-color="rgb(79.60968%, 42.349243%, 90.19928%)" offset="0.75"/><stop stop-opacity="1" stop-color="rgb(79.60968%, 42.349243%, 90.19928%)" offset="1"/></linearGradient><clipPath id="0099c4fbbd"><rect x="0" width="127" y="0" height="38"/></clipPath><clipPath id="927c5936af"><path d="M 0.59375 0 L 126.414062 0 L 126.414062 37.007812 L 0.59375 37.007812 Z M 0.59375 0 " clip-rule="nonzero"/></clipPath><clipPath id="305721a0b9"><rect x="0" width="127" y="0" height="38"/></clipPath><clipPath id="2399242652"><rect x="0" width="127" y="0" height="38"/></clipPath><mask id="d72b62bcbd"><g filter="url(#d43a481f02)"><g transform="matrix(1, 0, 0, 1, 0.000000000000000111, -0.000000000000001478)"><g clip-path="url(#2399242652)"><g clip-path="url(#927c5936af)"><g transform="matrix(1, 0, 0, 1, 0.000000000000000111, -0.000000000000001478)"><g clip-path="url(#305721a0b9)"><g fill="#000000" fill-opacity="1"><g transform="translate(39.180464, 23.46267)"><g><path d="M 1.46875 0 L 1.46875 -10.375 L 4.34375 -10.375 C 5.375 -10.375 6.25 -10.21875 6.96875 -9.90625 C 7.6875 -9.601562 8.269531 -9.191406 8.71875 -8.671875 C 9.164062 -8.148438 9.488281 -7.570312 9.6875 -6.9375 C 9.894531 -6.3125 10 -5.679688 10 -5.046875 C 10 -4.273438 9.863281 -3.578125 9.59375 -2.953125 C 9.320312 -2.328125 8.945312 -1.796875 8.46875 -1.359375 C 7.988281 -0.921875 7.4375 -0.582031 6.8125 -0.34375 C 6.1875 -0.113281 5.535156 0 4.859375 0 Z M 2.96875 -1.453125 L 4.5625 -1.453125 C 5.320312 -1.453125 5.988281 -1.59375 6.5625 -1.875 C 7.144531 -2.15625 7.601562 -2.570312 7.9375 -3.125 C 8.28125 -3.6875 8.453125 -4.363281 8.453125 -5.15625 C 8.453125 -5.800781 8.34375 -6.359375 8.125 -6.828125 C 7.914062 -7.304688 7.632812 -7.695312 7.28125 -8 C 6.925781 -8.3125 6.53125 -8.546875 6.09375 -8.703125 C 5.65625 -8.859375 5.207031 -8.9375 4.75 -8.9375 L 2.96875 -8.9375 Z M 2.96875 -1.453125 "/></g></g></g><g fill="#000000" fill-opacity="1"><g transform="translate(49.995311, 23.46267)"><g><path d="M 1.125 -5.984375 L 2.578125 -5.984375 L 2.578125 0 L 1.125 0 Z M 1.0625 -8.125 C 1.0625 -8.351562 1.148438 -8.539062 1.328125 -8.6875 C 1.503906 -8.84375 1.695312 -8.921875 1.90625 -8.921875 C 2.113281 -8.921875 2.300781 -8.84375 2.46875 -8.6875 C 2.644531 -8.539062 2.734375 -8.351562 2.734375 -8.125 C 2.734375 -7.894531 2.644531 -7.707031 2.46875 -7.5625 C 2.300781 -7.414062 2.113281 -7.34375 1.90625 -7.34375 C 1.695312 -7.34375 1.503906 -7.414062 1.328125 -7.5625 C 1.148438 -7.707031 1.0625 -7.894531 1.0625 -8.125 Z M 1.0625 -8.125 "/></g></g></g><g fill="#000000" fill-opacity="1"><g transform="translate(53.700396, 23.46267)"><g><path d="M 2.859375 0.125 C 2.421875 0.125 2 0.046875 1.59375 -0.109375 C 1.195312 -0.265625 0.863281 -0.488281 0.59375 -0.78125 L 1.203125 -1.625 C 1.453125 -1.382812 1.710938 -1.203125 1.984375 -1.078125 C 2.253906 -0.953125 2.507812 -0.890625 2.75 -0.890625 C 3.019531 -0.890625 3.257812 -0.941406 3.46875 -1.046875 C 3.6875 -1.160156 3.796875 -1.347656 3.796875 -1.609375 C 3.796875 -1.816406 3.722656 -1.976562 3.578125 -2.09375 C 3.441406 -2.207031 3.269531 -2.300781 3.0625 -2.375 C 2.851562 -2.445312 2.628906 -2.519531 2.390625 -2.59375 C 1.890625 -2.75 1.507812 -2.976562 1.25 -3.28125 C 0.988281 -3.582031 0.859375 -3.9375 0.859375 -4.34375 C 0.859375 -4.664062 0.9375 -4.96875 1.09375 -5.25 C 1.25 -5.53125 1.488281 -5.757812 1.8125 -5.9375 C 2.132812 -6.113281 2.535156 -6.203125 3.015625 -6.203125 C 3.441406 -6.203125 3.820312 -6.148438 4.15625 -6.046875 C 4.488281 -5.941406 4.796875 -5.769531 5.078125 -5.53125 L 4.515625 -4.671875 C 4.347656 -4.835938 4.144531 -4.96875 3.90625 -5.0625 C 3.675781 -5.15625 3.46875 -5.203125 3.28125 -5.203125 C 3.019531 -5.203125 2.789062 -5.144531 2.59375 -5.03125 C 2.40625 -4.914062 2.3125 -4.753906 2.3125 -4.546875 C 2.3125 -4.347656 2.378906 -4.1875 2.515625 -4.0625 C 2.648438 -3.945312 2.820312 -3.851562 3.03125 -3.78125 C 3.25 -3.707031 3.46875 -3.632812 3.6875 -3.5625 C 4.125 -3.414062 4.488281 -3.21875 4.78125 -2.96875 C 5.070312 -2.726562 5.21875 -2.367188 5.21875 -1.890625 C 5.21875 -1.523438 5.128906 -1.1875 4.953125 -0.875 C 4.785156 -0.570312 4.523438 -0.328125 4.171875 -0.140625 C 3.828125 0.0351562 3.390625 0.125 2.859375 0.125 Z M 2.859375 0.125 "/></g></g></g><g fill="#000000" fill-opacity="1"><g transform="translate(59.622815, 23.46267)"><g><path d="M 6.03125 -0.5625 C 5.757812 -0.34375 5.4375 -0.171875 5.0625 -0.046875 C 4.6875 0.078125 4.304688 0.140625 3.921875 0.140625 C 3.273438 0.140625 2.703125 0.015625 2.203125 -0.234375 C 1.703125 -0.492188 1.3125 -0.859375 1.03125 -1.328125 C 0.75 -1.796875 0.609375 -2.347656 0.609375 -2.984375 C 0.609375 -3.640625 0.753906 -4.203125 1.046875 -4.671875 C 1.347656 -5.140625 1.738281 -5.5 2.21875 -5.75 C 2.707031 -6 3.226562 -6.125 3.78125 -6.125 C 4.269531 -6.125 4.703125 -6.054688 5.078125 -5.921875 C 5.460938 -5.785156 5.789062 -5.601562 6.0625 -5.375 L 5.359375 -4.4375 C 5.191406 -4.570312 4.984375 -4.691406 4.734375 -4.796875 C 4.484375 -4.898438 4.207031 -4.953125 3.90625 -4.953125 C 3.5625 -4.953125 3.25 -4.863281 2.96875 -4.6875 C 2.6875 -4.519531 2.460938 -4.285156 2.296875 -3.984375 C 2.140625 -3.691406 2.0625 -3.359375 2.0625 -2.984375 C 2.0625 -2.628906 2.144531 -2.300781 2.3125 -2 C 2.476562 -1.707031 2.710938 -1.472656 3.015625 -1.296875 C 3.316406 -1.128906 3.65625 -1.046875 4.03125 -1.046875 C 4.28125 -1.046875 4.507812 -1.082031 4.71875 -1.15625 C 4.9375 -1.238281 5.128906 -1.335938 5.296875 -1.453125 Z M 6.03125 -0.5625 "/></g></g></g><g fill="#000000" fill-opacity="1"><g transform="translate(66.203273, 23.46267)"><g><path d="M 0.609375 -3.046875 C 0.609375 -3.648438 0.75 -4.191406 1.03125 -4.671875 C 1.320312 -5.148438 1.71875 -5.523438 2.21875 -5.796875 C 2.726562 -6.078125 3.3125 -6.21875 3.96875 -6.21875 C 4.625 -6.21875 5.195312 -6.078125 5.6875 -5.796875 C 6.175781 -5.523438 6.554688 -5.148438 6.828125 -4.671875 C 7.097656 -4.191406 7.234375 -3.648438 7.234375 -3.046875 C 7.234375 -2.441406 7.09375 -1.898438 6.8125 -1.421875 C 6.539062 -0.941406 6.160156 -0.5625 5.671875 -0.28125 C 5.179688 0 4.601562 0.140625 3.9375 0.140625 C 3.300781 0.140625 2.734375 0.015625 2.234375 -0.234375 C 1.734375 -0.492188 1.335938 -0.863281 1.046875 -1.34375 C 0.753906 -1.832031 0.609375 -2.398438 0.609375 -3.046875 Z M 2.078125 -3.03125 C 2.078125 -2.65625 2.15625 -2.316406 2.3125 -2.015625 C 2.476562 -1.722656 2.703125 -1.488281 2.984375 -1.3125 C 3.265625 -1.132812 3.578125 -1.046875 3.921875 -1.046875 C 4.460938 -1.046875 4.90625 -1.234375 5.25 -1.609375 C 5.601562 -1.992188 5.78125 -2.46875 5.78125 -3.03125 C 5.78125 -3.59375 5.601562 -4.066406 5.25 -4.453125 C 4.90625 -4.835938 4.460938 -5.03125 3.921875 -5.03125 C 3.566406 -5.03125 3.25 -4.941406 2.96875 -4.765625 C 2.695312 -4.585938 2.476562 -4.34375 2.3125 -4.03125 C 2.15625 -3.726562 2.078125 -3.394531 2.078125 -3.03125 Z M 2.078125 -3.03125 "/></g></g></g><g fill="#000000" fill-opacity="1"><g transform="translate(74.056905, 23.46267)"><g><path d="M 2.421875 -5.984375 L 2.5625 -4.265625 L 2.5 -4.5 C 2.664062 -4.851562 2.894531 -5.160156 3.1875 -5.421875 C 3.476562 -5.679688 3.78125 -5.878906 4.09375 -6.015625 C 4.414062 -6.148438 4.6875 -6.21875 4.90625 -6.21875 L 4.84375 -4.796875 C 4.394531 -4.828125 4 -4.738281 3.65625 -4.53125 C 3.320312 -4.332031 3.054688 -4.066406 2.859375 -3.734375 C 2.671875 -3.398438 2.578125 -3.039062 2.578125 -2.65625 L 2.578125 0 L 1.125 0 L 1.125 -5.984375 Z M 2.421875 -5.984375 "/></g></g></g><g fill="#000000" fill-opacity="1"><g transform="translate(79.249594, 23.46267)"><g><path d="M 3.578125 0.140625 C 3.015625 0.140625 2.507812 0.0078125 2.0625 -0.25 C 1.613281 -0.507812 1.257812 -0.882812 1 -1.375 C 0.738281 -1.863281 0.609375 -2.429688 0.609375 -3.078125 C 0.609375 -3.742188 0.75 -4.3125 1.03125 -4.78125 C 1.3125 -5.25 1.6875 -5.601562 2.15625 -5.84375 C 2.625 -6.09375 3.15625 -6.21875 3.75 -6.21875 C 4.207031 -6.21875 4.644531 -6.125 5.0625 -5.9375 C 5.476562 -5.757812 5.804688 -5.503906 6.046875 -5.171875 L 5.984375 -4.671875 L 5.984375 -11.125 L 7.421875 -11.125 L 7.421875 0 L 5.96875 0 L 5.96875 -1.4375 L 6.125 -1.046875 C 5.84375 -0.703125 5.484375 -0.414062 5.046875 -0.1875 C 4.609375 0.03125 4.117188 0.140625 3.578125 0.140625 Z M 4.015625 -1.078125 C 4.523438 -1.078125 4.945312 -1.207031 5.28125 -1.46875 C 5.625 -1.726562 5.851562 -2.078125 5.96875 -2.515625 L 5.96875 -3.703125 C 5.863281 -4.109375 5.628906 -4.4375 5.265625 -4.6875 C 4.910156 -4.945312 4.492188 -5.078125 4.015625 -5.078125 C 3.671875 -5.078125 3.351562 -4.992188 3.0625 -4.828125 C 2.769531 -4.660156 2.535156 -4.425781 2.359375 -4.125 C 2.179688 -3.820312 2.09375 -3.476562 2.09375 -3.09375 C 2.09375 -2.71875 2.179688 -2.378906 2.359375 -2.078125 C 2.535156 -1.773438 2.769531 -1.53125 3.0625 -1.34375 C 3.351562 -1.164062 3.671875 -1.078125 4.015625 -1.078125 Z M 4.015625 -1.078125 "/></g></g></g></g></g></g></g></g></g></mask><clipPath id="c554947365"><path d="M 10.8125 0 L 116.652344 0 L 116.652344 37.007812 L 10.8125 37.007812 Z M 10.8125 0 " clip-rule="nonzero"/></clipPath><clipPath id="2349ed3b2c"><rect x="0" width="127" y="0" height="38"/></clipPath><clipPath id="0c15c8906f"><rect x="0" width="127" y="0" height="38"/></clipPath></defs><g clip-path="url(#c554bc3939)"><path fill="#ff9999" d="M 109.375 12.859375 C 111.378906 12.179688 112.847656 12.722656 113.632812 14.683594 C 113.769531 15.027344 113.738281 15.425781 113.882812 15.753906 C 114.191406 16.457031 115.742188 17.414062 116.457031 17.722656 L 119.046875 18.574219 C 117.570312 18.726562 114.554688 19.867188 113.886719 21.257812 C 113.625 21.800781 113.679688 22.421875 113.308594 23.023438 C 112.441406 24.421875 110.851562 24.816406 109.375 24.148438 C 109.292969 24.234375 109.90625 26.054688 109.945312 26.433594 C 110.179688 28.753906 108.523438 30.582031 106.230469 30.746094 L 68.570312 30.753906 C 65.671875 31.324219 64.332031 33.910156 63.425781 36.457031 C 62.828125 33.828125 61.074219 31.316406 58.285156 30.753906 L 20.769531 30.75 C 17.09375 30.472656 16.308594 27.152344 17.625 24.148438 C 16.214844 24.738281 14.453125 24.476562 13.636719 23.078125 C 13.285156 22.476562 13.292969 21.742188 12.996094 21.226562 C 12.183594 19.800781 9.503906 18.828125 7.953125 18.574219 L 10.542969 17.722656 C 11.367188 17.367188 12.769531 16.441406 13.113281 15.601562 C 13.324219 15.082031 13.28125 14.636719 13.605469 14.042969 C 14.371094 12.628906 16.242188 12.125 17.625 13.007812 C 16.570312 10.253906 16.695312 7.234375 19.964844 6.332031 L 58.132812 6.25 C 60.964844 5.820312 62.828125 3.1875 63.355469 0.550781 C 63.5625 0.566406 63.585938 0.765625 63.652344 0.910156 C 64.78125 3.371094 65.566406 5.738281 68.71875 6.25 L 106.230469 6.257812 C 108.53125 6.363281 110.183594 8.257812 109.945312 10.574219 C 109.90625 10.953125 109.292969 12.773438 109.375 12.859375 M 63.644531 3.042969 C 63.574219 2.976562 63.441406 3.023438 63.339844 3.132812 C 63.046875 3.457031 62.707031 4.261719 62.324219 4.722656 C 61.242188 6.019531 59.84375 6.933594 58.132812 7.125 L 20.484375 7.144531 C 16.777344 7.5625 17.355469 12.945312 20.453125 12.242188 C 21.25 12.0625 21.996094 11.03125 21.214844 10.371094 C 20.835938 10.3125 21.054688 10.792969 20.917969 11.097656 C 20.585938 11.863281 19.417969 11.585938 18.9375 11.035156 C 17.8125 9.757812 19.175781 7.988281 20.628906 7.875 L 58.425781 7.859375 C 59.359375 7.660156 60.28125 7.375 61.085938 6.855469 C 62.054688 6.222656 62.699219 5.238281 63.570312 4.503906 C 64.632812 6.289062 66.492188 7.550781 68.558594 7.875 L 106.503906 7.890625 C 108.910156 8.214844 108.921875 11.695312 106.8125 11.546875 C 106.09375 11.5 105.820312 11.058594 105.855469 10.367188 C 104.90625 10.925781 105.550781 12.003906 106.433594 12.210938 C 107.492188 12.460938 108.851562 11.609375 109.046875 10.554688 C 109.351562 8.902344 108.324219 7.609375 106.773438 7.179688 L 68.851562 7.140625 C 66.546875 6.9375 64.421875 5.1875 63.644531 3.039062 M 19.382812 13.742188 C 21.554688 14.132812 23.578125 12.496094 22.976562 10.21875 C 22.632812 8.90625 20.695312 8.21875 19.742188 9.332031 C 19.257812 9.898438 19.230469 10.78125 20.117188 10.808594 C 19.734375 9.242188 21.875 9.144531 22.25 10.359375 C 22.730469 11.9375 21.433594 13.128906 19.921875 13.097656 C 19.359375 13.085938 18.894531 12.753906 18.355469 12.714844 C 18.972656 14.121094 19.058594 16.707031 17.292969 17.292969 C 14.769531 18.125 13.957031 14.808594 15.710938 14.246094 C 17.609375 13.632812 17.542969 16.511719 16.347656 15.980469 C 15.605469 15.648438 16.496094 15.238281 16.304688 15.058594 C 15.945312 14.71875 14.929688 15.910156 16.125 16.492188 C 17.84375 17.332031 18.929688 13.808594 16.515625 13.457031 C 14.011719 13.089844 14.414062 15.539062 13.300781 16.820312 C 12.691406 17.523438 11.78125 17.972656 11.03125 18.503906 C 11.851562 19.144531 13.417969 19.992188 13.847656 20.960938 C 14.261719 21.886719 14.089844 23.226562 15.53125 23.527344 C 18.320312 24.105469 18.605469 20.664062 16.78125 20.359375 C 15.230469 20.101562 15.359375 22.507812 16.304688 22.023438 C 16.667969 21.835938 15.96875 21.597656 16.019531 21.304688 C 16.152344 20.578125 17.53125 20.996094 17.238281 22.0625 C 16.855469 23.472656 14.40625 22.925781 14.753906 21.0625 C 15.109375 19.160156 17.867188 19.101562 18.574219 20.921875 C 19.035156 22.109375 18.625 23.105469 18.503906 24.292969 C 20.152344 23.386719 22.730469 24.179688 22.28125 26.382812 C 21.988281 27.820312 19.667969 27.78125 20.117188 26.199219 C 19.265625 26.207031 19.289062 27.152344 19.742188 27.671875 C 20.753906 28.84375 22.746094 27.960938 23.015625 26.53125 C 23.4375 24.257812 21.476562 22.953125 19.382812 23.265625 C 20.351562 20.335938 17.144531 17.257812 14.609375 19.746094 C 14.414062 19.9375 14.449219 20.296875 14.183594 20.1875 C 14.066406 20.140625 12.859375 18.582031 12.347656 18.503906 C 12.949219 18.136719 13.492188 17.703125 13.964844 17.179688 C 14.070312 17.0625 14.09375 16.832031 14.109375 16.820312 C 14.386719 16.605469 14.425781 17.050781 14.542969 17.179688 C 16.9375 19.832031 20.378906 16.703125 19.382812 13.742188 M 106.882812 10.664062 C 107.273438 11.035156 107.707031 10.136719 107.304688 9.433594 C 106.644531 8.269531 104.789062 8.792969 104.175781 9.789062 C 102.871094 11.917969 105.253906 14.242188 107.46875 13.738281 C 107.503906 14.375 107.398438 15.058594 107.503906 15.683594 C 107.9375 18.25 111.285156 19.128906 112.671875 16.820312 C 112.957031 16.738281 112.898438 17.042969 113.101562 17.261719 C 113.535156 17.71875 114.019531 18.105469 114.5 18.503906 L 112.671875 20.1875 C 110.195312 17.0625 106.78125 19.894531 107.46875 23.269531 C 105.933594 22.992188 104.1875 23.851562 103.867188 25.457031 C 103.535156 27.113281 105.09375 28.800781 106.734375 28.03125 C 107.804688 27.527344 107.5625 26.097656 106.957031 26.199219 C 106.578125 26.261719 107.136719 26.863281 106.585938 27.292969 C 105.421875 28.199219 103.605469 26.113281 105.191406 24.582031 C 106.121094 23.683594 107.394531 23.816406 108.492188 24.292969 C 107.917969 22.609375 107.957031 19.589844 110.328125 19.589844 C 113.011719 19.589844 112.5 23.433594 110.390625 22.761719 C 109.425781 22.453125 109.523438 21 110.332031 20.917969 C 111.210938 20.824219 110.589844 21.847656 110.695312 21.945312 C 111.339844 22.558594 111.796875 20.058594 110.101562 20.390625 C 108.359375 20.738281 108.644531 24.082031 111.320312 23.527344 C 112.730469 23.234375 112.621094 22.050781 113.007812 21.109375 C 113.445312 20.046875 115.054688 18.96875 116.113281 18.574219 L 114.515625 17.613281 C 113.234375 16.636719 113.320312 16.238281 112.820312 14.914062 C 112.242188 13.386719 110.210938 12.761719 109.253906 14.277344 C 108.613281 15.292969 109.335938 16.765625 110.4375 16.644531 C 111.90625 16.484375 111.09375 14.5625 110.546875 15.058594 C 110.363281 15.230469 111.128906 15.5625 110.628906 15.949219 C 109.78125 16.601562 109.125 14.578125 110.359375 14.210938 C 112.433594 13.59375 112.957031 17.167969 110.621094 17.40625 C 107.992188 17.679688 107.867188 14.546875 108.496094 12.714844 C 107.382812 13.191406 106.132812 13.324219 105.191406 12.425781 C 103.265625 10.597656 106.121094 8.40625 106.816406 10.074219 C 106.890625 10.25 106.863281 10.644531 106.882812 10.664062 M 21.390625 26.449219 C 22.292969 25.257812 19.605469 23.730469 18.292969 25.621094 C 17.132812 27.300781 18.371094 29.414062 20.222656 29.828125 L 58.148438 29.863281 C 60.496094 30.1875 62.460938 31.796875 63.355469 33.964844 C 64.664062 32 66.078125 30.265625 68.570312 29.878906 L 106.371094 29.863281 C 108.1875 29.589844 109.578125 28 108.941406 26.117188 C 108.519531 24.867188 106.492188 24.15625 105.640625 25.320312 C 105.28125 25.8125 105.285156 26.570312 106.003906 26.636719 C 105.757812 26.039062 106.019531 25.570312 106.675781 25.472656 C 108.960938 25.128906 108.992188 28.757812 106.355469 29.117188 L 68.277344 29.140625 C 66.324219 29.574219 64.566406 30.765625 63.570312 32.503906 C 62.964844 32.019531 62.652344 31.34375 62.035156 30.8125 C 61.074219 29.988281 59.5625 29.246094 58.292969 29.132812 L 20.496094 29.117188 C 18.996094 28.929688 17.820312 27.003906 19.082031 25.824219 C 19.867188 25.09375 21.199219 25.464844 20.996094 26.636719 C 21.011719 26.65625 21.363281 26.484375 21.390625 26.449219 " fill-opacity="1" fill-rule="nonzero"/></g><g clip-path="url(#09a501fced)"><g transform="matrix(1, 0, 0, 1, 0.000000000000000111, -0.000000000000001478)"><g clip-path="url(#0c15c8906f)"><g clip-path="url(#2c4c2522b0)"><g mask="url(#d72b62bcbd)"><g transform="matrix(1, 0, 0, 1, 0.000000000000000111, -0.000000000000001478)"><g clip-path="url(#2349ed3b2c)"><g clip-path="url(#c554947365)"><path fill="url(#ab5e9bf4f9)" d="M 10.8125 0 L 10.8125 37.007812 L 116.652344 37.007812 L 116.652344 0 Z M 10.8125 0 " fill-rule="nonzero"/></g></g></g></g></g></g></g></g></svg>