<svg xmlns="http://www.w3.org/2000/svg" xmlns:xlink="http://www.w3.org/1999/xlink" width="170" zoomAndPan="magnify" viewBox="0 0 127.5 37.5" height="50" preserveAspectRatio="xMidYMid meet" version="1.0"><defs><filter x="0%" y="0%" width="100%" height="100%" id="413629f9da"><feColorMatrix values="0 0 0 0 1 0 0 0 0 1 0 0 0 0 1 0 0 0 1 0" color-interpolation-filters="sRGB"/></filter><g/><clipPath id="b1a215e378"><path d="M 7.902344 0.550781 L 118.921875 0.550781 L 118.921875 36.816406 L 7.902344 36.816406 Z M 7.902344 0.550781 " clip-rule="nonzero"/></clipPath><clipPath id="dc32a36db8"><path d="M 0.59375 0 L 126.414062 0 L 126.414062 37.007812 L 0.59375 37.007812 Z M 0.59375 0 " clip-rule="nonzero"/></clipPath><clipPath id="a52ae9d54c"><path d="M 0.59375 0 L 126.414062 0 L 126.414062 37.007812 L 0.59375 37.007812 Z M 0.59375 0 " clip-rule="nonzero"/></clipPath><clipPath id="81622d530f"><path d="M 5.632812 0 L 121.089844 0 L 121.089844 37.007812 L 5.632812 37.007812 Z M 5.632812 0 " clip-rule="nonzero"/></clipPath><linearGradient x1="5.670107" gradientTransform="matrix(0.740259, 0, 0, 0.744543, 21.028019, 8.597856)" y1="-38.016435" x2="108.509447" gradientUnits="userSpaceOnUse" y2="64.820993" id="2e9fd0b90c"><stop stop-opacity="1" stop-color="rgb(0%, 29.019165%, 67.83905%)" offset="0"/><stop stop-opacity="1" stop-color="rgb(0%, 29.019165%, 67.83905%)" offset="0.125"/><stop stop-opacity="1" stop-color="rgb(0%, 29.019165%, 67.83905%)" offset="0.1875"/><stop stop-opacity="1" stop-color="rgb(0%, 29.019165%, 67.83905%)" offset="0.21875"/><stop stop-opacity="1" stop-color="rgb(0%, 29.019165%, 67.83905%)" offset="0.234375"/><stop stop-opacity="1" stop-color="rgb(0.212097%, 29.05426%, 67.89856%)" offset="0.238281"/><stop stop-opacity="1" stop-color="rgb(0.424194%, 29.090881%, 67.958069%)" offset="0.242188"/><stop stop-opacity="1" stop-color="rgb(1.019287%, 29.190063%, 68.12439%)" offset="0.246094"/><stop stop-opacity="1" stop-color="rgb(1.61438%, 29.289246%, 68.292236%)" offset="0.25"/><stop stop-opacity="1" stop-color="rgb(2.207947%, 29.388428%, 68.458557%)" offset="0.253906"/><stop stop-opacity="1" stop-color="rgb(2.80304%, 29.489136%, 68.626404%)" offset="0.257812"/><stop stop-opacity="1" stop-color="rgb(3.396606%, 29.588318%, 68.792725%)" offset="0.261719"/><stop stop-opacity="1" stop-color="rgb(3.991699%, 29.6875%, 68.960571%)" offset="0.265625"/><stop stop-opacity="1" stop-color="rgb(4.585266%, 29.786682%, 69.126892%)" offset="0.269531"/><stop stop-opacity="1" stop-color="rgb(5.180359%, 29.88739%, 69.294739%)" offset="0.273438"/><stop stop-opacity="1" stop-color="rgb(5.773926%, 29.986572%, 69.46106%)" offset="0.277344"/><stop stop-opacity="1" stop-color="rgb(6.369019%, 30.085754%, 69.628906%)" offset="0.28125"/><stop stop-opacity="1" stop-color="rgb(6.962585%, 30.184937%, 69.795227%)" offset="0.285156"/><stop stop-opacity="1" stop-color="rgb(7.557678%, 30.285645%, 69.963074%)" offset="0.289062"/><stop stop-opacity="1" stop-color="rgb(8.152771%, 30.384827%, 70.129395%)" offset="0.292969"/><stop stop-opacity="1" stop-color="rgb(8.747864%, 30.484009%, 70.295715%)" offset="0.296875"/><stop stop-opacity="1" stop-color="rgb(9.341431%, 30.583191%, 70.462036%)" offset="0.300781"/><stop stop-opacity="1" stop-color="rgb(9.936523%, 30.682373%, 70.629883%)" offset="0.304688"/><stop stop-opacity="1" stop-color="rgb(10.53009%, 30.781555%, 70.796204%)" offset="0.308594"/><stop stop-opacity="1" stop-color="rgb(11.125183%, 30.882263%, 70.96405%)" offset="0.3125"/><stop stop-opacity="1" stop-color="rgb(11.71875%, 30.981445%, 71.130371%)" offset="0.316406"/><stop stop-opacity="1" stop-color="rgb(12.313843%, 31.080627%, 71.298218%)" offset="0.320312"/><stop stop-opacity="1" stop-color="rgb(12.90741%, 31.17981%, 71.464539%)" offset="0.324219"/><stop stop-opacity="1" stop-color="rgb(13.502502%, 31.280518%, 71.632385%)" offset="0.328125"/><stop stop-opacity="1" stop-color="rgb(14.097595%, 31.3797%, 71.798706%)" offset="0.332031"/><stop stop-opacity="1" stop-color="rgb(14.692688%, 31.478882%, 71.966553%)" offset="0.335937"/><stop stop-opacity="1" stop-color="rgb(15.286255%, 31.578064%, 72.132874%)" offset="0.339844"/><stop stop-opacity="1" stop-color="rgb(15.881348%, 31.678772%, 72.299194%)" offset="0.34375"/><stop stop-opacity="1" stop-color="rgb(16.474915%, 31.777954%, 72.465515%)" offset="0.347656"/><stop stop-opacity="1" stop-color="rgb(17.070007%, 31.877136%, 72.633362%)" offset="0.351562"/><stop stop-opacity="1" stop-color="rgb(17.663574%, 31.976318%, 72.799683%)" offset="0.355469"/><stop stop-opacity="1" stop-color="rgb(18.258667%, 32.077026%, 72.967529%)" offset="0.359375"/><stop stop-opacity="1" stop-color="rgb(18.852234%, 32.176208%, 73.13385%)" offset="0.363281"/><stop stop-opacity="1" stop-color="rgb(19.447327%, 32.275391%, 73.301697%)" offset="0.367187"/><stop stop-opacity="1" stop-color="rgb(20.040894%, 32.374573%, 73.468018%)" offset="0.371094"/><stop stop-opacity="1" stop-color="rgb(20.635986%, 32.475281%, 73.635864%)" offset="0.375"/><stop stop-opacity="1" stop-color="rgb(21.231079%, 32.574463%, 73.802185%)" offset="0.378906"/><stop stop-opacity="1" stop-color="rgb(21.826172%, 32.673645%, 73.970032%)" offset="0.382812"/><stop stop-opacity="1" stop-color="rgb(22.419739%, 32.772827%, 74.136353%)" offset="0.386719"/><stop stop-opacity="1" stop-color="rgb(23.014832%, 32.873535%, 74.304199%)" offset="0.390625"/><stop stop-opacity="1" stop-color="rgb(23.608398%, 32.972717%, 74.47052%)" offset="0.394531"/><stop stop-opacity="1" stop-color="rgb(24.203491%, 33.071899%, 74.636841%)" offset="0.398438"/><stop stop-opacity="1" stop-color="rgb(24.797058%, 33.171082%, 74.803162%)" offset="0.402344"/><stop stop-opacity="1" stop-color="rgb(25.392151%, 33.27179%, 74.971008%)" offset="0.40625"/><stop stop-opacity="1" stop-color="rgb(25.985718%, 33.370972%, 75.137329%)" offset="0.410156"/><stop stop-opacity="1" stop-color="rgb(26.580811%, 33.470154%, 75.305176%)" offset="0.414062"/><stop stop-opacity="1" stop-color="rgb(27.175903%, 33.569336%, 75.471497%)" offset="0.417969"/><stop stop-opacity="1" stop-color="rgb(27.770996%, 33.668518%, 75.639343%)" offset="0.421875"/><stop stop-opacity="1" stop-color="rgb(28.364563%, 33.7677%, 75.805664%)" offset="0.425781"/><stop stop-opacity="1" stop-color="rgb(28.959656%, 33.868408%, 75.973511%)" offset="0.429688"/><stop stop-opacity="1" stop-color="rgb(29.553223%, 33.96759%, 76.139832%)" offset="0.433594"/><stop stop-opacity="1" stop-color="rgb(30.148315%, 34.066772%, 76.307678%)" offset="0.4375"/><stop stop-opacity="1" stop-color="rgb(30.741882%, 34.165955%, 76.473999%)" offset="0.441406"/><stop stop-opacity="1" stop-color="rgb(31.336975%, 34.266663%, 76.64032%)" offset="0.445312"/><stop stop-opacity="1" stop-color="rgb(31.930542%, 34.365845%, 76.806641%)" offset="0.449219"/><stop stop-opacity="1" stop-color="rgb(32.525635%, 34.465027%, 76.974487%)" offset="0.453125"/><stop stop-opacity="1" stop-color="rgb(33.119202%, 34.564209%, 77.140808%)" offset="0.457031"/><stop stop-opacity="1" stop-color="rgb(33.714294%, 34.664917%, 77.308655%)" offset="0.460938"/><stop stop-opacity="1" stop-color="rgb(34.309387%, 34.764099%, 77.474976%)" offset="0.464844"/><stop stop-opacity="1" stop-color="rgb(34.90448%, 34.863281%, 77.642822%)" offset="0.46875"/><stop stop-opacity="1" stop-color="rgb(35.498047%, 34.962463%, 77.809143%)" offset="0.472656"/><stop stop-opacity="1" stop-color="rgb(36.09314%, 35.063171%, 77.97699%)" offset="0.476562"/><stop stop-opacity="1" stop-color="rgb(36.686707%, 35.162354%, 78.143311%)" offset="0.480469"/><stop stop-opacity="1" stop-color="rgb(37.281799%, 35.261536%, 78.311157%)" offset="0.484375"/><stop stop-opacity="1" stop-color="rgb(37.875366%, 35.360718%, 78.477478%)" offset="0.488281"/><stop stop-opacity="1" stop-color="rgb(38.470459%, 35.461426%, 78.645325%)" offset="0.492187"/><stop stop-opacity="1" stop-color="rgb(39.064026%, 35.560608%, 78.811646%)" offset="0.496094"/><stop stop-opacity="1" stop-color="rgb(39.659119%, 35.65979%, 78.977966%)" offset="0.5"/><stop stop-opacity="1" stop-color="rgb(40.254211%, 35.758972%, 79.144287%)" offset="0.503906"/><stop stop-opacity="1" stop-color="rgb(40.849304%, 35.85968%, 79.312134%)" offset="0.507812"/><stop stop-opacity="1" stop-color="rgb(41.442871%, 35.958862%, 79.478455%)" offset="0.511719"/><stop stop-opacity="1" stop-color="rgb(42.037964%, 36.058044%, 79.646301%)" offset="0.515625"/><stop stop-opacity="1" stop-color="rgb(42.631531%, 36.157227%, 79.812622%)" offset="0.519531"/><stop stop-opacity="1" stop-color="rgb(43.226624%, 36.257935%, 79.980469%)" offset="0.523438"/><stop stop-opacity="1" stop-color="rgb(43.82019%, 36.357117%, 80.14679%)" offset="0.527344"/><stop stop-opacity="1" stop-color="rgb(44.415283%, 36.456299%, 80.314636%)" offset="0.53125"/><stop stop-opacity="1" stop-color="rgb(45.00885%, 36.555481%, 80.480957%)" offset="0.535156"/><stop stop-opacity="1" stop-color="rgb(45.603943%, 36.654663%, 80.648804%)" offset="0.539062"/><stop stop-opacity="1" stop-color="rgb(46.19751%, 36.753845%, 80.815125%)" offset="0.542969"/><stop stop-opacity="1" stop-color="rgb(46.792603%, 36.854553%, 80.982971%)" offset="0.546875"/><stop stop-opacity="1" stop-color="rgb(47.387695%, 36.953735%, 81.149292%)" offset="0.550781"/><stop stop-opacity="1" stop-color="rgb(47.982788%, 37.052917%, 81.315613%)" offset="0.554688"/><stop stop-opacity="1" stop-color="rgb(48.576355%, 37.1521%, 81.481934%)" offset="0.558594"/><stop stop-opacity="1" stop-color="rgb(49.171448%, 37.252808%, 81.64978%)" offset="0.5625"/><stop stop-opacity="1" stop-color="rgb(49.765015%, 37.35199%, 81.816101%)" offset="0.566406"/><stop stop-opacity="1" stop-color="rgb(50.360107%, 37.451172%, 81.983948%)" offset="0.570312"/><stop stop-opacity="1" stop-color="rgb(50.953674%, 37.550354%, 82.150269%)" offset="0.574219"/><stop stop-opacity="1" stop-color="rgb(51.548767%, 37.651062%, 82.318115%)" offset="0.578125"/><stop stop-opacity="1" stop-color="rgb(52.142334%, 37.750244%, 82.484436%)" offset="0.582031"/><stop stop-opacity="1" stop-color="rgb(52.737427%, 37.849426%, 82.652283%)" offset="0.585937"/><stop stop-opacity="1" stop-color="rgb(53.33252%, 37.948608%, 82.818604%)" offset="0.589844"/><stop stop-opacity="1" stop-color="rgb(53.927612%, 38.049316%, 82.98645%)" offset="0.59375"/><stop stop-opacity="1" stop-color="rgb(54.521179%, 38.148499%, 83.152771%)" offset="0.597656"/><stop stop-opacity="1" stop-color="rgb(55.116272%, 38.247681%, 83.319092%)" offset="0.601562"/><stop stop-opacity="1" stop-color="rgb(55.709839%, 38.346863%, 83.485413%)" offset="0.605469"/><stop stop-opacity="1" stop-color="rgb(56.304932%, 38.447571%, 83.653259%)" offset="0.609375"/><stop stop-opacity="1" stop-color="rgb(56.898499%, 38.546753%, 83.81958%)" offset="0.613281"/><stop stop-opacity="1" stop-color="rgb(57.493591%, 38.645935%, 83.987427%)" offset="0.617187"/><stop stop-opacity="1" stop-color="rgb(58.087158%, 38.745117%, 84.153748%)" offset="0.621094"/><stop stop-opacity="1" stop-color="rgb(58.682251%, 38.845825%, 84.321594%)" offset="0.625"/><stop stop-opacity="1" stop-color="rgb(59.275818%, 38.945007%, 84.487915%)" offset="0.628906"/><stop stop-opacity="1" stop-color="rgb(59.870911%, 39.044189%, 84.655762%)" offset="0.632812"/><stop stop-opacity="1" stop-color="rgb(60.466003%, 39.143372%, 84.822083%)" offset="0.636719"/><stop stop-opacity="1" stop-color="rgb(61.061096%, 39.24408%, 84.989929%)" offset="0.640625"/><stop stop-opacity="1" stop-color="rgb(61.654663%, 39.343262%, 85.15625%)" offset="0.644531"/><stop stop-opacity="1" stop-color="rgb(62.249756%, 39.442444%, 85.324097%)" offset="0.648437"/><stop stop-opacity="1" stop-color="rgb(62.843323%, 39.541626%, 85.490417%)" offset="0.652344"/><stop stop-opacity="1" stop-color="rgb(63.438416%, 39.640808%, 85.656738%)" offset="0.65625"/><stop stop-opacity="1" stop-color="rgb(64.031982%, 39.73999%, 85.823059%)" offset="0.660156"/><stop stop-opacity="1" stop-color="rgb(64.627075%, 39.840698%, 85.990906%)" offset="0.664062"/><stop stop-opacity="1" stop-color="rgb(65.220642%, 39.93988%, 86.157227%)" offset="0.667969"/><stop stop-opacity="1" stop-color="rgb(65.815735%, 40.039062%, 86.325073%)" offset="0.671875"/><stop stop-opacity="1" stop-color="rgb(66.410828%, 40.138245%, 86.491394%)" offset="0.675781"/><stop stop-opacity="1" stop-color="rgb(67.00592%, 40.238953%, 86.659241%)" offset="0.679688"/><stop stop-opacity="1" stop-color="rgb(67.599487%, 40.338135%, 86.825562%)" offset="0.683594"/><stop stop-opacity="1" stop-color="rgb(68.19458%, 40.437317%, 86.993408%)" offset="0.6875"/><stop stop-opacity="1" stop-color="rgb(68.788147%, 40.536499%, 87.159729%)" offset="0.691406"/><stop stop-opacity="1" stop-color="rgb(69.38324%, 40.637207%, 87.327576%)" offset="0.695312"/><stop stop-opacity="1" stop-color="rgb(69.976807%, 40.736389%, 87.493896%)" offset="0.699219"/><stop stop-opacity="1" stop-color="rgb(70.571899%, 40.835571%, 87.660217%)" offset="0.703125"/><stop stop-opacity="1" stop-color="rgb(71.165466%, 40.934753%, 87.826538%)" offset="0.707031"/><stop stop-opacity="1" stop-color="rgb(71.760559%, 41.035461%, 87.994385%)" offset="0.710938"/><stop stop-opacity="1" stop-color="rgb(72.354126%, 41.134644%, 88.160706%)" offset="0.714844"/><stop stop-opacity="1" stop-color="rgb(72.949219%, 41.233826%, 88.328552%)" offset="0.71875"/><stop stop-opacity="1" stop-color="rgb(73.544312%, 41.333008%, 88.494873%)" offset="0.722656"/><stop stop-opacity="1" stop-color="rgb(74.139404%, 41.433716%, 88.66272%)" offset="0.726562"/><stop stop-opacity="1" stop-color="rgb(74.732971%, 41.532898%, 88.829041%)" offset="0.730469"/><stop stop-opacity="1" stop-color="rgb(75.328064%, 41.63208%, 88.996887%)" offset="0.734375"/><stop stop-opacity="1" stop-color="rgb(75.921631%, 41.731262%, 89.163208%)" offset="0.738281"/><stop stop-opacity="1" stop-color="rgb(76.516724%, 41.83197%, 89.331055%)" offset="0.742188"/><stop stop-opacity="1" stop-color="rgb(77.110291%, 41.931152%, 89.497375%)" offset="0.746094"/><stop stop-opacity="1" stop-color="rgb(77.705383%, 42.030334%, 89.665222%)" offset="0.75"/><stop stop-opacity="1" stop-color="rgb(78.29895%, 42.129517%, 89.831543%)" offset="0.753906"/><stop stop-opacity="1" stop-color="rgb(78.894043%, 42.230225%, 89.997864%)" offset="0.757812"/><stop stop-opacity="1" stop-color="rgb(79.251099%, 42.289734%, 90.098572%)" offset="0.761719"/><stop stop-opacity="1" stop-color="rgb(79.60968%, 42.349243%, 90.19928%)" offset="0.765625"/><stop stop-opacity="1" stop-color="rgb(79.60968%, 42.349243%, 90.19928%)" offset="0.78125"/><stop stop-opacity="1" stop-color="rgb(79.60968%, 42.349243%, 90.19928%)" offset="0.8125"/><stop stop-opacity="1" stop-color="rgb(79.60968%, 42.349243%, 90.19928%)" offset="0.875"/><stop stop-opacity="1" stop-color="rgb(79.60968%, 42.349243%, 90.19928%)" offset="1"/></linearGradient><clipPath id="f9071f4dfe"><rect x="0" width="127" y="0" height="38"/></clipPath><clipPath id="bcf4759c54"><path d="M 0.59375 0 L 126.414062 0 L 126.414062 37.007812 L 0.59375 37.007812 Z M 0.59375 0 " clip-rule="nonzero"/></clipPath><clipPath id="48072ffb9a"><rect x="0" width="127" y="0" height="38"/></clipPath><clipPath id="aef5788a0b"><rect x="0" width="127" y="0" height="38"/></clipPath><mask id="63982d4e27"><g filter="url(#413629f9da)"><g transform="matrix(1, 0, 0, 1, 0.000000000000000111, -0.000000000000001478)"><g clip-path="url(#aef5788a0b)"><g clip-path="url(#bcf4759c54)"><g transform="matrix(1, 0, 0, 1, 0.000000000000000111, -0.000000000000001478)"><g clip-path="url(#48072ffb9a)"><g fill="#000000" fill-opacity="1"><g transform="translate(34.415868, 23.46267)"><g><path d="M 0.5625 -10.3125 L 2.296875 -10.3125 L 5.03125 -2.640625 L 4.765625 -2.734375 L 6.796875 -7.96875 L 7.484375 -5.9375 L 4.6875 0.484375 Z M 5.59375 -10.3125 L 7.078125 -10.3125 L 10.046875 -2.75 L 9.75 -2.8125 L 12.296875 -10.3125 L 13.890625 -10.3125 L 9.828125 0.453125 Z M 5.59375 -10.3125 "/></g></g></g><g fill="#000000" fill-opacity="1"><g transform="translate(47.533055, 23.46267)"><g><path d="M 3.9375 0.140625 C 3.25 0.140625 2.65625 0.00390625 2.15625 -0.265625 C 1.664062 -0.535156 1.285156 -0.910156 1.015625 -1.390625 C 0.742188 -1.878906 0.609375 -2.425781 0.609375 -3.03125 C 0.609375 -3.625 0.757812 -4.160156 1.0625 -4.640625 C 1.363281 -5.128906 1.765625 -5.515625 2.265625 -5.796875 C 2.773438 -6.078125 3.34375 -6.21875 3.96875 -6.21875 C 4.769531 -6.21875 5.429688 -5.988281 5.953125 -5.53125 C 6.484375 -5.070312 6.84375 -4.421875 7.03125 -3.578125 L 2.140625 -1.890625 L 1.796875 -2.71875 L 5.71875 -4.15625 L 5.421875 -3.953125 C 5.304688 -4.253906 5.125 -4.515625 4.875 -4.734375 C 4.632812 -4.960938 4.296875 -5.078125 3.859375 -5.078125 C 3.328125 -5.078125 2.890625 -4.894531 2.546875 -4.53125 C 2.210938 -4.164062 2.046875 -3.695312 2.046875 -3.125 C 2.046875 -2.507812 2.226562 -2.015625 2.59375 -1.640625 C 2.957031 -1.273438 3.414062 -1.09375 3.96875 -1.09375 C 4.21875 -1.09375 4.460938 -1.132812 4.703125 -1.21875 C 4.941406 -1.3125 5.164062 -1.4375 5.375 -1.59375 L 6.046875 -0.515625 C 5.734375 -0.316406 5.394531 -0.15625 5.03125 -0.03125 C 4.664062 0.0820312 4.300781 0.140625 3.9375 0.140625 Z M 3.9375 0.140625 "/></g></g></g><g fill="#000000" fill-opacity="1"><g transform="translate(55.043364, 23.46267)"><g><path d="M 1.125 -11.125 L 2.578125 -11.125 L 2.578125 0 L 1.125 0 Z M 1.125 -11.125 "/></g></g></g><g fill="#000000" fill-opacity="1"><g transform="translate(58.748449, 23.46267)"><g><path d="M 6.03125 -0.5625 C 5.757812 -0.34375 5.4375 -0.171875 5.0625 -0.046875 C 4.6875 0.078125 4.304688 0.140625 3.921875 0.140625 C 3.273438 0.140625 2.703125 0.015625 2.203125 -0.234375 C 1.703125 -0.492188 1.3125 -0.859375 1.03125 -1.328125 C 0.75 -1.796875 0.609375 -2.347656 0.609375 -2.984375 C 0.609375 -3.640625 0.753906 -4.203125 1.046875 -4.671875 C 1.347656 -5.140625 1.738281 -5.5 2.21875 -5.75 C 2.707031 -6 3.226562 -6.125 3.78125 -6.125 C 4.269531 -6.125 4.703125 -6.054688 5.078125 -5.921875 C 5.460938 -5.785156 5.789062 -5.601562 6.0625 -5.375 L 5.359375 -4.4375 C 5.191406 -4.570312 4.984375 -4.691406 4.734375 -4.796875 C 4.484375 -4.898438 4.207031 -4.953125 3.90625 -4.953125 C 3.5625 -4.953125 3.25 -4.863281 2.96875 -4.6875 C 2.6875 -4.519531 2.460938 -4.285156 2.296875 -3.984375 C 2.140625 -3.691406 2.0625 -3.359375 2.0625 -2.984375 C 2.0625 -2.628906 2.144531 -2.300781 2.3125 -2 C 2.476562 -1.707031 2.710938 -1.472656 3.015625 -1.296875 C 3.316406 -1.128906 3.65625 -1.046875 4.03125 -1.046875 C 4.28125 -1.046875 4.507812 -1.082031 4.71875 -1.15625 C 4.9375 -1.238281 5.128906 -1.335938 5.296875 -1.453125 Z M 6.03125 -0.5625 "/></g></g></g><g fill="#000000" fill-opacity="1"><g transform="translate(65.328907, 23.46267)"><g><path d="M 0.609375 -3.046875 C 0.609375 -3.648438 0.75 -4.191406 1.03125 -4.671875 C 1.320312 -5.148438 1.71875 -5.523438 2.21875 -5.796875 C 2.726562 -6.078125 3.3125 -6.21875 3.96875 -6.21875 C 4.625 -6.21875 5.195312 -6.078125 5.6875 -5.796875 C 6.175781 -5.523438 6.554688 -5.148438 6.828125 -4.671875 C 7.097656 -4.191406 7.234375 -3.648438 7.234375 -3.046875 C 7.234375 -2.441406 7.09375 -1.898438 6.8125 -1.421875 C 6.539062 -0.941406 6.160156 -0.5625 5.671875 -0.28125 C 5.179688 0 4.601562 0.140625 3.9375 0.140625 C 3.300781 0.140625 2.734375 0.015625 2.234375 -0.234375 C 1.734375 -0.492188 1.335938 -0.863281 1.046875 -1.34375 C 0.753906 -1.832031 0.609375 -2.398438 0.609375 -3.046875 Z M 2.078125 -3.03125 C 2.078125 -2.65625 2.15625 -2.316406 2.3125 -2.015625 C 2.476562 -1.722656 2.703125 -1.488281 2.984375 -1.3125 C 3.265625 -1.132812 3.578125 -1.046875 3.921875 -1.046875 C 4.460938 -1.046875 4.90625 -1.234375 5.25 -1.609375 C 5.601562 -1.992188 5.78125 -2.46875 5.78125 -3.03125 C 5.78125 -3.59375 5.601562 -4.066406 5.25 -4.453125 C 4.90625 -4.835938 4.460938 -5.03125 3.921875 -5.03125 C 3.566406 -5.03125 3.25 -4.941406 2.96875 -4.765625 C 2.695312 -4.585938 2.476562 -4.34375 2.3125 -4.03125 C 2.15625 -3.726562 2.078125 -3.394531 2.078125 -3.03125 Z M 2.078125 -3.03125 "/></g></g></g><g fill="#000000" fill-opacity="1"><g transform="translate(73.182539, 23.46267)"><g><path d="M 2.4375 -5.984375 L 2.5625 -4.6875 L 2.484375 -4.796875 C 2.703125 -5.242188 3.015625 -5.59375 3.421875 -5.84375 C 3.828125 -6.09375 4.296875 -6.21875 4.828125 -6.21875 C 5.316406 -6.21875 5.726562 -6.101562 6.0625 -5.875 C 6.394531 -5.644531 6.601562 -5.320312 6.6875 -4.90625 L 6.609375 -4.859375 C 6.847656 -5.285156 7.164062 -5.617188 7.5625 -5.859375 C 7.96875 -6.097656 8.390625 -6.21875 8.828125 -6.21875 C 9.421875 -6.21875 9.890625 -6.050781 10.234375 -5.71875 C 10.578125 -5.394531 10.753906 -4.96875 10.765625 -4.4375 L 10.765625 0 L 9.328125 0 L 9.328125 -3.890625 C 9.316406 -4.191406 9.25 -4.441406 9.125 -4.640625 C 9 -4.847656 8.769531 -4.960938 8.4375 -4.984375 C 8.09375 -4.984375 7.785156 -4.875 7.515625 -4.65625 C 7.253906 -4.445312 7.050781 -4.175781 6.90625 -3.84375 C 6.757812 -3.507812 6.679688 -3.15625 6.671875 -2.78125 L 6.671875 0 L 5.21875 0 L 5.21875 -3.890625 C 5.207031 -4.191406 5.132812 -4.441406 5 -4.640625 C 4.863281 -4.847656 4.628906 -4.960938 4.296875 -4.984375 C 3.960938 -4.984375 3.660156 -4.875 3.390625 -4.65625 C 3.128906 -4.445312 2.925781 -4.171875 2.78125 -3.828125 C 2.644531 -3.492188 2.578125 -3.140625 2.578125 -2.765625 L 2.578125 0 L 1.125 0 L 1.125 -5.984375 Z M 2.4375 -5.984375 "/></g></g></g><g fill="#000000" fill-opacity="1"><g transform="translate(85.07028, 23.46267)"><g><path d="M 3.9375 0.140625 C 3.25 0.140625 2.65625 0.00390625 2.15625 -0.265625 C 1.664062 -0.535156 1.285156 -0.910156 1.015625 -1.390625 C 0.742188 -1.878906 0.609375 -2.425781 0.609375 -3.03125 C 0.609375 -3.625 0.757812 -4.160156 1.0625 -4.640625 C 1.363281 -5.128906 1.765625 -5.515625 2.265625 -5.796875 C 2.773438 -6.078125 3.34375 -6.21875 3.96875 -6.21875 C 4.769531 -6.21875 5.429688 -5.988281 5.953125 -5.53125 C 6.484375 -5.070312 6.84375 -4.421875 7.03125 -3.578125 L 2.140625 -1.890625 L 1.796875 -2.71875 L 5.71875 -4.15625 L 5.421875 -3.953125 C 5.304688 -4.253906 5.125 -4.515625 4.875 -4.734375 C 4.632812 -4.960938 4.296875 -5.078125 3.859375 -5.078125 C 3.328125 -5.078125 2.890625 -4.894531 2.546875 -4.53125 C 2.210938 -4.164062 2.046875 -3.695312 2.046875 -3.125 C 2.046875 -2.507812 2.226562 -2.015625 2.59375 -1.640625 C 2.957031 -1.273438 3.414062 -1.09375 3.96875 -1.09375 C 4.21875 -1.09375 4.460938 -1.132812 4.703125 -1.21875 C 4.941406 -1.3125 5.164062 -1.4375 5.375 -1.59375 L 6.046875 -0.515625 C 5.734375 -0.316406 5.394531 -0.15625 5.03125 -0.03125 C 4.664062 0.0820312 4.300781 0.140625 3.9375 0.140625 Z M 3.9375 0.140625 "/></g></g></g></g></g></g></g></g></g></mask><clipPath id="060ef295f2"><path d="M 5.632812 0 L 121.089844 0 L 121.089844 37.007812 L 5.632812 37.007812 Z M 5.632812 0 " clip-rule="nonzero"/></clipPath><clipPath id="b4319a52b7"><rect x="0" width="127" y="0" height="38"/></clipPath><clipPath id="7130acf371"><rect x="0" width="127" y="0" height="38"/></clipPath></defs><g clip-path="url(#b1a215e378)"><path fill="#ff9999" d="M 109.375 12.859375 C 111.378906 12.179688 112.847656 12.722656 113.632812 14.683594 C 113.769531 15.027344 113.738281 15.425781 113.882812 15.753906 C 114.191406 16.457031 115.742188 17.414062 116.457031 17.722656 L 119.046875 18.574219 C 117.570312 18.726562 114.554688 19.867188 113.886719 21.257812 C 113.625 21.800781 113.679688 22.421875 113.308594 23.023438 C 112.441406 24.421875 110.851562 24.816406 109.375 24.148438 C 109.292969 24.234375 109.90625 26.054688 109.945312 26.433594 C 110.179688 28.753906 108.523438 30.582031 106.230469 30.746094 L 68.570312 30.753906 C 65.671875 31.324219 64.332031 33.910156 63.425781 36.457031 C 62.828125 33.828125 61.074219 31.316406 58.285156 30.753906 L 20.769531 30.75 C 17.09375 30.472656 16.308594 27.152344 17.625 24.148438 C 16.214844 24.738281 14.453125 24.476562 13.636719 23.078125 C 13.285156 22.476562 13.292969 21.742188 12.996094 21.226562 C 12.183594 19.800781 9.503906 18.828125 7.953125 18.574219 L 10.542969 17.722656 C 11.367188 17.367188 12.769531 16.441406 13.113281 15.601562 C 13.324219 15.082031 13.28125 14.636719 13.605469 14.042969 C 14.371094 12.628906 16.242188 12.125 17.625 13.007812 C 16.570312 10.253906 16.695312 7.234375 19.964844 6.332031 L 58.132812 6.25 C 60.964844 5.820312 62.828125 3.1875 63.355469 0.550781 C 63.5625 0.566406 63.585938 0.765625 63.652344 0.910156 C 64.78125 3.371094 65.566406 5.738281 68.71875 6.25 L 106.230469 6.257812 C 108.53125 6.363281 110.183594 8.257812 109.945312 10.574219 C 109.90625 10.953125 109.292969 12.773438 109.375 12.859375 M 63.644531 3.042969 C 63.574219 2.976562 63.441406 3.023438 63.339844 3.132812 C 63.046875 3.457031 62.707031 4.261719 62.324219 4.722656 C 61.242188 6.019531 59.84375 6.933594 58.132812 7.125 L 20.484375 7.144531 C 16.777344 7.5625 17.355469 12.945312 20.453125 12.242188 C 21.25 12.0625 21.996094 11.03125 21.214844 10.371094 C 20.835938 10.3125 21.054688 10.792969 20.917969 11.097656 C 20.585938 11.863281 19.417969 11.585938 18.9375 11.035156 C 17.8125 9.757812 19.175781 7.988281 20.628906 7.875 L 58.425781 7.859375 C 59.359375 7.660156 60.28125 7.375 61.085938 6.855469 C 62.054688 6.222656 62.699219 5.238281 63.570312 4.503906 C 64.632812 6.289062 66.492188 7.550781 68.558594 7.875 L 106.503906 7.890625 C 108.910156 8.214844 108.921875 11.695312 106.8125 11.546875 C 106.09375 11.5 105.820312 11.058594 105.855469 10.367188 C 104.90625 10.925781 105.550781 12.003906 106.433594 12.210938 C 107.492188 12.460938 108.851562 11.609375 109.046875 10.554688 C 109.351562 8.902344 108.324219 7.609375 106.773438 7.179688 L 68.851562 7.140625 C 66.546875 6.9375 64.421875 5.1875 63.644531 3.039062 M 19.382812 13.742188 C 21.554688 14.132812 23.578125 12.496094 22.976562 10.21875 C 22.632812 8.90625 20.695312 8.21875 19.742188 9.332031 C 19.257812 9.898438 19.230469 10.78125 20.117188 10.808594 C 19.734375 9.242188 21.875 9.144531 22.25 10.359375 C 22.730469 11.9375 21.433594 13.128906 19.921875 13.097656 C 19.359375 13.085938 18.894531 12.753906 18.355469 12.714844 C 18.972656 14.121094 19.058594 16.707031 17.292969 17.292969 C 14.769531 18.125 13.957031 14.808594 15.710938 14.246094 C 17.609375 13.632812 17.542969 16.511719 16.347656 15.980469 C 15.605469 15.648438 16.496094 15.238281 16.304688 15.058594 C 15.945312 14.71875 14.929688 15.910156 16.125 16.492188 C 17.84375 17.332031 18.929688 13.808594 16.515625 13.457031 C 14.011719 13.089844 14.414062 15.539062 13.300781 16.820312 C 12.691406 17.523438 11.78125 17.972656 11.03125 18.503906 C 11.851562 19.144531 13.417969 19.992188 13.847656 20.960938 C 14.261719 21.886719 14.089844 23.226562 15.53125 23.527344 C 18.320312 24.105469 18.605469 20.664062 16.78125 20.359375 C 15.230469 20.101562 15.359375 22.507812 16.304688 22.023438 C 16.667969 21.835938 15.96875 21.597656 16.019531 21.304688 C 16.152344 20.578125 17.53125 20.996094 17.238281 22.0625 C 16.855469 23.472656 14.40625 22.925781 14.753906 21.0625 C 15.109375 19.160156 17.867188 19.101562 18.574219 20.921875 C 19.035156 22.109375 18.625 23.105469 18.503906 24.292969 C 20.152344 23.386719 22.730469 24.179688 22.28125 26.382812 C 21.988281 27.820312 19.667969 27.78125 20.117188 26.199219 C 19.265625 26.207031 19.289062 27.152344 19.742188 27.671875 C 20.753906 28.84375 22.746094 27.960938 23.015625 26.53125 C 23.4375 24.257812 21.476562 22.953125 19.382812 23.265625 C 20.351562 20.335938 17.144531 17.257812 14.609375 19.746094 C 14.414062 19.9375 14.449219 20.296875 14.183594 20.1875 C 14.066406 20.140625 12.859375 18.582031 12.347656 18.503906 C 12.949219 18.136719 13.492188 17.703125 13.964844 17.179688 C 14.070312 17.0625 14.09375 16.832031 14.109375 16.820312 C 14.386719 16.605469 14.425781 17.050781 14.542969 17.179688 C 16.9375 19.832031 20.378906 16.703125 19.382812 13.742188 M 106.882812 10.664062 C 107.273438 11.035156 107.707031 10.136719 107.304688 9.433594 C 106.644531 8.269531 104.789062 8.792969 104.175781 9.789062 C 102.871094 11.917969 105.253906 14.242188 107.46875 13.738281 C 107.503906 14.375 107.398438 15.058594 107.503906 15.683594 C 107.9375 18.25 111.285156 19.128906 112.671875 16.820312 C 112.957031 16.738281 112.898438 17.042969 113.101562 17.261719 C 113.535156 17.71875 114.019531 18.105469 114.5 18.503906 L 112.671875 20.1875 C 110.195312 17.0625 106.78125 19.894531 107.46875 23.269531 C 105.933594 22.992188 104.1875 23.851562 103.867188 25.457031 C 103.535156 27.113281 105.09375 28.800781 106.734375 28.03125 C 107.804688 27.527344 107.5625 26.097656 106.957031 26.199219 C 106.578125 26.261719 107.136719 26.863281 106.585938 27.292969 C 105.421875 28.199219 103.605469 26.113281 105.191406 24.582031 C 106.121094 23.683594 107.394531 23.816406 108.492188 24.292969 C 107.917969 22.609375 107.957031 19.589844 110.328125 19.589844 C 113.011719 19.589844 112.5 23.433594 110.390625 22.761719 C 109.425781 22.453125 109.523438 21 110.332031 20.917969 C 111.210938 20.824219 110.589844 21.847656 110.695312 21.945312 C 111.339844 22.558594 111.796875 20.058594 110.101562 20.390625 C 108.359375 20.738281 108.644531 24.082031 111.320312 23.527344 C 112.730469 23.234375 112.621094 22.050781 113.007812 21.109375 C 113.445312 20.046875 115.054688 18.96875 116.113281 18.574219 L 114.515625 17.613281 C 113.234375 16.636719 113.320312 16.238281 112.820312 14.914062 C 112.242188 13.386719 110.210938 12.761719 109.253906 14.277344 C 108.613281 15.292969 109.335938 16.765625 110.4375 16.644531 C 111.90625 16.484375 111.09375 14.5625 110.546875 15.058594 C 110.363281 15.230469 111.128906 15.5625 110.628906 15.949219 C 109.78125 16.601562 109.125 14.578125 110.359375 14.210938 C 112.433594 13.59375 112.957031 17.167969 110.621094 17.40625 C 107.992188 17.679688 107.867188 14.546875 108.496094 12.714844 C 107.382812 13.191406 106.132812 13.324219 105.191406 12.425781 C 103.265625 10.597656 106.121094 8.40625 106.816406 10.074219 C 106.890625 10.25 106.863281 10.644531 106.882812 10.664062 M 21.390625 26.449219 C 22.292969 25.257812 19.605469 23.730469 18.292969 25.621094 C 17.132812 27.300781 18.371094 29.414062 20.222656 29.828125 L 58.148438 29.863281 C 60.496094 30.1875 62.460938 31.796875 63.355469 33.964844 C 64.664062 32 66.078125 30.265625 68.570312 29.878906 L 106.371094 29.863281 C 108.1875 29.589844 109.578125 28 108.941406 26.117188 C 108.519531 24.867188 106.492188 24.15625 105.640625 25.320312 C 105.28125 25.8125 105.285156 26.570312 106.003906 26.636719 C 105.757812 26.039062 106.019531 25.570312 106.675781 25.472656 C 108.960938 25.128906 108.992188 28.757812 106.355469 29.117188 L 68.277344 29.140625 C 66.324219 29.574219 64.566406 30.765625 63.570312 32.503906 C 62.964844 32.019531 62.652344 31.34375 62.035156 30.8125 C 61.074219 29.988281 59.5625 29.246094 58.292969 29.132812 L 20.496094 29.117188 C 18.996094 28.929688 17.820312 27.003906 19.082031 25.824219 C 19.867188 25.09375 21.199219 25.464844 20.996094 26.636719 C 21.011719 26.65625 21.363281 26.484375 21.390625 26.449219 " fill-opacity="1" fill-rule="nonzero"/></g><g clip-path="url(#dc32a36db8)"><g transform="matrix(1, 0, 0, 1, 0.000000000000000111, -0.000000000000001478)"><g clip-path="url(#7130acf371)"><g clip-path="url(#a52ae9d54c)"><g mask="url(#63982d4e27)"><g transform="matrix(1, 0, 0, 1, 0.000000000000000111, -0.000000000000001478)"><g clip-path="url(#b4319a52b7)"><g clip-path="url(#060ef295f2)"><path fill="url(#2e9fd0b90c)" d="M 5.632812 0 L 5.632812 37.007812 L 121.089844 37.007812 L 121.089844 0 Z M 5.632812 0 " fill-rule="nonzero"/></g></g></g></g></g></g></g></g></svg>