<svg xmlns="http://www.w3.org/2000/svg" xmlns:xlink="http://www.w3.org/1999/xlink" width="170" zoomAndPan="magnify" viewBox="0 0 127.5 37.5" height="50" preserveAspectRatio="xMidYMid meet" version="1.0"><defs><filter x="0%" y="0%" width="100%" height="100%" id="d98e788ab3"><feColorMatrix values="0 0 0 0 1 0 0 0 0 1 0 0 0 0 1 0 0 0 1 0" color-interpolation-filters="sRGB"/></filter><g/><clipPath id="6a729299a6"><path d="M 7.902344 0.550781 L 118.921875 0.550781 L 118.921875 36.816406 L 7.902344 36.816406 Z M 7.902344 0.550781 " clip-rule="nonzero"/></clipPath><clipPath id="80f5f76c6c"><path d="M 0.59375 0 L 126.414062 0 L 126.414062 37.007812 L 0.59375 37.007812 Z M 0.59375 0 " clip-rule="nonzero"/></clipPath><clipPath id="83b1cbfabe"><path d="M 0.59375 0 L 126.414062 0 L 126.414062 37.007812 L 0.59375 37.007812 Z M 0.59375 0 " clip-rule="nonzero"/></clipPath><clipPath id="110c8a5858"><path d="M 3.410156 0 L 124.050781 0 L 124.050781 37.007812 L 3.410156 37.007812 Z M 3.410156 0 " clip-rule="nonzero"/></clipPath><linearGradient x1="4.007043" gradientTransform="matrix(0.741817, 0, 0, 0.744543, 21.309708, 8.597856)" y1="-39.681388" x2="110.171513" gradientUnits="userSpaceOnUse" y2="66.48494" id="f1aea15169"><stop stop-opacity="1" stop-color="rgb(0%, 29.019165%, 67.83905%)" offset="0"/><stop stop-opacity="1" stop-color="rgb(0%, 29.019165%, 67.83905%)" offset="0.125"/><stop stop-opacity="1" stop-color="rgb(0%, 29.019165%, 67.83905%)" offset="0.1875"/><stop stop-opacity="1" stop-color="rgb(0%, 29.019165%, 67.83905%)" offset="0.21875"/><stop stop-opacity="1" stop-color="rgb(0.183105%, 29.049683%, 67.89093%)" offset="0.234089"/><stop stop-opacity="1" stop-color="rgb(0.367737%, 29.0802%, 67.94281%)" offset="0.234375"/><stop stop-opacity="1" stop-color="rgb(0.944519%, 29.176331%, 68.104553%)" offset="0.238281"/><stop stop-opacity="1" stop-color="rgb(1.522827%, 29.273987%, 68.267822%)" offset="0.242187"/><stop stop-opacity="1" stop-color="rgb(2.101135%, 29.370117%, 68.429565%)" offset="0.246094"/><stop stop-opacity="1" stop-color="rgb(2.679443%, 29.467773%, 68.591309%)" offset="0.25"/><stop stop-opacity="1" stop-color="rgb(3.256226%, 29.563904%, 68.753052%)" offset="0.253906"/><stop stop-opacity="1" stop-color="rgb(3.834534%, 29.66156%, 68.916321%)" offset="0.257812"/><stop stop-opacity="1" stop-color="rgb(4.412842%, 29.75769%, 69.078064%)" offset="0.261719"/><stop stop-opacity="1" stop-color="rgb(4.99115%, 29.855347%, 69.241333%)" offset="0.265625"/><stop stop-opacity="1" stop-color="rgb(5.567932%, 29.951477%, 69.403076%)" offset="0.269531"/><stop stop-opacity="1" stop-color="rgb(6.14624%, 30.049133%, 69.566345%)" offset="0.273437"/><stop stop-opacity="1" stop-color="rgb(6.724548%, 30.145264%, 69.728088%)" offset="0.277344"/><stop stop-opacity="1" stop-color="rgb(7.302856%, 30.24292%, 69.891357%)" offset="0.28125"/><stop stop-opacity="1" stop-color="rgb(7.881165%, 30.33905%, 70.053101%)" offset="0.285156"/><stop stop-opacity="1" stop-color="rgb(8.459473%, 30.435181%, 70.214844%)" offset="0.289062"/><stop stop-opacity="1" stop-color="rgb(9.036255%, 30.531311%, 70.376587%)" offset="0.292969"/><stop stop-opacity="1" stop-color="rgb(9.614563%, 30.628967%, 70.539856%)" offset="0.296875"/><stop stop-opacity="1" stop-color="rgb(10.192871%, 30.725098%, 70.701599%)" offset="0.300781"/><stop stop-opacity="1" stop-color="rgb(10.771179%, 30.822754%, 70.864868%)" offset="0.304688"/><stop stop-opacity="1" stop-color="rgb(11.347961%, 30.918884%, 71.026611%)" offset="0.308594"/><stop stop-opacity="1" stop-color="rgb(11.92627%, 31.016541%, 71.18988%)" offset="0.3125"/><stop stop-opacity="1" stop-color="rgb(12.504578%, 31.112671%, 71.351624%)" offset="0.316406"/><stop stop-opacity="1" stop-color="rgb(13.082886%, 31.210327%, 71.513367%)" offset="0.320312"/><stop stop-opacity="1" stop-color="rgb(13.659668%, 31.306458%, 71.67511%)" offset="0.324219"/><stop stop-opacity="1" stop-color="rgb(14.237976%, 31.404114%, 71.838379%)" offset="0.328125"/><stop stop-opacity="1" stop-color="rgb(14.816284%, 31.500244%, 72.000122%)" offset="0.332031"/><stop stop-opacity="1" stop-color="rgb(15.394592%, 31.596375%, 72.163391%)" offset="0.335938"/><stop stop-opacity="1" stop-color="rgb(15.971375%, 31.692505%, 72.325134%)" offset="0.339844"/><stop stop-opacity="1" stop-color="rgb(16.549683%, 31.790161%, 72.488403%)" offset="0.34375"/><stop stop-opacity="1" stop-color="rgb(17.127991%, 31.886292%, 72.650146%)" offset="0.347656"/><stop stop-opacity="1" stop-color="rgb(17.706299%, 31.983948%, 72.81189%)" offset="0.351562"/><stop stop-opacity="1" stop-color="rgb(18.283081%, 32.080078%, 72.973633%)" offset="0.355469"/><stop stop-opacity="1" stop-color="rgb(18.861389%, 32.177734%, 73.136902%)" offset="0.359375"/><stop stop-opacity="1" stop-color="rgb(19.439697%, 32.273865%, 73.298645%)" offset="0.363281"/><stop stop-opacity="1" stop-color="rgb(20.018005%, 32.371521%, 73.461914%)" offset="0.367188"/><stop stop-opacity="1" stop-color="rgb(20.594788%, 32.467651%, 73.623657%)" offset="0.371094"/><stop stop-opacity="1" stop-color="rgb(21.173096%, 32.565308%, 73.786926%)" offset="0.375"/><stop stop-opacity="1" stop-color="rgb(21.751404%, 32.661438%, 73.948669%)" offset="0.378906"/><stop stop-opacity="1" stop-color="rgb(22.329712%, 32.757568%, 74.110413%)" offset="0.382812"/><stop stop-opacity="1" stop-color="rgb(22.906494%, 32.853699%, 74.272156%)" offset="0.386719"/><stop stop-opacity="1" stop-color="rgb(23.484802%, 32.951355%, 74.435425%)" offset="0.390625"/><stop stop-opacity="1" stop-color="rgb(24.06311%, 33.047485%, 74.597168%)" offset="0.394531"/><stop stop-opacity="1" stop-color="rgb(24.641418%, 33.145142%, 74.760437%)" offset="0.398438"/><stop stop-opacity="1" stop-color="rgb(25.218201%, 33.241272%, 74.92218%)" offset="0.402344"/><stop stop-opacity="1" stop-color="rgb(25.796509%, 33.338928%, 75.085449%)" offset="0.40625"/><stop stop-opacity="1" stop-color="rgb(26.374817%, 33.435059%, 75.247192%)" offset="0.410156"/><stop stop-opacity="1" stop-color="rgb(26.953125%, 33.532715%, 75.408936%)" offset="0.414062"/><stop stop-opacity="1" stop-color="rgb(27.529907%, 33.628845%, 75.570679%)" offset="0.417969"/><stop stop-opacity="1" stop-color="rgb(28.108215%, 33.726501%, 75.733948%)" offset="0.421875"/><stop stop-opacity="1" stop-color="rgb(28.686523%, 33.822632%, 75.895691%)" offset="0.425781"/><stop stop-opacity="1" stop-color="rgb(29.264832%, 33.918762%, 76.05896%)" offset="0.429688"/><stop stop-opacity="1" stop-color="rgb(29.841614%, 34.014893%, 76.220703%)" offset="0.433594"/><stop stop-opacity="1" stop-color="rgb(30.419922%, 34.112549%, 76.383972%)" offset="0.4375"/><stop stop-opacity="1" stop-color="rgb(30.99823%, 34.208679%, 76.545715%)" offset="0.441406"/><stop stop-opacity="1" stop-color="rgb(31.576538%, 34.306335%, 76.708984%)" offset="0.445312"/><stop stop-opacity="1" stop-color="rgb(32.15332%, 34.402466%, 76.870728%)" offset="0.449219"/><stop stop-opacity="1" stop-color="rgb(32.731628%, 34.500122%, 77.032471%)" offset="0.453125"/><stop stop-opacity="1" stop-color="rgb(33.309937%, 34.596252%, 77.194214%)" offset="0.457031"/><stop stop-opacity="1" stop-color="rgb(33.888245%, 34.693909%, 77.357483%)" offset="0.460938"/><stop stop-opacity="1" stop-color="rgb(34.465027%, 34.790039%, 77.519226%)" offset="0.464844"/><stop stop-opacity="1" stop-color="rgb(35.043335%, 34.887695%, 77.682495%)" offset="0.46875"/><stop stop-opacity="1" stop-color="rgb(35.621643%, 34.983826%, 77.844238%)" offset="0.472656"/><stop stop-opacity="1" stop-color="rgb(36.199951%, 35.079956%, 78.007507%)" offset="0.476562"/><stop stop-opacity="1" stop-color="rgb(36.776733%, 35.176086%, 78.16925%)" offset="0.480469"/><stop stop-opacity="1" stop-color="rgb(37.355042%, 35.273743%, 78.330994%)" offset="0.484375"/><stop stop-opacity="1" stop-color="rgb(37.93335%, 35.369873%, 78.492737%)" offset="0.488281"/><stop stop-opacity="1" stop-color="rgb(38.511658%, 35.467529%, 78.656006%)" offset="0.492188"/><stop stop-opacity="1" stop-color="rgb(39.08844%, 35.56366%, 78.817749%)" offset="0.496094"/><stop stop-opacity="1" stop-color="rgb(39.666748%, 35.661316%, 78.981018%)" offset="0.5"/><stop stop-opacity="1" stop-color="rgb(40.245056%, 35.757446%, 79.142761%)" offset="0.503906"/><stop stop-opacity="1" stop-color="rgb(40.823364%, 35.855103%, 79.30603%)" offset="0.507812"/><stop stop-opacity="1" stop-color="rgb(41.400146%, 35.951233%, 79.467773%)" offset="0.511719"/><stop stop-opacity="1" stop-color="rgb(41.978455%, 36.048889%, 79.629517%)" offset="0.515625"/><stop stop-opacity="1" stop-color="rgb(42.556763%, 36.14502%, 79.79126%)" offset="0.519531"/><stop stop-opacity="1" stop-color="rgb(43.135071%, 36.242676%, 79.954529%)" offset="0.523438"/><stop stop-opacity="1" stop-color="rgb(43.711853%, 36.338806%, 80.116272%)" offset="0.527344"/><stop stop-opacity="1" stop-color="rgb(44.290161%, 36.434937%, 80.279541%)" offset="0.53125"/><stop stop-opacity="1" stop-color="rgb(44.868469%, 36.531067%, 80.441284%)" offset="0.535156"/><stop stop-opacity="1" stop-color="rgb(45.446777%, 36.628723%, 80.604553%)" offset="0.539062"/><stop stop-opacity="1" stop-color="rgb(46.02356%, 36.724854%, 80.766296%)" offset="0.542969"/><stop stop-opacity="1" stop-color="rgb(46.601868%, 36.82251%, 80.92804%)" offset="0.546875"/><stop stop-opacity="1" stop-color="rgb(47.180176%, 36.91864%, 81.089783%)" offset="0.550781"/><stop stop-opacity="1" stop-color="rgb(47.758484%, 37.016296%, 81.253052%)" offset="0.554688"/><stop stop-opacity="1" stop-color="rgb(48.336792%, 37.112427%, 81.414795%)" offset="0.558594"/><stop stop-opacity="1" stop-color="rgb(48.9151%, 37.210083%, 81.578064%)" offset="0.5625"/><stop stop-opacity="1" stop-color="rgb(49.491882%, 37.306213%, 81.739807%)" offset="0.566406"/><stop stop-opacity="1" stop-color="rgb(50.07019%, 37.40387%, 81.903076%)" offset="0.570312"/><stop stop-opacity="1" stop-color="rgb(50.648499%, 37.5%, 82.064819%)" offset="0.574219"/><stop stop-opacity="1" stop-color="rgb(51.226807%, 37.59613%, 82.226562%)" offset="0.578125"/><stop stop-opacity="1" stop-color="rgb(51.803589%, 37.692261%, 82.388306%)" offset="0.582031"/><stop stop-opacity="1" stop-color="rgb(52.381897%, 37.789917%, 82.551575%)" offset="0.585938"/><stop stop-opacity="1" stop-color="rgb(52.960205%, 37.886047%, 82.713318%)" offset="0.589844"/><stop stop-opacity="1" stop-color="rgb(53.538513%, 37.983704%, 82.876587%)" offset="0.59375"/><stop stop-opacity="1" stop-color="rgb(54.115295%, 38.079834%, 83.03833%)" offset="0.597656"/><stop stop-opacity="1" stop-color="rgb(54.693604%, 38.17749%, 83.201599%)" offset="0.601562"/><stop stop-opacity="1" stop-color="rgb(55.271912%, 38.273621%, 83.363342%)" offset="0.605469"/><stop stop-opacity="1" stop-color="rgb(55.85022%, 38.371277%, 83.526611%)" offset="0.609375"/><stop stop-opacity="1" stop-color="rgb(56.427002%, 38.467407%, 83.688354%)" offset="0.613281"/><stop stop-opacity="1" stop-color="rgb(57.00531%, 38.565063%, 83.850098%)" offset="0.617188"/><stop stop-opacity="1" stop-color="rgb(57.583618%, 38.661194%, 84.011841%)" offset="0.621094"/><stop stop-opacity="1" stop-color="rgb(58.161926%, 38.757324%, 84.17511%)" offset="0.625"/><stop stop-opacity="1" stop-color="rgb(58.738708%, 38.853455%, 84.336853%)" offset="0.628906"/><stop stop-opacity="1" stop-color="rgb(59.317017%, 38.951111%, 84.500122%)" offset="0.632812"/><stop stop-opacity="1" stop-color="rgb(59.895325%, 39.047241%, 84.661865%)" offset="0.636719"/><stop stop-opacity="1" stop-color="rgb(60.473633%, 39.144897%, 84.825134%)" offset="0.640625"/><stop stop-opacity="1" stop-color="rgb(61.050415%, 39.241028%, 84.986877%)" offset="0.644531"/><stop stop-opacity="1" stop-color="rgb(61.628723%, 39.338684%, 85.148621%)" offset="0.648438"/><stop stop-opacity="1" stop-color="rgb(62.207031%, 39.434814%, 85.310364%)" offset="0.652344"/><stop stop-opacity="1" stop-color="rgb(62.785339%, 39.532471%, 85.473633%)" offset="0.65625"/><stop stop-opacity="1" stop-color="rgb(63.362122%, 39.628601%, 85.635376%)" offset="0.660156"/><stop stop-opacity="1" stop-color="rgb(63.94043%, 39.726257%, 85.798645%)" offset="0.664062"/><stop stop-opacity="1" stop-color="rgb(64.518738%, 39.822388%, 85.960388%)" offset="0.667969"/><stop stop-opacity="1" stop-color="rgb(65.097046%, 39.918518%, 86.123657%)" offset="0.671875"/><stop stop-opacity="1" stop-color="rgb(65.673828%, 40.014648%, 86.2854%)" offset="0.675781"/><stop stop-opacity="1" stop-color="rgb(66.252136%, 40.112305%, 86.447144%)" offset="0.679688"/><stop stop-opacity="1" stop-color="rgb(66.830444%, 40.208435%, 86.608887%)" offset="0.683594"/><stop stop-opacity="1" stop-color="rgb(67.408752%, 40.306091%, 86.772156%)" offset="0.6875"/><stop stop-opacity="1" stop-color="rgb(67.985535%, 40.402222%, 86.933899%)" offset="0.691406"/><stop stop-opacity="1" stop-color="rgb(68.563843%, 40.499878%, 87.097168%)" offset="0.695312"/><stop stop-opacity="1" stop-color="rgb(69.142151%, 40.596008%, 87.258911%)" offset="0.699219"/><stop stop-opacity="1" stop-color="rgb(69.720459%, 40.693665%, 87.42218%)" offset="0.703125"/><stop stop-opacity="1" stop-color="rgb(70.297241%, 40.789795%, 87.583923%)" offset="0.707031"/><stop stop-opacity="1" stop-color="rgb(70.875549%, 40.887451%, 87.745667%)" offset="0.710938"/><stop stop-opacity="1" stop-color="rgb(71.453857%, 40.983582%, 87.90741%)" offset="0.714844"/><stop stop-opacity="1" stop-color="rgb(72.032166%, 41.079712%, 88.070679%)" offset="0.71875"/><stop stop-opacity="1" stop-color="rgb(72.608948%, 41.175842%, 88.232422%)" offset="0.722656"/><stop stop-opacity="1" stop-color="rgb(73.187256%, 41.273499%, 88.395691%)" offset="0.726562"/><stop stop-opacity="1" stop-color="rgb(73.765564%, 41.369629%, 88.557434%)" offset="0.730469"/><stop stop-opacity="1" stop-color="rgb(74.343872%, 41.467285%, 88.720703%)" offset="0.734375"/><stop stop-opacity="1" stop-color="rgb(74.920654%, 41.563416%, 88.882446%)" offset="0.738281"/><stop stop-opacity="1" stop-color="rgb(75.498962%, 41.661072%, 89.044189%)" offset="0.742188"/><stop stop-opacity="1" stop-color="rgb(76.077271%, 41.757202%, 89.205933%)" offset="0.746094"/><stop stop-opacity="1" stop-color="rgb(76.655579%, 41.854858%, 89.369202%)" offset="0.75"/><stop stop-opacity="1" stop-color="rgb(77.232361%, 41.950989%, 89.530945%)" offset="0.753906"/><stop stop-opacity="1" stop-color="rgb(77.810669%, 42.048645%, 89.694214%)" offset="0.757812"/><stop stop-opacity="1" stop-color="rgb(78.388977%, 42.144775%, 89.855957%)" offset="0.761719"/><stop stop-opacity="1" stop-color="rgb(78.967285%, 42.242432%, 90.019226%)" offset="0.765625"/><stop stop-opacity="1" stop-color="rgb(79.28772%, 42.295837%, 90.109253%)" offset="0.769531"/><stop stop-opacity="1" stop-color="rgb(79.60968%, 42.349243%, 90.19928%)" offset="0.773438"/><stop stop-opacity="1" stop-color="rgb(79.60968%, 42.349243%, 90.19928%)" offset="0.78125"/><stop stop-opacity="1" stop-color="rgb(79.60968%, 42.349243%, 90.19928%)" offset="0.8125"/><stop stop-opacity="1" stop-color="rgb(79.60968%, 42.349243%, 90.19928%)" offset="0.875"/><stop stop-opacity="1" stop-color="rgb(79.60968%, 42.349243%, 90.19928%)" offset="1"/></linearGradient><clipPath id="7e638e05c0"><rect x="0" width="127" y="0" height="38"/></clipPath><clipPath id="340e5df479"><path d="M 0.59375 0 L 126.414062 0 L 126.414062 37.007812 L 0.59375 37.007812 Z M 0.59375 0 " clip-rule="nonzero"/></clipPath><clipPath id="12e3784239"><rect x="0" width="127" y="0" height="38"/></clipPath><clipPath id="77afa878c3"><rect x="0" width="127" y="0" height="38"/></clipPath><mask id="8c66fa8fea"><g filter="url(#d98e788ab3)"><g transform="matrix(1, 0, 0, 1, 0.000000000000000111, -0.000000000000001478)"><g clip-path="url(#77afa878c3)"><g clip-path="url(#340e5df479)"><g transform="matrix(1, 0, 0, 1, 0.000000000000000111, -0.000000000000001478)"><g clip-path="url(#12e3784239)"><g fill="#000000" fill-opacity="1"><g transform="translate(31.952617, 23.46267)"><g><path d="M 1.46875 -10.375 L 7.6875 -10.375 L 7.6875 -8.9375 L 2.96875 -8.9375 L 2.96875 -5.78125 L 7.078125 -5.78125 L 7.078125 -4.34375 L 2.96875 -4.34375 L 2.96875 0 L 1.46875 0 Z M 1.46875 -10.375 "/></g></g></g><g fill="#000000" fill-opacity="1"><g transform="translate(40.163734, 23.46267)"><g><path d="M 3.046875 0.25 C 2.492188 0.25 2.039062 0.0820312 1.6875 -0.25 C 1.332031 -0.59375 1.144531 -1.023438 1.125 -1.546875 L 1.125 -5.984375 L 2.578125 -5.984375 L 2.578125 -2.0625 C 2.597656 -1.75 2.6875 -1.492188 2.84375 -1.296875 C 3.007812 -1.109375 3.269531 -1.003906 3.625 -0.984375 C 3.945312 -0.984375 4.234375 -1.082031 4.484375 -1.28125 C 4.742188 -1.476562 4.945312 -1.75 5.09375 -2.09375 C 5.25 -2.4375 5.328125 -2.820312 5.328125 -3.25 L 5.328125 -5.984375 L 6.765625 -5.984375 L 6.765625 0 L 5.46875 0 L 5.359375 -1.40625 L 5.40625 -1.171875 C 5.226562 -0.765625 4.925781 -0.425781 4.5 -0.15625 C 4.070312 0.113281 3.585938 0.25 3.046875 0.25 Z M 3.046875 0.25 "/></g></g></g><g fill="#000000" fill-opacity="1"><g transform="translate(48.07459, 23.46267)"><g><path d="M 2.4375 -5.984375 L 2.5625 -4.59375 L 2.5 -4.796875 C 2.695312 -5.222656 3.003906 -5.566406 3.421875 -5.828125 C 3.847656 -6.085938 4.347656 -6.21875 4.921875 -6.21875 C 5.484375 -6.21875 5.945312 -6.050781 6.3125 -5.71875 C 6.675781 -5.382812 6.863281 -4.953125 6.875 -4.421875 L 6.875 0 L 5.421875 0 L 5.421875 -3.921875 C 5.410156 -4.222656 5.316406 -4.472656 5.140625 -4.671875 C 4.972656 -4.867188 4.707031 -4.972656 4.34375 -4.984375 C 3.84375 -4.984375 3.421875 -4.769531 3.078125 -4.34375 C 2.742188 -3.925781 2.578125 -3.390625 2.578125 -2.734375 L 2.578125 0 L 1.125 0 L 1.125 -5.984375 Z M 2.4375 -5.984375 "/></g></g></g><g fill="#000000" fill-opacity="1"><g transform="translate(56.085586, 23.46267)"><g/></g></g><g fill="#000000" fill-opacity="1"><g transform="translate(57.945277, 23.46267)"><g><path d="M 0.40625 0 L 4.96875 -10.8125 L 5.046875 -10.8125 L 9.625 0 L 7.890625 0 L 4.5625 -8.453125 L 5.640625 -9.15625 L 1.890625 0 Z M 3.15625 -3.890625 L 6.890625 -3.890625 L 7.40625 -2.609375 L 2.71875 -2.609375 Z M 3.15625 -3.890625 "/></g></g></g><g fill="#000000" fill-opacity="1"><g transform="translate(67.959019, 23.46267)"><g><path d="M 2.421875 -5.984375 L 2.5625 -4.265625 L 2.5 -4.5 C 2.664062 -4.851562 2.894531 -5.160156 3.1875 -5.421875 C 3.476562 -5.679688 3.78125 -5.878906 4.09375 -6.015625 C 4.414062 -6.148438 4.6875 -6.21875 4.90625 -6.21875 L 4.84375 -4.796875 C 4.394531 -4.828125 4 -4.738281 3.65625 -4.53125 C 3.320312 -4.332031 3.054688 -4.066406 2.859375 -3.734375 C 2.671875 -3.398438 2.578125 -3.039062 2.578125 -2.65625 L 2.578125 0 L 1.125 0 L 1.125 -5.984375 Z M 2.421875 -5.984375 "/></g></g></g><g fill="#000000" fill-opacity="1"><g transform="translate(73.151707, 23.46267)"><g><path d="M 3.9375 0.140625 C 3.25 0.140625 2.65625 0.00390625 2.15625 -0.265625 C 1.664062 -0.535156 1.285156 -0.910156 1.015625 -1.390625 C 0.742188 -1.878906 0.609375 -2.425781 0.609375 -3.03125 C 0.609375 -3.625 0.757812 -4.160156 1.0625 -4.640625 C 1.363281 -5.128906 1.765625 -5.515625 2.265625 -5.796875 C 2.773438 -6.078125 3.34375 -6.21875 3.96875 -6.21875 C 4.769531 -6.21875 5.429688 -5.988281 5.953125 -5.53125 C 6.484375 -5.070312 6.84375 -4.421875 7.03125 -3.578125 L 2.140625 -1.890625 L 1.796875 -2.71875 L 5.71875 -4.15625 L 5.421875 -3.953125 C 5.304688 -4.253906 5.125 -4.515625 4.875 -4.734375 C 4.632812 -4.960938 4.296875 -5.078125 3.859375 -5.078125 C 3.328125 -5.078125 2.890625 -4.894531 2.546875 -4.53125 C 2.210938 -4.164062 2.046875 -3.695312 2.046875 -3.125 C 2.046875 -2.507812 2.226562 -2.015625 2.59375 -1.640625 C 2.957031 -1.273438 3.414062 -1.09375 3.96875 -1.09375 C 4.21875 -1.09375 4.460938 -1.132812 4.703125 -1.21875 C 4.941406 -1.3125 5.164062 -1.4375 5.375 -1.59375 L 6.046875 -0.515625 C 5.734375 -0.316406 5.394531 -0.15625 5.03125 -0.03125 C 4.664062 0.0820312 4.300781 0.140625 3.9375 0.140625 Z M 3.9375 0.140625 "/></g></g></g><g fill="#000000" fill-opacity="1"><g transform="translate(80.662017, 23.46267)"><g><path d="M 3.640625 0.140625 C 3.078125 0.140625 2.566406 0.0195312 2.109375 -0.21875 C 1.648438 -0.457031 1.285156 -0.804688 1.015625 -1.265625 C 0.742188 -1.722656 0.609375 -2.296875 0.609375 -2.984375 C 0.609375 -3.660156 0.75 -4.238281 1.03125 -4.71875 C 1.3125 -5.195312 1.679688 -5.566406 2.140625 -5.828125 C 2.609375 -6.085938 3.113281 -6.21875 3.65625 -6.21875 C 4.226562 -6.21875 4.703125 -6.097656 5.078125 -5.859375 C 5.453125 -5.628906 5.738281 -5.347656 5.9375 -5.015625 L 5.859375 -4.78125 L 6 -5.984375 L 7.328125 -5.984375 L 7.328125 0 L 5.875 0 L 5.875 -1.515625 L 6.03125 -1.15625 C 5.988281 -1.082031 5.90625 -0.972656 5.78125 -0.828125 C 5.65625 -0.679688 5.492188 -0.535156 5.296875 -0.390625 C 5.097656 -0.242188 4.859375 -0.117188 4.578125 -0.015625 C 4.296875 0.0859375 3.984375 0.140625 3.640625 0.140625 Z M 4.015625 -1.046875 C 4.492188 -1.046875 4.894531 -1.171875 5.21875 -1.421875 C 5.550781 -1.671875 5.769531 -2.019531 5.875 -2.46875 L 5.875 -3.6875 C 5.757812 -4.082031 5.53125 -4.40625 5.1875 -4.65625 C 4.84375 -4.914062 4.441406 -5.046875 3.984375 -5.046875 C 3.640625 -5.046875 3.320312 -4.960938 3.03125 -4.796875 C 2.75 -4.628906 2.519531 -4.394531 2.34375 -4.09375 C 2.175781 -3.800781 2.09375 -3.457031 2.09375 -3.0625 C 2.09375 -2.675781 2.179688 -2.332031 2.359375 -2.03125 C 2.535156 -1.726562 2.769531 -1.488281 3.0625 -1.3125 C 3.351562 -1.132812 3.671875 -1.046875 4.015625 -1.046875 Z M 4.015625 -1.046875 "/></g></g></g><g fill="#000000" fill-opacity="1"><g transform="translate(89.116475, 23.46267)"><g><path d="M 2.859375 0.125 C 2.421875 0.125 2 0.046875 1.59375 -0.109375 C 1.195312 -0.265625 0.863281 -0.488281 0.59375 -0.78125 L 1.203125 -1.625 C 1.453125 -1.382812 1.710938 -1.203125 1.984375 -1.078125 C 2.253906 -0.953125 2.507812 -0.890625 2.75 -0.890625 C 3.019531 -0.890625 3.257812 -0.941406 3.46875 -1.046875 C 3.6875 -1.160156 3.796875 -1.347656 3.796875 -1.609375 C 3.796875 -1.816406 3.722656 -1.976562 3.578125 -2.09375 C 3.441406 -2.207031 3.269531 -2.300781 3.0625 -2.375 C 2.851562 -2.445312 2.628906 -2.519531 2.390625 -2.59375 C 1.890625 -2.75 1.507812 -2.976562 1.25 -3.28125 C 0.988281 -3.582031 0.859375 -3.9375 0.859375 -4.34375 C 0.859375 -4.664062 0.9375 -4.96875 1.09375 -5.25 C 1.25 -5.53125 1.488281 -5.757812 1.8125 -5.9375 C 2.132812 -6.113281 2.535156 -6.203125 3.015625 -6.203125 C 3.441406 -6.203125 3.820312 -6.148438 4.15625 -6.046875 C 4.488281 -5.941406 4.796875 -5.769531 5.078125 -5.53125 L 4.515625 -4.671875 C 4.347656 -4.835938 4.144531 -4.96875 3.90625 -5.0625 C 3.675781 -5.15625 3.46875 -5.203125 3.28125 -5.203125 C 3.019531 -5.203125 2.789062 -5.144531 2.59375 -5.03125 C 2.40625 -4.914062 2.3125 -4.753906 2.3125 -4.546875 C 2.3125 -4.347656 2.378906 -4.1875 2.515625 -4.0625 C 2.648438 -3.945312 2.820312 -3.851562 3.03125 -3.78125 C 3.25 -3.707031 3.46875 -3.632812 3.6875 -3.5625 C 4.125 -3.414062 4.488281 -3.21875 4.78125 -2.96875 C 5.070312 -2.726562 5.21875 -2.367188 5.21875 -1.890625 C 5.21875 -1.523438 5.128906 -1.1875 4.953125 -0.875 C 4.785156 -0.570312 4.523438 -0.328125 4.171875 -0.140625 C 3.828125 0.0351562 3.390625 0.125 2.859375 0.125 Z M 2.859375 0.125 "/></g></g></g></g></g></g></g></g></g></mask><clipPath id="ad464f97ce"><path d="M 3.410156 0 L 124.050781 0 L 124.050781 37.007812 L 3.410156 37.007812 Z M 3.410156 0 " clip-rule="nonzero"/></clipPath><clipPath id="be445630c8"><rect x="0" width="127" y="0" height="38"/></clipPath><clipPath id="44c8ace8c2"><rect x="0" width="127" y="0" height="38"/></clipPath></defs><g clip-path="url(#6a729299a6)"><path fill="#ff9999" d="M 109.375 12.859375 C 111.378906 12.179688 112.847656 12.722656 113.632812 14.683594 C 113.769531 15.027344 113.738281 15.425781 113.882812 15.753906 C 114.191406 16.457031 115.742188 17.414062 116.457031 17.722656 L 119.046875 18.574219 C 117.570312 18.726562 114.554688 19.867188 113.886719 21.257812 C 113.625 21.800781 113.679688 22.421875 113.308594 23.023438 C 112.441406 24.421875 110.851562 24.816406 109.375 24.148438 C 109.292969 24.234375 109.90625 26.054688 109.945312 26.433594 C 110.179688 28.753906 108.523438 30.582031 106.230469 30.746094 L 68.570312 30.753906 C 65.671875 31.324219 64.332031 33.910156 63.425781 36.457031 C 62.828125 33.828125 61.074219 31.316406 58.285156 30.753906 L 20.769531 30.75 C 17.09375 30.472656 16.308594 27.152344 17.625 24.148438 C 16.214844 24.738281 14.453125 24.476562 13.636719 23.078125 C 13.285156 22.476562 13.292969 21.742188 12.996094 21.226562 C 12.183594 19.800781 9.503906 18.828125 7.953125 18.574219 L 10.542969 17.722656 C 11.367188 17.367188 12.769531 16.441406 13.113281 15.601562 C 13.324219 15.082031 13.28125 14.636719 13.605469 14.042969 C 14.371094 12.628906 16.242188 12.125 17.625 13.007812 C 16.570312 10.253906 16.695312 7.234375 19.964844 6.332031 L 58.132812 6.25 C 60.964844 5.820312 62.828125 3.1875 63.355469 0.550781 C 63.5625 0.566406 63.585938 0.765625 63.652344 0.910156 C 64.78125 3.371094 65.566406 5.738281 68.71875 6.25 L 106.230469 6.257812 C 108.53125 6.363281 110.183594 8.257812 109.945312 10.574219 C 109.90625 10.953125 109.292969 12.773438 109.375 12.859375 M 63.644531 3.042969 C 63.574219 2.976562 63.441406 3.023438 63.339844 3.132812 C 63.046875 3.457031 62.707031 4.261719 62.324219 4.722656 C 61.242188 6.019531 59.84375 6.933594 58.132812 7.125 L 20.484375 7.144531 C 16.777344 7.5625 17.355469 12.945312 20.453125 12.242188 C 21.25 12.0625 21.996094 11.03125 21.214844 10.371094 C 20.835938 10.3125 21.054688 10.792969 20.917969 11.097656 C 20.585938 11.863281 19.417969 11.585938 18.9375 11.035156 C 17.8125 9.757812 19.175781 7.988281 20.628906 7.875 L 58.425781 7.859375 C 59.359375 7.660156 60.28125 7.375 61.085938 6.855469 C 62.054688 6.222656 62.699219 5.238281 63.570312 4.503906 C 64.632812 6.289062 66.492188 7.550781 68.558594 7.875 L 106.503906 7.890625 C 108.910156 8.214844 108.921875 11.695312 106.8125 11.546875 C 106.09375 11.5 105.820312 11.058594 105.855469 10.367188 C 104.90625 10.925781 105.550781 12.003906 106.433594 12.210938 C 107.492188 12.460938 108.851562 11.609375 109.046875 10.554688 C 109.351562 8.902344 108.324219 7.609375 106.773438 7.179688 L 68.851562 7.140625 C 66.546875 6.9375 64.421875 5.1875 63.644531 3.039062 M 19.382812 13.742188 C 21.554688 14.132812 23.578125 12.496094 22.976562 10.21875 C 22.632812 8.90625 20.695312 8.21875 19.742188 9.332031 C 19.257812 9.898438 19.230469 10.78125 20.117188 10.808594 C 19.734375 9.242188 21.875 9.144531 22.25 10.359375 C 22.730469 11.9375 21.433594 13.128906 19.921875 13.097656 C 19.359375 13.085938 18.894531 12.753906 18.355469 12.714844 C 18.972656 14.121094 19.058594 16.707031 17.292969 17.292969 C 14.769531 18.125 13.957031 14.808594 15.710938 14.246094 C 17.609375 13.632812 17.542969 16.511719 16.347656 15.980469 C 15.605469 15.648438 16.496094 15.238281 16.304688 15.058594 C 15.945312 14.71875 14.929688 15.910156 16.125 16.492188 C 17.84375 17.332031 18.929688 13.808594 16.515625 13.457031 C 14.011719 13.089844 14.414062 15.539062 13.300781 16.820312 C 12.691406 17.523438 11.78125 17.972656 11.03125 18.503906 C 11.851562 19.144531 13.417969 19.992188 13.847656 20.960938 C 14.261719 21.886719 14.089844 23.226562 15.53125 23.527344 C 18.320312 24.105469 18.605469 20.664062 16.78125 20.359375 C 15.230469 20.101562 15.359375 22.507812 16.304688 22.023438 C 16.667969 21.835938 15.96875 21.597656 16.019531 21.304688 C 16.152344 20.578125 17.53125 20.996094 17.238281 22.0625 C 16.855469 23.472656 14.40625 22.925781 14.753906 21.0625 C 15.109375 19.160156 17.867188 19.101562 18.574219 20.921875 C 19.035156 22.109375 18.625 23.105469 18.503906 24.292969 C 20.152344 23.386719 22.730469 24.179688 22.28125 26.382812 C 21.988281 27.820312 19.667969 27.78125 20.117188 26.199219 C 19.265625 26.207031 19.289062 27.152344 19.742188 27.671875 C 20.753906 28.84375 22.746094 27.960938 23.015625 26.53125 C 23.4375 24.257812 21.476562 22.953125 19.382812 23.265625 C 20.351562 20.335938 17.144531 17.257812 14.609375 19.746094 C 14.414062 19.9375 14.449219 20.296875 14.183594 20.1875 C 14.066406 20.140625 12.859375 18.582031 12.347656 18.503906 C 12.949219 18.136719 13.492188 17.703125 13.964844 17.179688 C 14.070312 17.0625 14.09375 16.832031 14.109375 16.820312 C 14.386719 16.605469 14.425781 17.050781 14.542969 17.179688 C 16.9375 19.832031 20.378906 16.703125 19.382812 13.742188 M 106.882812 10.664062 C 107.273438 11.035156 107.707031 10.136719 107.304688 9.433594 C 106.644531 8.269531 104.789062 8.792969 104.175781 9.789062 C 102.871094 11.917969 105.253906 14.242188 107.46875 13.738281 C 107.503906 14.375 107.398438 15.058594 107.503906 15.683594 C 107.9375 18.25 111.285156 19.128906 112.671875 16.820312 C 112.957031 16.738281 112.898438 17.042969 113.101562 17.261719 C 113.535156 17.71875 114.019531 18.105469 114.5 18.503906 L 112.671875 20.1875 C 110.195312 17.0625 106.78125 19.894531 107.46875 23.269531 C 105.933594 22.992188 104.1875 23.851562 103.867188 25.457031 C 103.535156 27.113281 105.09375 28.800781 106.734375 28.03125 C 107.804688 27.527344 107.5625 26.097656 106.957031 26.199219 C 106.578125 26.261719 107.136719 26.863281 106.585938 27.292969 C 105.421875 28.199219 103.605469 26.113281 105.191406 24.582031 C 106.121094 23.683594 107.394531 23.816406 108.492188 24.292969 C 107.917969 22.609375 107.957031 19.589844 110.328125 19.589844 C 113.011719 19.589844 112.5 23.433594 110.390625 22.761719 C 109.425781 22.453125 109.523438 21 110.332031 20.917969 C 111.210938 20.824219 110.589844 21.847656 110.695312 21.945312 C 111.339844 22.558594 111.796875 20.058594 110.101562 20.390625 C 108.359375 20.738281 108.644531 24.082031 111.320312 23.527344 C 112.730469 23.234375 112.621094 22.050781 113.007812 21.109375 C 113.445312 20.046875 115.054688 18.96875 116.113281 18.574219 L 114.515625 17.613281 C 113.234375 16.636719 113.320312 16.238281 112.820312 14.914062 C 112.242188 13.386719 110.210938 12.761719 109.253906 14.277344 C 108.613281 15.292969 109.335938 16.765625 110.4375 16.644531 C 111.90625 16.484375 111.09375 14.5625 110.546875 15.058594 C 110.363281 15.230469 111.128906 15.5625 110.628906 15.949219 C 109.78125 16.601562 109.125 14.578125 110.359375 14.210938 C 112.433594 13.59375 112.957031 17.167969 110.621094 17.40625 C 107.992188 17.679688 107.867188 14.546875 108.496094 12.714844 C 107.382812 13.191406 106.132812 13.324219 105.191406 12.425781 C 103.265625 10.597656 106.121094 8.40625 106.816406 10.074219 C 106.890625 10.25 106.863281 10.644531 106.882812 10.664062 M 21.390625 26.449219 C 22.292969 25.257812 19.605469 23.730469 18.292969 25.621094 C 17.132812 27.300781 18.371094 29.414062 20.222656 29.828125 L 58.148438 29.863281 C 60.496094 30.1875 62.460938 31.796875 63.355469 33.964844 C 64.664062 32 66.078125 30.265625 68.570312 29.878906 L 106.371094 29.863281 C 108.1875 29.589844 109.578125 28 108.941406 26.117188 C 108.519531 24.867188 106.492188 24.15625 105.640625 25.320312 C 105.28125 25.8125 105.285156 26.570312 106.003906 26.636719 C 105.757812 26.039062 106.019531 25.570312 106.675781 25.472656 C 108.960938 25.128906 108.992188 28.757812 106.355469 29.117188 L 68.277344 29.140625 C 66.324219 29.574219 64.566406 30.765625 63.570312 32.503906 C 62.964844 32.019531 62.652344 31.34375 62.035156 30.8125 C 61.074219 29.988281 59.5625 29.246094 58.292969 29.132812 L 20.496094 29.117188 C 18.996094 28.929688 17.820312 27.003906 19.082031 25.824219 C 19.867188 25.09375 21.199219 25.464844 20.996094 26.636719 C 21.011719 26.65625 21.363281 26.484375 21.390625 26.449219 " fill-opacity="1" fill-rule="nonzero"/></g><g clip-path="url(#80f5f76c6c)"><g transform="matrix(1, 0, 0, 1, 0.000000000000000111, -0.000000000000001478)"><g clip-path="url(#44c8ace8c2)"><g clip-path="url(#83b1cbfabe)"><g mask="url(#8c66fa8fea)"><g transform="matrix(1, 0, 0, 1, 0.000000000000000111, -0.000000000000001478)"><g clip-path="url(#be445630c8)"><g clip-path="url(#ad464f97ce)"><path fill="url(#f1aea15169)" d="M 3.410156 0 L 3.410156 37.007812 L 124.050781 37.007812 L 124.050781 0 Z M 3.410156 0 " fill-rule="nonzero"/></g></g></g></g></g></g></g></g></svg>