<svg xmlns="http://www.w3.org/2000/svg" xmlns:xlink="http://www.w3.org/1999/xlink" width="170" zoomAndPan="magnify" viewBox="0 0 127.5 37.5" height="50" preserveAspectRatio="xMidYMid meet" version="1.0"><defs><filter x="0%" y="0%" width="100%" height="100%" id="5e89e1580f"><feColorMatrix values="0 0 0 0 1 0 0 0 0 1 0 0 0 0 1 0 0 0 1 0" color-interpolation-filters="sRGB"/></filter><g/><clipPath id="65202baeda"><path d="M 7.902344 0.550781 L 118.921875 0.550781 L 118.921875 36.816406 L 7.902344 36.816406 Z M 7.902344 0.550781 " clip-rule="nonzero"/></clipPath><clipPath id="22739eb5bb"><path d="M 0.59375 0 L 126.414062 0 L 126.414062 37.007812 L 0.59375 37.007812 Z M 0.59375 0 " clip-rule="nonzero"/></clipPath><clipPath id="3dcb83080d"><path d="M 0.59375 0 L 126.414062 0 L 126.414062 37.007812 L 0.59375 37.007812 Z M 0.59375 0 " clip-rule="nonzero"/></clipPath><clipPath id="bc3492fa31"><path d="M 17.472656 0 L 109.25 0 L 109.25 37.007812 L 17.472656 37.007812 Z M 17.472656 0 " clip-rule="nonzero"/></clipPath><linearGradient x1="13.64815" gradientTransform="matrix(0.739738, 0, 0, 0.744542, 21.057823, 8.597856)" y1="-30.040498" x2="100.531406" gradientUnits="userSpaceOnUse" y2="56.845051" id="3f8f374a67"><stop stop-opacity="1" stop-color="rgb(0%, 29.019165%, 67.83905%)" offset="0"/><stop stop-opacity="1" stop-color="rgb(0%, 29.019165%, 67.83905%)" offset="0.25"/><stop stop-opacity="1" stop-color="rgb(0%, 29.019165%, 67.83905%)" offset="0.28125"/><stop stop-opacity="1" stop-color="rgb(0.521851%, 29.10614%, 67.985535%)" offset="0.285156"/><stop stop-opacity="1" stop-color="rgb(1.043701%, 29.194641%, 68.133545%)" offset="0.289062"/><stop stop-opacity="1" stop-color="rgb(1.757812%, 29.31366%, 68.333435%)" offset="0.292969"/><stop stop-opacity="1" stop-color="rgb(2.471924%, 29.432678%, 68.533325%)" offset="0.296875"/><stop stop-opacity="1" stop-color="rgb(3.186035%, 29.551697%, 68.733215%)" offset="0.300781"/><stop stop-opacity="1" stop-color="rgb(3.900146%, 29.672241%, 68.934631%)" offset="0.304688"/><stop stop-opacity="1" stop-color="rgb(4.614258%, 29.79126%, 69.134521%)" offset="0.308594"/><stop stop-opacity="1" stop-color="rgb(5.328369%, 29.911804%, 69.335938%)" offset="0.3125"/><stop stop-opacity="1" stop-color="rgb(6.04248%, 30.030823%, 69.535828%)" offset="0.316406"/><stop stop-opacity="1" stop-color="rgb(6.756592%, 30.151367%, 69.737244%)" offset="0.320312"/><stop stop-opacity="1" stop-color="rgb(7.470703%, 30.270386%, 69.937134%)" offset="0.324219"/><stop stop-opacity="1" stop-color="rgb(8.184814%, 30.389404%, 70.13855%)" offset="0.328125"/><stop stop-opacity="1" stop-color="rgb(8.8974%, 30.508423%, 70.33844%)" offset="0.332031"/><stop stop-opacity="1" stop-color="rgb(9.611511%, 30.628967%, 70.539856%)" offset="0.335937"/><stop stop-opacity="1" stop-color="rgb(10.325623%, 30.747986%, 70.739746%)" offset="0.339844"/><stop stop-opacity="1" stop-color="rgb(11.039734%, 30.86853%, 70.939636%)" offset="0.34375"/><stop stop-opacity="1" stop-color="rgb(11.753845%, 30.987549%, 71.139526%)" offset="0.347656"/><stop stop-opacity="1" stop-color="rgb(12.467957%, 31.106567%, 71.340942%)" offset="0.351562"/><stop stop-opacity="1" stop-color="rgb(13.182068%, 31.225586%, 71.540833%)" offset="0.355469"/><stop stop-opacity="1" stop-color="rgb(13.896179%, 31.34613%, 71.742249%)" offset="0.359375"/><stop stop-opacity="1" stop-color="rgb(14.610291%, 31.465149%, 71.942139%)" offset="0.363281"/><stop stop-opacity="1" stop-color="rgb(15.324402%, 31.585693%, 72.143555%)" offset="0.367187"/><stop stop-opacity="1" stop-color="rgb(16.036987%, 31.704712%, 72.343445%)" offset="0.371094"/><stop stop-opacity="1" stop-color="rgb(16.751099%, 31.82373%, 72.544861%)" offset="0.375"/><stop stop-opacity="1" stop-color="rgb(17.46521%, 31.942749%, 72.744751%)" offset="0.378906"/><stop stop-opacity="1" stop-color="rgb(18.179321%, 32.063293%, 72.946167%)" offset="0.382812"/><stop stop-opacity="1" stop-color="rgb(18.893433%, 32.182312%, 73.146057%)" offset="0.386719"/><stop stop-opacity="1" stop-color="rgb(19.607544%, 32.302856%, 73.345947%)" offset="0.390625"/><stop stop-opacity="1" stop-color="rgb(20.321655%, 32.421875%, 73.545837%)" offset="0.394531"/><stop stop-opacity="1" stop-color="rgb(21.035767%, 32.540894%, 73.747253%)" offset="0.398438"/><stop stop-opacity="1" stop-color="rgb(21.749878%, 32.659912%, 73.947144%)" offset="0.402344"/><stop stop-opacity="1" stop-color="rgb(22.463989%, 32.780457%, 74.14856%)" offset="0.40625"/><stop stop-opacity="1" stop-color="rgb(23.176575%, 32.899475%, 74.34845%)" offset="0.410156"/><stop stop-opacity="1" stop-color="rgb(23.890686%, 33.02002%, 74.549866%)" offset="0.414062"/><stop stop-opacity="1" stop-color="rgb(24.604797%, 33.139038%, 74.749756%)" offset="0.417969"/><stop stop-opacity="1" stop-color="rgb(25.318909%, 33.259583%, 74.951172%)" offset="0.421875"/><stop stop-opacity="1" stop-color="rgb(26.03302%, 33.378601%, 75.151062%)" offset="0.425781"/><stop stop-opacity="1" stop-color="rgb(26.747131%, 33.49762%, 75.352478%)" offset="0.429688"/><stop stop-opacity="1" stop-color="rgb(27.461243%, 33.616638%, 75.552368%)" offset="0.433594"/><stop stop-opacity="1" stop-color="rgb(28.175354%, 33.737183%, 75.752258%)" offset="0.4375"/><stop stop-opacity="1" stop-color="rgb(28.889465%, 33.856201%, 75.952148%)" offset="0.441406"/><stop stop-opacity="1" stop-color="rgb(29.603577%, 33.976746%, 76.153564%)" offset="0.445312"/><stop stop-opacity="1" stop-color="rgb(30.317688%, 34.095764%, 76.353455%)" offset="0.449219"/><stop stop-opacity="1" stop-color="rgb(31.031799%, 34.214783%, 76.554871%)" offset="0.453125"/><stop stop-opacity="1" stop-color="rgb(31.744385%, 34.333801%, 76.754761%)" offset="0.457031"/><stop stop-opacity="1" stop-color="rgb(32.458496%, 34.454346%, 76.956177%)" offset="0.460937"/><stop stop-opacity="1" stop-color="rgb(33.172607%, 34.573364%, 77.156067%)" offset="0.464844"/><stop stop-opacity="1" stop-color="rgb(33.886719%, 34.693909%, 77.357483%)" offset="0.46875"/><stop stop-opacity="1" stop-color="rgb(34.60083%, 34.812927%, 77.557373%)" offset="0.472656"/><stop stop-opacity="1" stop-color="rgb(35.314941%, 34.931946%, 77.758789%)" offset="0.476562"/><stop stop-opacity="1" stop-color="rgb(36.029053%, 35.050964%, 77.958679%)" offset="0.480469"/><stop stop-opacity="1" stop-color="rgb(36.743164%, 35.171509%, 78.160095%)" offset="0.484375"/><stop stop-opacity="1" stop-color="rgb(37.457275%, 35.290527%, 78.359985%)" offset="0.488281"/><stop stop-opacity="1" stop-color="rgb(38.171387%, 35.411072%, 78.559875%)" offset="0.492187"/><stop stop-opacity="1" stop-color="rgb(38.883972%, 35.53009%, 78.759766%)" offset="0.496094"/><stop stop-opacity="1" stop-color="rgb(39.598083%, 35.649109%, 78.961182%)" offset="0.5"/><stop stop-opacity="1" stop-color="rgb(40.312195%, 35.768127%, 79.161072%)" offset="0.503906"/><stop stop-opacity="1" stop-color="rgb(41.026306%, 35.888672%, 79.362488%)" offset="0.507812"/><stop stop-opacity="1" stop-color="rgb(41.740417%, 36.00769%, 79.562378%)" offset="0.511719"/><stop stop-opacity="1" stop-color="rgb(42.454529%, 36.128235%, 79.763794%)" offset="0.515625"/><stop stop-opacity="1" stop-color="rgb(43.16864%, 36.247253%, 79.963684%)" offset="0.519531"/><stop stop-opacity="1" stop-color="rgb(43.882751%, 36.367798%, 80.1651%)" offset="0.523437"/><stop stop-opacity="1" stop-color="rgb(44.596863%, 36.486816%, 80.36499%)" offset="0.527344"/><stop stop-opacity="1" stop-color="rgb(45.310974%, 36.605835%, 80.566406%)" offset="0.53125"/><stop stop-opacity="1" stop-color="rgb(46.02356%, 36.724854%, 80.766296%)" offset="0.535156"/><stop stop-opacity="1" stop-color="rgb(46.737671%, 36.845398%, 80.966187%)" offset="0.539062"/><stop stop-opacity="1" stop-color="rgb(47.451782%, 36.964417%, 81.166077%)" offset="0.542969"/><stop stop-opacity="1" stop-color="rgb(48.165894%, 37.084961%, 81.367493%)" offset="0.546875"/><stop stop-opacity="1" stop-color="rgb(48.880005%, 37.203979%, 81.567383%)" offset="0.550781"/><stop stop-opacity="1" stop-color="rgb(49.594116%, 37.322998%, 81.768799%)" offset="0.554687"/><stop stop-opacity="1" stop-color="rgb(50.308228%, 37.442017%, 81.968689%)" offset="0.558594"/><stop stop-opacity="1" stop-color="rgb(51.022339%, 37.562561%, 82.170105%)" offset="0.5625"/><stop stop-opacity="1" stop-color="rgb(51.73645%, 37.68158%, 82.369995%)" offset="0.566406"/><stop stop-opacity="1" stop-color="rgb(52.450562%, 37.802124%, 82.571411%)" offset="0.570312"/><stop stop-opacity="1" stop-color="rgb(53.163147%, 37.921143%, 82.771301%)" offset="0.574219"/><stop stop-opacity="1" stop-color="rgb(53.877258%, 38.040161%, 82.972717%)" offset="0.578125"/><stop stop-opacity="1" stop-color="rgb(54.59137%, 38.15918%, 83.172607%)" offset="0.582031"/><stop stop-opacity="1" stop-color="rgb(55.305481%, 38.279724%, 83.372498%)" offset="0.585937"/><stop stop-opacity="1" stop-color="rgb(56.019592%, 38.398743%, 83.572388%)" offset="0.589844"/><stop stop-opacity="1" stop-color="rgb(56.733704%, 38.519287%, 83.773804%)" offset="0.59375"/><stop stop-opacity="1" stop-color="rgb(57.447815%, 38.638306%, 83.973694%)" offset="0.597656"/><stop stop-opacity="1" stop-color="rgb(58.161926%, 38.757324%, 84.17511%)" offset="0.601562"/><stop stop-opacity="1" stop-color="rgb(58.876038%, 38.876343%, 84.375%)" offset="0.605469"/><stop stop-opacity="1" stop-color="rgb(59.590149%, 38.996887%, 84.576416%)" offset="0.609375"/><stop stop-opacity="1" stop-color="rgb(60.30426%, 39.115906%, 84.776306%)" offset="0.613281"/><stop stop-opacity="1" stop-color="rgb(61.018372%, 39.23645%, 84.977722%)" offset="0.617187"/><stop stop-opacity="1" stop-color="rgb(61.730957%, 39.355469%, 85.177612%)" offset="0.621094"/><stop stop-opacity="1" stop-color="rgb(62.445068%, 39.476013%, 85.379028%)" offset="0.625"/><stop stop-opacity="1" stop-color="rgb(63.15918%, 39.595032%, 85.578918%)" offset="0.628906"/><stop stop-opacity="1" stop-color="rgb(63.873291%, 39.71405%, 85.778809%)" offset="0.632812"/><stop stop-opacity="1" stop-color="rgb(64.587402%, 39.833069%, 85.978699%)" offset="0.636719"/><stop stop-opacity="1" stop-color="rgb(65.301514%, 39.953613%, 86.180115%)" offset="0.640625"/><stop stop-opacity="1" stop-color="rgb(66.015625%, 40.072632%, 86.380005%)" offset="0.644531"/><stop stop-opacity="1" stop-color="rgb(66.729736%, 40.193176%, 86.581421%)" offset="0.648437"/><stop stop-opacity="1" stop-color="rgb(67.443848%, 40.312195%, 86.781311%)" offset="0.652344"/><stop stop-opacity="1" stop-color="rgb(68.157959%, 40.431213%, 86.982727%)" offset="0.65625"/><stop stop-opacity="1" stop-color="rgb(68.870544%, 40.550232%, 87.182617%)" offset="0.660156"/><stop stop-opacity="1" stop-color="rgb(69.584656%, 40.670776%, 87.384033%)" offset="0.664062"/><stop stop-opacity="1" stop-color="rgb(70.298767%, 40.789795%, 87.583923%)" offset="0.667969"/><stop stop-opacity="1" stop-color="rgb(71.012878%, 40.910339%, 87.785339%)" offset="0.671875"/><stop stop-opacity="1" stop-color="rgb(71.72699%, 41.029358%, 87.985229%)" offset="0.675781"/><stop stop-opacity="1" stop-color="rgb(72.441101%, 41.148376%, 88.186646%)" offset="0.679687"/><stop stop-opacity="1" stop-color="rgb(73.155212%, 41.267395%, 88.386536%)" offset="0.683594"/><stop stop-opacity="1" stop-color="rgb(73.869324%, 41.387939%, 88.586426%)" offset="0.6875"/><stop stop-opacity="1" stop-color="rgb(74.583435%, 41.506958%, 88.786316%)" offset="0.691406"/><stop stop-opacity="1" stop-color="rgb(75.297546%, 41.627502%, 88.987732%)" offset="0.695312"/><stop stop-opacity="1" stop-color="rgb(76.010132%, 41.746521%, 89.187622%)" offset="0.699219"/><stop stop-opacity="1" stop-color="rgb(76.724243%, 41.86554%, 89.389038%)" offset="0.703125"/><stop stop-opacity="1" stop-color="rgb(77.438354%, 41.984558%, 89.588928%)" offset="0.707031"/><stop stop-opacity="1" stop-color="rgb(78.152466%, 42.105103%, 89.790344%)" offset="0.710937"/><stop stop-opacity="1" stop-color="rgb(78.866577%, 42.224121%, 89.990234%)" offset="0.714844"/><stop stop-opacity="1" stop-color="rgb(79.580688%, 42.344666%, 90.19165%)" offset="0.71875"/><stop stop-opacity="1" stop-color="rgb(79.594421%, 42.346191%, 90.194702%)" offset="0.75"/><stop stop-opacity="1" stop-color="rgb(79.60968%, 42.349243%, 90.19928%)" offset="1"/></linearGradient><clipPath id="4fc8006088"><rect x="0" width="127" y="0" height="38"/></clipPath><clipPath id="e92d9c3c6d"><path d="M 0.59375 0 L 126.414062 0 L 126.414062 37.007812 L 0.59375 37.007812 Z M 0.59375 0 " clip-rule="nonzero"/></clipPath><clipPath id="dbdffebee1"><rect x="0" width="127" y="0" height="38"/></clipPath><clipPath id="5a2700e7e4"><rect x="0" width="127" y="0" height="38"/></clipPath><mask id="5be4e6d590"><g filter="url(#5e89e1580f)"><g transform="matrix(1, 0, 0, 1, 0.000000000000000111, -0.000000000000001478)"><g clip-path="url(#5a2700e7e4)"><g clip-path="url(#e92d9c3c6d)"><g transform="matrix(1, 0, 0, 1, 0.000000000000000111, -0.000000000000001478)"><g clip-path="url(#dbdffebee1)"><g fill="#000000" fill-opacity="1"><g transform="translate(46.223279, 23.46267)"><g><path d="M 4.296875 -10.375 C 5.015625 -10.375 5.65625 -10.25 6.21875 -10 C 6.789062 -9.75 7.234375 -9.378906 7.546875 -8.890625 C 7.867188 -8.410156 8.03125 -7.816406 8.03125 -7.109375 C 8.03125 -6.703125 7.96875 -6.296875 7.84375 -5.890625 C 7.71875 -5.492188 7.519531 -5.132812 7.25 -4.8125 C 6.976562 -4.488281 6.613281 -4.226562 6.15625 -4.03125 C 5.707031 -3.832031 5.15625 -3.734375 4.5 -3.734375 L 2.96875 -3.734375 L 2.96875 0 L 1.46875 0 L 1.46875 -10.375 Z M 4.46875 -5.1875 C 5 -5.1875 5.410156 -5.285156 5.703125 -5.484375 C 5.992188 -5.691406 6.195312 -5.941406 6.3125 -6.234375 C 6.425781 -6.523438 6.484375 -6.800781 6.484375 -7.0625 C 6.484375 -7.25 6.445312 -7.445312 6.375 -7.65625 C 6.3125 -7.875 6.207031 -8.082031 6.0625 -8.28125 C 5.914062 -8.476562 5.71875 -8.632812 5.46875 -8.75 C 5.21875 -8.875 4.910156 -8.9375 4.546875 -8.9375 L 2.96875 -8.9375 L 2.96875 -5.1875 Z M 6.21875 -4.296875 L 8.90625 0 L 7.15625 0 L 4.421875 -4.265625 Z M 6.21875 -4.296875 "/></g></g></g><g fill="#000000" fill-opacity="1"><g transform="translate(55.722036, 23.46267)"><g><path d="M 3.046875 0.25 C 2.492188 0.25 2.039062 0.0820312 1.6875 -0.25 C 1.332031 -0.59375 1.144531 -1.023438 1.125 -1.546875 L 1.125 -5.984375 L 2.578125 -5.984375 L 2.578125 -2.0625 C 2.597656 -1.75 2.6875 -1.492188 2.84375 -1.296875 C 3.007812 -1.109375 3.269531 -1.003906 3.625 -0.984375 C 3.945312 -0.984375 4.234375 -1.082031 4.484375 -1.28125 C 4.742188 -1.476562 4.945312 -1.75 5.09375 -2.09375 C 5.25 -2.4375 5.328125 -2.820312 5.328125 -3.25 L 5.328125 -5.984375 L 6.765625 -5.984375 L 6.765625 0 L 5.46875 0 L 5.359375 -1.40625 L 5.40625 -1.171875 C 5.226562 -0.765625 4.925781 -0.425781 4.5 -0.15625 C 4.070312 0.113281 3.585938 0.25 3.046875 0.25 Z M 3.046875 0.25 "/></g></g></g><g fill="#000000" fill-opacity="1"><g transform="translate(63.632893, 23.46267)"><g><path d="M 1.125 -11.125 L 2.578125 -11.125 L 2.578125 0 L 1.125 0 Z M 1.125 -11.125 "/></g></g></g><g fill="#000000" fill-opacity="1"><g transform="translate(67.337977, 23.46267)"><g><path d="M 3.9375 0.140625 C 3.25 0.140625 2.65625 0.00390625 2.15625 -0.265625 C 1.664062 -0.535156 1.285156 -0.910156 1.015625 -1.390625 C 0.742188 -1.878906 0.609375 -2.425781 0.609375 -3.03125 C 0.609375 -3.625 0.757812 -4.160156 1.0625 -4.640625 C 1.363281 -5.128906 1.765625 -5.515625 2.265625 -5.796875 C 2.773438 -6.078125 3.34375 -6.21875 3.96875 -6.21875 C 4.769531 -6.21875 5.429688 -5.988281 5.953125 -5.53125 C 6.484375 -5.070312 6.84375 -4.421875 7.03125 -3.578125 L 2.140625 -1.890625 L 1.796875 -2.71875 L 5.71875 -4.15625 L 5.421875 -3.953125 C 5.304688 -4.253906 5.125 -4.515625 4.875 -4.734375 C 4.632812 -4.960938 4.296875 -5.078125 3.859375 -5.078125 C 3.328125 -5.078125 2.890625 -4.894531 2.546875 -4.53125 C 2.210938 -4.164062 2.046875 -3.695312 2.046875 -3.125 C 2.046875 -2.507812 2.226562 -2.015625 2.59375 -1.640625 C 2.957031 -1.273438 3.414062 -1.09375 3.96875 -1.09375 C 4.21875 -1.09375 4.460938 -1.132812 4.703125 -1.21875 C 4.941406 -1.3125 5.164062 -1.4375 5.375 -1.59375 L 6.046875 -0.515625 C 5.734375 -0.316406 5.394531 -0.15625 5.03125 -0.03125 C 4.664062 0.0820312 4.300781 0.140625 3.9375 0.140625 Z M 3.9375 0.140625 "/></g></g></g><g fill="#000000" fill-opacity="1"><g transform="translate(74.848286, 23.46267)"><g><path d="M 2.859375 0.125 C 2.421875 0.125 2 0.046875 1.59375 -0.109375 C 1.195312 -0.265625 0.863281 -0.488281 0.59375 -0.78125 L 1.203125 -1.625 C 1.453125 -1.382812 1.710938 -1.203125 1.984375 -1.078125 C 2.253906 -0.953125 2.507812 -0.890625 2.75 -0.890625 C 3.019531 -0.890625 3.257812 -0.941406 3.46875 -1.046875 C 3.6875 -1.160156 3.796875 -1.347656 3.796875 -1.609375 C 3.796875 -1.816406 3.722656 -1.976562 3.578125 -2.09375 C 3.441406 -2.207031 3.269531 -2.300781 3.0625 -2.375 C 2.851562 -2.445312 2.628906 -2.519531 2.390625 -2.59375 C 1.890625 -2.75 1.507812 -2.976562 1.25 -3.28125 C 0.988281 -3.582031 0.859375 -3.9375 0.859375 -4.34375 C 0.859375 -4.664062 0.9375 -4.96875 1.09375 -5.25 C 1.25 -5.53125 1.488281 -5.757812 1.8125 -5.9375 C 2.132812 -6.113281 2.535156 -6.203125 3.015625 -6.203125 C 3.441406 -6.203125 3.820312 -6.148438 4.15625 -6.046875 C 4.488281 -5.941406 4.796875 -5.769531 5.078125 -5.53125 L 4.515625 -4.671875 C 4.347656 -4.835938 4.144531 -4.96875 3.90625 -5.0625 C 3.675781 -5.15625 3.46875 -5.203125 3.28125 -5.203125 C 3.019531 -5.203125 2.789062 -5.144531 2.59375 -5.03125 C 2.40625 -4.914062 2.3125 -4.753906 2.3125 -4.546875 C 2.3125 -4.347656 2.378906 -4.1875 2.515625 -4.0625 C 2.648438 -3.945312 2.820312 -3.851562 3.03125 -3.78125 C 3.25 -3.707031 3.46875 -3.632812 3.6875 -3.5625 C 4.125 -3.414062 4.488281 -3.21875 4.78125 -2.96875 C 5.070312 -2.726562 5.21875 -2.367188 5.21875 -1.890625 C 5.21875 -1.523438 5.128906 -1.1875 4.953125 -0.875 C 4.785156 -0.570312 4.523438 -0.328125 4.171875 -0.140625 C 3.828125 0.0351562 3.390625 0.125 2.859375 0.125 Z M 2.859375 0.125 "/></g></g></g></g></g></g></g></g></g></mask><clipPath id="720ef63303"><path d="M 17.472656 0 L 109.25 0 L 109.25 37.007812 L 17.472656 37.007812 Z M 17.472656 0 " clip-rule="nonzero"/></clipPath><clipPath id="cc20b52672"><rect x="0" width="127" y="0" height="38"/></clipPath><clipPath id="7a309bd197"><rect x="0" width="127" y="0" height="38"/></clipPath></defs><g clip-path="url(#65202baeda)"><path fill="#ff9999" d="M 109.375 12.859375 C 111.378906 12.179688 112.847656 12.722656 113.632812 14.683594 C 113.769531 15.027344 113.738281 15.425781 113.882812 15.753906 C 114.191406 16.457031 115.742188 17.414062 116.457031 17.722656 L 119.046875 18.574219 C 117.570312 18.726562 114.554688 19.867188 113.886719 21.257812 C 113.625 21.800781 113.679688 22.421875 113.308594 23.023438 C 112.441406 24.421875 110.851562 24.816406 109.375 24.148438 C 109.292969 24.234375 109.90625 26.054688 109.945312 26.433594 C 110.179688 28.753906 108.523438 30.582031 106.230469 30.746094 L 68.570312 30.753906 C 65.671875 31.324219 64.332031 33.910156 63.425781 36.457031 C 62.828125 33.828125 61.074219 31.316406 58.285156 30.753906 L 20.769531 30.75 C 17.09375 30.472656 16.308594 27.152344 17.625 24.148438 C 16.214844 24.738281 14.453125 24.476562 13.636719 23.078125 C 13.285156 22.476562 13.292969 21.742188 12.996094 21.226562 C 12.183594 19.800781 9.503906 18.828125 7.953125 18.574219 L 10.542969 17.722656 C 11.367188 17.367188 12.769531 16.441406 13.113281 15.601562 C 13.324219 15.082031 13.28125 14.636719 13.605469 14.042969 C 14.371094 12.628906 16.242188 12.125 17.625 13.007812 C 16.570312 10.253906 16.695312 7.234375 19.964844 6.332031 L 58.132812 6.25 C 60.964844 5.820312 62.828125 3.1875 63.355469 0.550781 C 63.5625 0.566406 63.585938 0.765625 63.652344 0.910156 C 64.78125 3.371094 65.566406 5.738281 68.71875 6.25 L 106.230469 6.257812 C 108.53125 6.363281 110.183594 8.257812 109.945312 10.574219 C 109.90625 10.953125 109.292969 12.773438 109.375 12.859375 M 63.644531 3.042969 C 63.574219 2.976562 63.441406 3.023438 63.339844 3.132812 C 63.046875 3.457031 62.707031 4.261719 62.324219 4.722656 C 61.242188 6.019531 59.84375 6.933594 58.132812 7.125 L 20.484375 7.144531 C 16.777344 7.5625 17.355469 12.945312 20.453125 12.242188 C 21.25 12.0625 21.996094 11.03125 21.214844 10.371094 C 20.835938 10.3125 21.054688 10.792969 20.917969 11.097656 C 20.585938 11.863281 19.417969 11.585938 18.9375 11.035156 C 17.8125 9.757812 19.175781 7.988281 20.628906 7.875 L 58.425781 7.859375 C 59.359375 7.660156 60.28125 7.375 61.085938 6.855469 C 62.054688 6.222656 62.699219 5.238281 63.570312 4.503906 C 64.632812 6.289062 66.492188 7.550781 68.558594 7.875 L 106.503906 7.890625 C 108.910156 8.214844 108.921875 11.695312 106.8125 11.546875 C 106.09375 11.5 105.820312 11.058594 105.855469 10.367188 C 104.90625 10.925781 105.550781 12.003906 106.433594 12.210938 C 107.492188 12.460938 108.851562 11.609375 109.046875 10.554688 C 109.351562 8.902344 108.324219 7.609375 106.773438 7.179688 L 68.851562 7.140625 C 66.546875 6.9375 64.421875 5.1875 63.644531 3.039062 M 19.382812 13.742188 C 21.554688 14.132812 23.578125 12.496094 22.976562 10.21875 C 22.632812 8.90625 20.695312 8.21875 19.742188 9.332031 C 19.257812 9.898438 19.230469 10.78125 20.117188 10.808594 C 19.734375 9.242188 21.875 9.144531 22.25 10.359375 C 22.730469 11.9375 21.433594 13.128906 19.921875 13.097656 C 19.359375 13.085938 18.894531 12.753906 18.355469 12.714844 C 18.972656 14.121094 19.058594 16.707031 17.292969 17.292969 C 14.769531 18.125 13.957031 14.808594 15.710938 14.246094 C 17.609375 13.632812 17.542969 16.511719 16.347656 15.980469 C 15.605469 15.648438 16.496094 15.238281 16.304688 15.058594 C 15.945312 14.71875 14.929688 15.910156 16.125 16.492188 C 17.84375 17.332031 18.929688 13.808594 16.515625 13.457031 C 14.011719 13.089844 14.414062 15.539062 13.300781 16.820312 C 12.691406 17.523438 11.78125 17.972656 11.03125 18.503906 C 11.851562 19.144531 13.417969 19.992188 13.847656 20.960938 C 14.261719 21.886719 14.089844 23.226562 15.53125 23.527344 C 18.320312 24.105469 18.605469 20.664062 16.78125 20.359375 C 15.230469 20.101562 15.359375 22.507812 16.304688 22.023438 C 16.667969 21.835938 15.96875 21.597656 16.019531 21.304688 C 16.152344 20.578125 17.53125 20.996094 17.238281 22.0625 C 16.855469 23.472656 14.40625 22.925781 14.753906 21.0625 C 15.109375 19.160156 17.867188 19.101562 18.574219 20.921875 C 19.035156 22.109375 18.625 23.105469 18.503906 24.292969 C 20.152344 23.386719 22.730469 24.179688 22.28125 26.382812 C 21.988281 27.820312 19.667969 27.78125 20.117188 26.199219 C 19.265625 26.207031 19.289062 27.152344 19.742188 27.671875 C 20.753906 28.84375 22.746094 27.960938 23.015625 26.53125 C 23.4375 24.257812 21.476562 22.953125 19.382812 23.265625 C 20.351562 20.335938 17.144531 17.257812 14.609375 19.746094 C 14.414062 19.9375 14.449219 20.296875 14.183594 20.1875 C 14.066406 20.140625 12.859375 18.582031 12.347656 18.503906 C 12.949219 18.136719 13.492188 17.703125 13.964844 17.179688 C 14.070312 17.0625 14.09375 16.832031 14.109375 16.820312 C 14.386719 16.605469 14.425781 17.050781 14.542969 17.179688 C 16.9375 19.832031 20.378906 16.703125 19.382812 13.742188 M 106.882812 10.664062 C 107.273438 11.035156 107.707031 10.136719 107.304688 9.433594 C 106.644531 8.269531 104.789062 8.792969 104.175781 9.789062 C 102.871094 11.917969 105.253906 14.242188 107.46875 13.738281 C 107.503906 14.375 107.398438 15.058594 107.503906 15.683594 C 107.9375 18.25 111.285156 19.128906 112.671875 16.820312 C 112.957031 16.738281 112.898438 17.042969 113.101562 17.261719 C 113.535156 17.71875 114.019531 18.105469 114.5 18.503906 L 112.671875 20.1875 C 110.195312 17.0625 106.78125 19.894531 107.46875 23.269531 C 105.933594 22.992188 104.1875 23.851562 103.867188 25.457031 C 103.535156 27.113281 105.09375 28.800781 106.734375 28.03125 C 107.804688 27.527344 107.5625 26.097656 106.957031 26.199219 C 106.578125 26.261719 107.136719 26.863281 106.585938 27.292969 C 105.421875 28.199219 103.605469 26.113281 105.191406 24.582031 C 106.121094 23.683594 107.394531 23.816406 108.492188 24.292969 C 107.917969 22.609375 107.957031 19.589844 110.328125 19.589844 C 113.011719 19.589844 112.5 23.433594 110.390625 22.761719 C 109.425781 22.453125 109.523438 21 110.332031 20.917969 C 111.210938 20.824219 110.589844 21.847656 110.695312 21.945312 C 111.339844 22.558594 111.796875 20.058594 110.101562 20.390625 C 108.359375 20.738281 108.644531 24.082031 111.320312 23.527344 C 112.730469 23.234375 112.621094 22.050781 113.007812 21.109375 C 113.445312 20.046875 115.054688 18.96875 116.113281 18.574219 L 114.515625 17.613281 C 113.234375 16.636719 113.320312 16.238281 112.820312 14.914062 C 112.242188 13.386719 110.210938 12.761719 109.253906 14.277344 C 108.613281 15.292969 109.335938 16.765625 110.4375 16.644531 C 111.90625 16.484375 111.09375 14.5625 110.546875 15.058594 C 110.363281 15.230469 111.128906 15.5625 110.628906 15.949219 C 109.78125 16.601562 109.125 14.578125 110.359375 14.210938 C 112.433594 13.59375 112.957031 17.167969 110.621094 17.40625 C 107.992188 17.679688 107.867188 14.546875 108.496094 12.714844 C 107.382812 13.191406 106.132812 13.324219 105.191406 12.425781 C 103.265625 10.597656 106.121094 8.40625 106.816406 10.074219 C 106.890625 10.25 106.863281 10.644531 106.882812 10.664062 M 21.390625 26.449219 C 22.292969 25.257812 19.605469 23.730469 18.292969 25.621094 C 17.132812 27.300781 18.371094 29.414062 20.222656 29.828125 L 58.148438 29.863281 C 60.496094 30.1875 62.460938 31.796875 63.355469 33.964844 C 64.664062 32 66.078125 30.265625 68.570312 29.878906 L 106.371094 29.863281 C 108.1875 29.589844 109.578125 28 108.941406 26.117188 C 108.519531 24.867188 106.492188 24.15625 105.640625 25.320312 C 105.28125 25.8125 105.285156 26.570312 106.003906 26.636719 C 105.757812 26.039062 106.019531 25.570312 106.675781 25.472656 C 108.960938 25.128906 108.992188 28.757812 106.355469 29.117188 L 68.277344 29.140625 C 66.324219 29.574219 64.566406 30.765625 63.570312 32.503906 C 62.964844 32.019531 62.652344 31.34375 62.035156 30.8125 C 61.074219 29.988281 59.5625 29.246094 58.292969 29.132812 L 20.496094 29.117188 C 18.996094 28.929688 17.820312 27.003906 19.082031 25.824219 C 19.867188 25.09375 21.199219 25.464844 20.996094 26.636719 C 21.011719 26.65625 21.363281 26.484375 21.390625 26.449219 " fill-opacity="1" fill-rule="nonzero"/></g><g clip-path="url(#22739eb5bb)"><g transform="matrix(1, 0, 0, 1, 0.000000000000000111, -0.000000000000001478)"><g clip-path="url(#7a309bd197)"><g clip-path="url(#3dcb83080d)"><g mask="url(#5be4e6d590)"><g transform="matrix(1, 0, 0, 1, 0.000000000000000111, -0.000000000000001478)"><g clip-path="url(#cc20b52672)"><g clip-path="url(#720ef63303)"><path fill="url(#3f8f374a67)" d="M 17.472656 0 L 17.472656 37.007812 L 109.25 37.007812 L 109.25 0 Z M 17.472656 0 " fill-rule="nonzero"/></g></g></g></g></g></g></g></g></svg>