<svg xmlns="http://www.w3.org/2000/svg" xmlns:xlink="http://www.w3.org/1999/xlink" width="170" zoomAndPan="magnify" viewBox="0 0 127.5 37.5" height="50" preserveAspectRatio="xMidYMid meet" version="1.0"><defs><filter x="0%" y="0%" width="100%" height="100%" id="bb84cc40eb"><feColorMatrix values="0 0 0 0 1 0 0 0 0 1 0 0 0 0 1 0 0 0 1 0" color-interpolation-filters="sRGB"/></filter><g/><clipPath id="2ab0a1dd4e"><path d="M 7.902344 0.550781 L 118.921875 0.550781 L 118.921875 36.816406 L 7.902344 36.816406 Z M 7.902344 0.550781 " clip-rule="nonzero"/></clipPath><clipPath id="a7a38dda24"><path d="M 0.59375 0 L 126.414062 0 L 126.414062 37.007812 L 0.59375 37.007812 Z M 0.59375 0 " clip-rule="nonzero"/></clipPath><clipPath id="b486f5f10b"><path d="M 0.59375 0 L 126.414062 0 L 126.414062 37.007812 L 0.59375 37.007812 Z M 0.59375 0 " clip-rule="nonzero"/></clipPath><clipPath id="23b8e022cf"><path d="M 6.371094 0 L 120.351562 0 L 120.351562 37.007812 L 6.371094 37.007812 Z M 6.371094 0 " clip-rule="nonzero"/></clipPath><linearGradient x1="6.123103" gradientTransform="matrix(0.739361, 0, 0, 0.744543, 21.07977, 8.597856)" y1="-37.563431" x2="108.055952" gradientUnits="userSpaceOnUse" y2="64.367486" id="d89d5c3035"><stop stop-opacity="1" stop-color="rgb(0%, 29.019165%, 67.83905%)" offset="0"/><stop stop-opacity="1" stop-color="rgb(0%, 29.019165%, 67.83905%)" offset="0.125"/><stop stop-opacity="1" stop-color="rgb(0%, 29.019165%, 67.83905%)" offset="0.1875"/><stop stop-opacity="1" stop-color="rgb(0%, 29.019165%, 67.83905%)" offset="0.21875"/><stop stop-opacity="1" stop-color="rgb(0%, 29.019165%, 67.83905%)" offset="0.234375"/><stop stop-opacity="1" stop-color="rgb(0.050354%, 29.026794%, 67.852783%)" offset="0.242188"/><stop stop-opacity="1" stop-color="rgb(0.700378%, 29.136658%, 68.035889%)" offset="0.246094"/><stop stop-opacity="1" stop-color="rgb(1.300049%, 29.237366%, 68.205261%)" offset="0.25"/><stop stop-opacity="1" stop-color="rgb(1.899719%, 29.336548%, 68.373108%)" offset="0.253906"/><stop stop-opacity="1" stop-color="rgb(2.49939%, 29.437256%, 68.540955%)" offset="0.257812"/><stop stop-opacity="1" stop-color="rgb(3.097534%, 29.537964%, 68.708801%)" offset="0.261719"/><stop stop-opacity="1" stop-color="rgb(3.697205%, 29.638672%, 68.878174%)" offset="0.265625"/><stop stop-opacity="1" stop-color="rgb(4.296875%, 29.737854%, 69.046021%)" offset="0.269531"/><stop stop-opacity="1" stop-color="rgb(4.896545%, 29.838562%, 69.213867%)" offset="0.273438"/><stop stop-opacity="1" stop-color="rgb(5.49469%, 29.93927%, 69.381714%)" offset="0.277344"/><stop stop-opacity="1" stop-color="rgb(6.09436%, 30.039978%, 69.551086%)" offset="0.28125"/><stop stop-opacity="1" stop-color="rgb(6.694031%, 30.13916%, 69.718933%)" offset="0.285156"/><stop stop-opacity="1" stop-color="rgb(7.293701%, 30.239868%, 69.888306%)" offset="0.289062"/><stop stop-opacity="1" stop-color="rgb(7.891846%, 30.340576%, 70.056152%)" offset="0.292969"/><stop stop-opacity="1" stop-color="rgb(8.491516%, 30.441284%, 70.223999%)" offset="0.296875"/><stop stop-opacity="1" stop-color="rgb(9.091187%, 30.541992%, 70.391846%)" offset="0.300781"/><stop stop-opacity="1" stop-color="rgb(9.690857%, 30.6427%, 70.561218%)" offset="0.304688"/><stop stop-opacity="1" stop-color="rgb(10.289001%, 30.741882%, 70.729065%)" offset="0.308594"/><stop stop-opacity="1" stop-color="rgb(10.888672%, 30.84259%, 70.898438%)" offset="0.3125"/><stop stop-opacity="1" stop-color="rgb(11.488342%, 30.943298%, 71.066284%)" offset="0.316406"/><stop stop-opacity="1" stop-color="rgb(12.088013%, 31.044006%, 71.234131%)" offset="0.320312"/><stop stop-opacity="1" stop-color="rgb(12.687683%, 31.143188%, 71.401978%)" offset="0.324219"/><stop stop-opacity="1" stop-color="rgb(13.287354%, 31.243896%, 71.57135%)" offset="0.328125"/><stop stop-opacity="1" stop-color="rgb(13.885498%, 31.344604%, 71.739197%)" offset="0.332031"/><stop stop-opacity="1" stop-color="rgb(14.485168%, 31.445312%, 71.908569%)" offset="0.335938"/><stop stop-opacity="1" stop-color="rgb(15.084839%, 31.544495%, 72.076416%)" offset="0.339844"/><stop stop-opacity="1" stop-color="rgb(15.684509%, 31.645203%, 72.244263%)" offset="0.34375"/><stop stop-opacity="1" stop-color="rgb(16.282654%, 31.745911%, 72.412109%)" offset="0.347656"/><stop stop-opacity="1" stop-color="rgb(16.882324%, 31.846619%, 72.581482%)" offset="0.351562"/><stop stop-opacity="1" stop-color="rgb(17.481995%, 31.945801%, 72.749329%)" offset="0.355469"/><stop stop-opacity="1" stop-color="rgb(18.081665%, 32.046509%, 72.917175%)" offset="0.359375"/><stop stop-opacity="1" stop-color="rgb(18.67981%, 32.147217%, 73.085022%)" offset="0.363281"/><stop stop-opacity="1" stop-color="rgb(19.27948%, 32.247925%, 73.254395%)" offset="0.367188"/><stop stop-opacity="1" stop-color="rgb(19.87915%, 32.347107%, 73.422241%)" offset="0.371094"/><stop stop-opacity="1" stop-color="rgb(20.478821%, 32.447815%, 73.591614%)" offset="0.375"/><stop stop-opacity="1" stop-color="rgb(21.076965%, 32.548523%, 73.75946%)" offset="0.378906"/><stop stop-opacity="1" stop-color="rgb(21.676636%, 32.649231%, 73.927307%)" offset="0.382812"/><stop stop-opacity="1" stop-color="rgb(22.276306%, 32.748413%, 74.095154%)" offset="0.386719"/><stop stop-opacity="1" stop-color="rgb(22.875977%, 32.849121%, 74.264526%)" offset="0.390625"/><stop stop-opacity="1" stop-color="rgb(23.474121%, 32.949829%, 74.432373%)" offset="0.394531"/><stop stop-opacity="1" stop-color="rgb(24.073792%, 33.050537%, 74.601746%)" offset="0.398438"/><stop stop-opacity="1" stop-color="rgb(24.673462%, 33.149719%, 74.769592%)" offset="0.402344"/><stop stop-opacity="1" stop-color="rgb(25.273132%, 33.250427%, 74.937439%)" offset="0.40625"/><stop stop-opacity="1" stop-color="rgb(25.871277%, 33.351135%, 75.105286%)" offset="0.410156"/><stop stop-opacity="1" stop-color="rgb(26.470947%, 33.451843%, 75.274658%)" offset="0.414062"/><stop stop-opacity="1" stop-color="rgb(27.070618%, 33.552551%, 75.442505%)" offset="0.417969"/><stop stop-opacity="1" stop-color="rgb(27.670288%, 33.653259%, 75.611877%)" offset="0.421875"/><stop stop-opacity="1" stop-color="rgb(28.269958%, 33.752441%, 75.779724%)" offset="0.425781"/><stop stop-opacity="1" stop-color="rgb(28.869629%, 33.853149%, 75.947571%)" offset="0.429688"/><stop stop-opacity="1" stop-color="rgb(29.467773%, 33.953857%, 76.115417%)" offset="0.433594"/><stop stop-opacity="1" stop-color="rgb(30.067444%, 34.054565%, 76.28479%)" offset="0.4375"/><stop stop-opacity="1" stop-color="rgb(30.667114%, 34.153748%, 76.452637%)" offset="0.441406"/><stop stop-opacity="1" stop-color="rgb(31.266785%, 34.254456%, 76.620483%)" offset="0.445312"/><stop stop-opacity="1" stop-color="rgb(31.864929%, 34.355164%, 76.78833%)" offset="0.449219"/><stop stop-opacity="1" stop-color="rgb(32.4646%, 34.455872%, 76.957703%)" offset="0.453125"/><stop stop-opacity="1" stop-color="rgb(33.06427%, 34.555054%, 77.125549%)" offset="0.457031"/><stop stop-opacity="1" stop-color="rgb(33.66394%, 34.655762%, 77.294922%)" offset="0.460938"/><stop stop-opacity="1" stop-color="rgb(34.262085%, 34.75647%, 77.462769%)" offset="0.464844"/><stop stop-opacity="1" stop-color="rgb(34.861755%, 34.857178%, 77.630615%)" offset="0.46875"/><stop stop-opacity="1" stop-color="rgb(35.461426%, 34.95636%, 77.798462%)" offset="0.472656"/><stop stop-opacity="1" stop-color="rgb(36.061096%, 35.057068%, 77.967834%)" offset="0.476562"/><stop stop-opacity="1" stop-color="rgb(36.659241%, 35.157776%, 78.135681%)" offset="0.480469"/><stop stop-opacity="1" stop-color="rgb(37.258911%, 35.258484%, 78.305054%)" offset="0.484375"/><stop stop-opacity="1" stop-color="rgb(37.858582%, 35.357666%, 78.4729%)" offset="0.488281"/><stop stop-opacity="1" stop-color="rgb(38.458252%, 35.458374%, 78.640747%)" offset="0.492188"/><stop stop-opacity="1" stop-color="rgb(39.056396%, 35.559082%, 78.808594%)" offset="0.496094"/><stop stop-opacity="1" stop-color="rgb(39.656067%, 35.65979%, 78.977966%)" offset="0.5"/><stop stop-opacity="1" stop-color="rgb(40.255737%, 35.758972%, 79.145813%)" offset="0.503906"/><stop stop-opacity="1" stop-color="rgb(40.855408%, 35.85968%, 79.315186%)" offset="0.507813"/><stop stop-opacity="1" stop-color="rgb(41.455078%, 35.960388%, 79.483032%)" offset="0.511719"/><stop stop-opacity="1" stop-color="rgb(42.054749%, 36.061096%, 79.650879%)" offset="0.515625"/><stop stop-opacity="1" stop-color="rgb(42.652893%, 36.160278%, 79.818726%)" offset="0.519531"/><stop stop-opacity="1" stop-color="rgb(43.252563%, 36.260986%, 79.988098%)" offset="0.523438"/><stop stop-opacity="1" stop-color="rgb(43.852234%, 36.361694%, 80.155945%)" offset="0.527344"/><stop stop-opacity="1" stop-color="rgb(44.451904%, 36.462402%, 80.323792%)" offset="0.53125"/><stop stop-opacity="1" stop-color="rgb(45.050049%, 36.56311%, 80.491638%)" offset="0.535156"/><stop stop-opacity="1" stop-color="rgb(45.649719%, 36.663818%, 80.661011%)" offset="0.539063"/><stop stop-opacity="1" stop-color="rgb(46.24939%, 36.763%, 80.828857%)" offset="0.542969"/><stop stop-opacity="1" stop-color="rgb(46.84906%, 36.863708%, 80.99823%)" offset="0.546875"/><stop stop-opacity="1" stop-color="rgb(47.447205%, 36.964417%, 81.166077%)" offset="0.550781"/><stop stop-opacity="1" stop-color="rgb(48.046875%, 37.065125%, 81.333923%)" offset="0.554688"/><stop stop-opacity="1" stop-color="rgb(48.646545%, 37.164307%, 81.50177%)" offset="0.558594"/><stop stop-opacity="1" stop-color="rgb(49.246216%, 37.265015%, 81.671143%)" offset="0.5625"/><stop stop-opacity="1" stop-color="rgb(49.84436%, 37.365723%, 81.838989%)" offset="0.566406"/><stop stop-opacity="1" stop-color="rgb(50.444031%, 37.466431%, 82.008362%)" offset="0.570313"/><stop stop-opacity="1" stop-color="rgb(51.043701%, 37.565613%, 82.176208%)" offset="0.574219"/><stop stop-opacity="1" stop-color="rgb(51.643372%, 37.666321%, 82.344055%)" offset="0.578125"/><stop stop-opacity="1" stop-color="rgb(52.241516%, 37.767029%, 82.511902%)" offset="0.582031"/><stop stop-opacity="1" stop-color="rgb(52.841187%, 37.867737%, 82.681274%)" offset="0.585938"/><stop stop-opacity="1" stop-color="rgb(53.440857%, 37.966919%, 82.849121%)" offset="0.589844"/><stop stop-opacity="1" stop-color="rgb(54.040527%, 38.067627%, 83.018494%)" offset="0.59375"/><stop stop-opacity="1" stop-color="rgb(54.640198%, 38.168335%, 83.18634%)" offset="0.597656"/><stop stop-opacity="1" stop-color="rgb(55.239868%, 38.269043%, 83.354187%)" offset="0.601563"/><stop stop-opacity="1" stop-color="rgb(55.838013%, 38.368225%, 83.522034%)" offset="0.605469"/><stop stop-opacity="1" stop-color="rgb(56.437683%, 38.468933%, 83.691406%)" offset="0.609375"/><stop stop-opacity="1" stop-color="rgb(57.037354%, 38.569641%, 83.859253%)" offset="0.613281"/><stop stop-opacity="1" stop-color="rgb(57.637024%, 38.670349%, 84.0271%)" offset="0.617188"/><stop stop-opacity="1" stop-color="rgb(58.235168%, 38.769531%, 84.194946%)" offset="0.621094"/><stop stop-opacity="1" stop-color="rgb(58.834839%, 38.870239%, 84.364319%)" offset="0.625"/><stop stop-opacity="1" stop-color="rgb(59.434509%, 38.970947%, 84.532166%)" offset="0.628906"/><stop stop-opacity="1" stop-color="rgb(60.03418%, 39.071655%, 84.701538%)" offset="0.632813"/><stop stop-opacity="1" stop-color="rgb(60.632324%, 39.170837%, 84.869385%)" offset="0.636719"/><stop stop-opacity="1" stop-color="rgb(61.231995%, 39.271545%, 85.037231%)" offset="0.640625"/><stop stop-opacity="1" stop-color="rgb(61.831665%, 39.372253%, 85.205078%)" offset="0.644531"/><stop stop-opacity="1" stop-color="rgb(62.431335%, 39.472961%, 85.374451%)" offset="0.648438"/><stop stop-opacity="1" stop-color="rgb(63.02948%, 39.572144%, 85.542297%)" offset="0.652344"/><stop stop-opacity="1" stop-color="rgb(63.62915%, 39.672852%, 85.71167%)" offset="0.65625"/><stop stop-opacity="1" stop-color="rgb(64.228821%, 39.77356%, 85.879517%)" offset="0.660156"/><stop stop-opacity="1" stop-color="rgb(64.828491%, 39.874268%, 86.047363%)" offset="0.664063"/><stop stop-opacity="1" stop-color="rgb(65.426636%, 39.974976%, 86.21521%)" offset="0.667969"/><stop stop-opacity="1" stop-color="rgb(66.026306%, 40.075684%, 86.384583%)" offset="0.671875"/><stop stop-opacity="1" stop-color="rgb(66.625977%, 40.174866%, 86.552429%)" offset="0.675781"/><stop stop-opacity="1" stop-color="rgb(67.225647%, 40.275574%, 86.721802%)" offset="0.679688"/><stop stop-opacity="1" stop-color="rgb(67.823792%, 40.376282%, 86.889648%)" offset="0.683594"/><stop stop-opacity="1" stop-color="rgb(68.423462%, 40.47699%, 87.057495%)" offset="0.6875"/><stop stop-opacity="1" stop-color="rgb(69.023132%, 40.576172%, 87.225342%)" offset="0.691406"/><stop stop-opacity="1" stop-color="rgb(69.622803%, 40.67688%, 87.394714%)" offset="0.695313"/><stop stop-opacity="1" stop-color="rgb(70.222473%, 40.777588%, 87.562561%)" offset="0.699219"/><stop stop-opacity="1" stop-color="rgb(70.822144%, 40.878296%, 87.730408%)" offset="0.703125"/><stop stop-opacity="1" stop-color="rgb(71.420288%, 40.977478%, 87.898254%)" offset="0.707031"/><stop stop-opacity="1" stop-color="rgb(72.019958%, 41.078186%, 88.067627%)" offset="0.710938"/><stop stop-opacity="1" stop-color="rgb(72.619629%, 41.178894%, 88.235474%)" offset="0.714844"/><stop stop-opacity="1" stop-color="rgb(73.219299%, 41.279602%, 88.404846%)" offset="0.71875"/><stop stop-opacity="1" stop-color="rgb(73.817444%, 41.378784%, 88.572693%)" offset="0.722656"/><stop stop-opacity="1" stop-color="rgb(74.417114%, 41.479492%, 88.74054%)" offset="0.726563"/><stop stop-opacity="1" stop-color="rgb(75.016785%, 41.5802%, 88.908386%)" offset="0.730469"/><stop stop-opacity="1" stop-color="rgb(75.616455%, 41.680908%, 89.077759%)" offset="0.734375"/><stop stop-opacity="1" stop-color="rgb(76.2146%, 41.78009%, 89.245605%)" offset="0.738281"/><stop stop-opacity="1" stop-color="rgb(76.81427%, 41.880798%, 89.414978%)" offset="0.742188"/><stop stop-opacity="1" stop-color="rgb(77.41394%, 41.981506%, 89.582825%)" offset="0.746094"/><stop stop-opacity="1" stop-color="rgb(78.013611%, 42.082214%, 89.750671%)" offset="0.75"/><stop stop-opacity="1" stop-color="rgb(78.611755%, 42.181396%, 89.918518%)" offset="0.753906"/><stop stop-opacity="1" stop-color="rgb(79.211426%, 42.282104%, 90.087891%)" offset="0.757813"/><stop stop-opacity="1" stop-color="rgb(79.40979%, 42.315674%, 90.142822%)" offset="0.761719"/><stop stop-opacity="1" stop-color="rgb(79.60968%, 42.349243%, 90.19928%)" offset="0.765625"/><stop stop-opacity="1" stop-color="rgb(79.60968%, 42.349243%, 90.19928%)" offset="0.78125"/><stop stop-opacity="1" stop-color="rgb(79.60968%, 42.349243%, 90.19928%)" offset="0.8125"/><stop stop-opacity="1" stop-color="rgb(79.60968%, 42.349243%, 90.19928%)" offset="0.875"/><stop stop-opacity="1" stop-color="rgb(79.60968%, 42.349243%, 90.19928%)" offset="1"/></linearGradient><clipPath id="04827a70d6"><rect x="0" width="127" y="0" height="38"/></clipPath><clipPath id="2ee38c8736"><path d="M 0.59375 0 L 126.414062 0 L 126.414062 37.007812 L 0.59375 37.007812 Z M 0.59375 0 " clip-rule="nonzero"/></clipPath><clipPath id="723236f4e1"><rect x="0" width="127" y="0" height="38"/></clipPath><clipPath id="210b2bda1d"><rect x="0" width="127" y="0" height="38"/></clipPath><mask id="3413906e37"><g filter="url(#bb84cc40eb)"><g transform="matrix(1, 0, 0, 1, 0.000000000000000111, -0.000000000000001478)"><g clip-path="url(#210b2bda1d)"><g clip-path="url(#2ee38c8736)"><g transform="matrix(1, 0, 0, 1, 0.000000000000000111, -0.000000000000001478)"><g clip-path="url(#723236f4e1)"><g fill="#000000" fill-opacity="1"><g transform="translate(35.086612, 23.46267)"><g><path d="M 1.46875 -10.375 L 7.6875 -10.375 L 7.6875 -8.9375 L 2.96875 -8.9375 L 2.96875 -5.78125 L 7.078125 -5.78125 L 7.078125 -4.34375 L 2.96875 -4.34375 L 2.96875 0 L 1.46875 0 Z M 1.46875 -10.375 "/></g></g></g><g fill="#000000" fill-opacity="1"><g transform="translate(42.796737, 23.46267)"><g><path d="M 0.609375 -3.046875 C 0.609375 -3.648438 0.75 -4.191406 1.03125 -4.671875 C 1.320312 -5.148438 1.71875 -5.523438 2.21875 -5.796875 C 2.726562 -6.078125 3.3125 -6.21875 3.96875 -6.21875 C 4.625 -6.21875 5.195312 -6.078125 5.6875 -5.796875 C 6.175781 -5.523438 6.554688 -5.148438 6.828125 -4.671875 C 7.097656 -4.191406 7.234375 -3.648438 7.234375 -3.046875 C 7.234375 -2.441406 7.09375 -1.898438 6.8125 -1.421875 C 6.539062 -0.941406 6.160156 -0.5625 5.671875 -0.28125 C 5.179688 0 4.601562 0.140625 3.9375 0.140625 C 3.300781 0.140625 2.734375 0.015625 2.234375 -0.234375 C 1.734375 -0.492188 1.335938 -0.863281 1.046875 -1.34375 C 0.753906 -1.832031 0.609375 -2.398438 0.609375 -3.046875 Z M 2.078125 -3.03125 C 2.078125 -2.65625 2.15625 -2.316406 2.3125 -2.015625 C 2.476562 -1.722656 2.703125 -1.488281 2.984375 -1.3125 C 3.265625 -1.132812 3.578125 -1.046875 3.921875 -1.046875 C 4.460938 -1.046875 4.90625 -1.234375 5.25 -1.609375 C 5.601562 -1.992188 5.78125 -2.46875 5.78125 -3.03125 C 5.78125 -3.59375 5.601562 -4.066406 5.25 -4.453125 C 4.90625 -4.835938 4.460938 -5.03125 3.921875 -5.03125 C 3.566406 -5.03125 3.25 -4.941406 2.96875 -4.765625 C 2.695312 -4.585938 2.476562 -4.34375 2.3125 -4.03125 C 2.15625 -3.726562 2.078125 -3.394531 2.078125 -3.03125 Z M 2.078125 -3.03125 "/></g></g></g><g fill="#000000" fill-opacity="1"><g transform="translate(50.507224, 23.46267)"><g><path d="M 3.46875 -3.8125 L 4.859375 -5.984375 L 6.296875 -5.984375 L 4 -2.765625 Z M 6.5625 0 L 4.8125 0 L 0.25 -5.984375 L 2.03125 -5.984375 Z M 3.3125 -2.171875 L 1.78125 0 L 0.328125 0 L 2.625 -3.140625 Z M 3.3125 -2.171875 "/></g></g></g><g fill="#000000" fill-opacity="1"><g transform="translate(57.30227, 23.46267)"><g><path d="M 1.640625 2.875 L 5.578125 -5.984375 L 6.90625 -5.984375 L 3.046875 2.875 Z M 3.140625 0.046875 L 0.25 -5.984375 L 1.875 -5.984375 L 4.265625 -0.6875 Z M 3.140625 0.046875 "/></g></g></g><g fill="#000000" fill-opacity="1"><g transform="translate(64.454947, 23.46267)"><g/></g></g><g fill="#000000" fill-opacity="1"><g transform="translate(66.314638, 23.46267)"><g><path d="M 9.640625 -0.921875 C 9.503906 -0.796875 9.304688 -0.671875 9.046875 -0.546875 C 8.785156 -0.421875 8.492188 -0.304688 8.171875 -0.203125 C 7.859375 -0.109375 7.535156 -0.0351562 7.203125 0.015625 C 6.867188 0.078125 6.550781 0.109375 6.25 0.109375 C 5.144531 0.109375 4.1875 -0.109375 3.375 -0.546875 C 2.5625 -0.992188 1.929688 -1.597656 1.484375 -2.359375 C 1.046875 -3.117188 0.828125 -3.988281 0.828125 -4.96875 C 0.828125 -5.851562 0.96875 -6.640625 1.25 -7.328125 C 1.53125 -8.015625 1.914062 -8.59375 2.40625 -9.0625 C 2.90625 -9.53125 3.472656 -9.882812 4.109375 -10.125 C 4.742188 -10.363281 5.421875 -10.484375 6.140625 -10.484375 C 6.765625 -10.484375 7.335938 -10.410156 7.859375 -10.265625 C 8.378906 -10.128906 8.835938 -9.953125 9.234375 -9.734375 L 8.734375 -8.34375 C 8.535156 -8.457031 8.296875 -8.5625 8.015625 -8.65625 C 7.734375 -8.757812 7.441406 -8.835938 7.140625 -8.890625 C 6.847656 -8.953125 6.578125 -8.984375 6.328125 -8.984375 C 5.523438 -8.984375 4.828125 -8.828125 4.234375 -8.515625 C 3.640625 -8.203125 3.179688 -7.753906 2.859375 -7.171875 C 2.535156 -6.585938 2.375 -5.894531 2.375 -5.09375 C 2.375 -4.363281 2.535156 -3.71875 2.859375 -3.15625 C 3.191406 -2.59375 3.648438 -2.15625 4.234375 -1.84375 C 4.828125 -1.53125 5.507812 -1.375 6.28125 -1.375 C 6.625 -1.375 6.957031 -1.40625 7.28125 -1.46875 C 7.613281 -1.539062 7.894531 -1.644531 8.125 -1.78125 L 8.125 -3.6875 L 6.109375 -3.6875 L 6.109375 -5.140625 L 9.640625 -5.140625 Z M 9.640625 -0.921875 "/></g></g></g><g fill="#000000" fill-opacity="1"><g transform="translate(77.08657, 23.46267)"><g><path d="M 0.609375 -3.046875 C 0.609375 -3.648438 0.75 -4.191406 1.03125 -4.671875 C 1.320312 -5.148438 1.71875 -5.523438 2.21875 -5.796875 C 2.726562 -6.078125 3.3125 -6.21875 3.96875 -6.21875 C 4.625 -6.21875 5.195312 -6.078125 5.6875 -5.796875 C 6.175781 -5.523438 6.554688 -5.148438 6.828125 -4.671875 C 7.097656 -4.191406 7.234375 -3.648438 7.234375 -3.046875 C 7.234375 -2.441406 7.09375 -1.898438 6.8125 -1.421875 C 6.539062 -0.941406 6.160156 -0.5625 5.671875 -0.28125 C 5.179688 0 4.601562 0.140625 3.9375 0.140625 C 3.300781 0.140625 2.734375 0.015625 2.234375 -0.234375 C 1.734375 -0.492188 1.335938 -0.863281 1.046875 -1.34375 C 0.753906 -1.832031 0.609375 -2.398438 0.609375 -3.046875 Z M 2.078125 -3.03125 C 2.078125 -2.65625 2.15625 -2.316406 2.3125 -2.015625 C 2.476562 -1.722656 2.703125 -1.488281 2.984375 -1.3125 C 3.265625 -1.132812 3.578125 -1.046875 3.921875 -1.046875 C 4.460938 -1.046875 4.90625 -1.234375 5.25 -1.609375 C 5.601562 -1.992188 5.78125 -2.46875 5.78125 -3.03125 C 5.78125 -3.59375 5.601562 -4.066406 5.25 -4.453125 C 4.90625 -4.835938 4.460938 -5.03125 3.921875 -5.03125 C 3.566406 -5.03125 3.25 -4.941406 2.96875 -4.765625 C 2.695312 -4.585938 2.476562 -4.34375 2.3125 -4.03125 C 2.15625 -3.726562 2.078125 -3.394531 2.078125 -3.03125 Z M 2.078125 -3.03125 "/></g></g></g><g fill="#000000" fill-opacity="1"><g transform="translate(84.754119, 23.46267)"><g><path d="M 3.625 0.171875 L 0.25 -5.984375 L 1.953125 -5.984375 L 4.171875 -1.328125 L 3.296875 -1.375 L 5.3125 -5.984375 L 6.90625 -5.984375 L 3.6875 0.171875 Z M 3.625 0.171875 "/></g></g></g></g></g></g></g></g></g></mask><clipPath id="2281b3f671"><path d="M 6.371094 0 L 120.351562 0 L 120.351562 37.007812 L 6.371094 37.007812 Z M 6.371094 0 " clip-rule="nonzero"/></clipPath><clipPath id="ce04a486c4"><rect x="0" width="127" y="0" height="38"/></clipPath><clipPath id="363a1ece98"><rect x="0" width="127" y="0" height="38"/></clipPath></defs><g clip-path="url(#2ab0a1dd4e)"><path fill="#ff9999" d="M 109.375 12.859375 C 111.378906 12.179688 112.847656 12.722656 113.632812 14.683594 C 113.769531 15.027344 113.738281 15.425781 113.882812 15.753906 C 114.191406 16.457031 115.742188 17.414062 116.457031 17.722656 L 119.046875 18.574219 C 117.570312 18.726562 114.554688 19.867188 113.886719 21.257812 C 113.625 21.800781 113.679688 22.421875 113.308594 23.023438 C 112.441406 24.421875 110.851562 24.816406 109.375 24.148438 C 109.292969 24.234375 109.90625 26.054688 109.945312 26.433594 C 110.179688 28.753906 108.523438 30.582031 106.230469 30.746094 L 68.570312 30.753906 C 65.671875 31.324219 64.332031 33.910156 63.425781 36.457031 C 62.828125 33.828125 61.074219 31.316406 58.285156 30.753906 L 20.769531 30.75 C 17.09375 30.472656 16.308594 27.152344 17.625 24.148438 C 16.214844 24.738281 14.453125 24.476562 13.636719 23.078125 C 13.285156 22.476562 13.292969 21.742188 12.996094 21.226562 C 12.183594 19.800781 9.503906 18.828125 7.953125 18.574219 L 10.542969 17.722656 C 11.367188 17.367188 12.769531 16.441406 13.113281 15.601562 C 13.324219 15.082031 13.28125 14.636719 13.605469 14.042969 C 14.371094 12.628906 16.242188 12.125 17.625 13.007812 C 16.570312 10.253906 16.695312 7.234375 19.964844 6.332031 L 58.132812 6.25 C 60.964844 5.820312 62.828125 3.1875 63.355469 0.550781 C 63.5625 0.566406 63.585938 0.765625 63.652344 0.910156 C 64.78125 3.371094 65.566406 5.738281 68.71875 6.25 L 106.230469 6.257812 C 108.53125 6.363281 110.183594 8.257812 109.945312 10.574219 C 109.90625 10.953125 109.292969 12.773438 109.375 12.859375 M 63.644531 3.042969 C 63.574219 2.976562 63.441406 3.023438 63.339844 3.132812 C 63.046875 3.457031 62.707031 4.261719 62.324219 4.722656 C 61.242188 6.019531 59.84375 6.933594 58.132812 7.125 L 20.484375 7.144531 C 16.777344 7.5625 17.355469 12.945312 20.453125 12.242188 C 21.25 12.0625 21.996094 11.03125 21.214844 10.371094 C 20.835938 10.3125 21.054688 10.792969 20.917969 11.097656 C 20.585938 11.863281 19.417969 11.585938 18.9375 11.035156 C 17.8125 9.757812 19.175781 7.988281 20.628906 7.875 L 58.425781 7.859375 C 59.359375 7.660156 60.28125 7.375 61.085938 6.855469 C 62.054688 6.222656 62.699219 5.238281 63.570312 4.503906 C 64.632812 6.289062 66.492188 7.550781 68.558594 7.875 L 106.503906 7.890625 C 108.910156 8.214844 108.921875 11.695312 106.8125 11.546875 C 106.09375 11.5 105.820312 11.058594 105.855469 10.367188 C 104.90625 10.925781 105.550781 12.003906 106.433594 12.210938 C 107.492188 12.460938 108.851562 11.609375 109.046875 10.554688 C 109.351562 8.902344 108.324219 7.609375 106.773438 7.179688 L 68.851562 7.140625 C 66.546875 6.9375 64.421875 5.1875 63.644531 3.039062 M 19.382812 13.742188 C 21.554688 14.132812 23.578125 12.496094 22.976562 10.21875 C 22.632812 8.90625 20.695312 8.21875 19.742188 9.332031 C 19.257812 9.898438 19.230469 10.78125 20.117188 10.808594 C 19.734375 9.242188 21.875 9.144531 22.25 10.359375 C 22.730469 11.9375 21.433594 13.128906 19.921875 13.097656 C 19.359375 13.085938 18.894531 12.753906 18.355469 12.714844 C 18.972656 14.121094 19.058594 16.707031 17.292969 17.292969 C 14.769531 18.125 13.957031 14.808594 15.710938 14.246094 C 17.609375 13.632812 17.542969 16.511719 16.347656 15.980469 C 15.605469 15.648438 16.496094 15.238281 16.304688 15.058594 C 15.945312 14.71875 14.929688 15.910156 16.125 16.492188 C 17.84375 17.332031 18.929688 13.808594 16.515625 13.457031 C 14.011719 13.089844 14.414062 15.539062 13.300781 16.820312 C 12.691406 17.523438 11.78125 17.972656 11.03125 18.503906 C 11.851562 19.144531 13.417969 19.992188 13.847656 20.960938 C 14.261719 21.886719 14.089844 23.226562 15.53125 23.527344 C 18.320312 24.105469 18.605469 20.664062 16.78125 20.359375 C 15.230469 20.101562 15.359375 22.507812 16.304688 22.023438 C 16.667969 21.835938 15.96875 21.597656 16.019531 21.304688 C 16.152344 20.578125 17.53125 20.996094 17.238281 22.0625 C 16.855469 23.472656 14.40625 22.925781 14.753906 21.0625 C 15.109375 19.160156 17.867188 19.101562 18.574219 20.921875 C 19.035156 22.109375 18.625 23.105469 18.503906 24.292969 C 20.152344 23.386719 22.730469 24.179688 22.28125 26.382812 C 21.988281 27.820312 19.667969 27.78125 20.117188 26.199219 C 19.265625 26.207031 19.289062 27.152344 19.742188 27.671875 C 20.753906 28.84375 22.746094 27.960938 23.015625 26.53125 C 23.4375 24.257812 21.476562 22.953125 19.382812 23.265625 C 20.351562 20.335938 17.144531 17.257812 14.609375 19.746094 C 14.414062 19.9375 14.449219 20.296875 14.183594 20.1875 C 14.066406 20.140625 12.859375 18.582031 12.347656 18.503906 C 12.949219 18.136719 13.492188 17.703125 13.964844 17.179688 C 14.070312 17.0625 14.09375 16.832031 14.109375 16.820312 C 14.386719 16.605469 14.425781 17.050781 14.542969 17.179688 C 16.9375 19.832031 20.378906 16.703125 19.382812 13.742188 M 106.882812 10.664062 C 107.273438 11.035156 107.707031 10.136719 107.304688 9.433594 C 106.644531 8.269531 104.789062 8.792969 104.175781 9.789062 C 102.871094 11.917969 105.253906 14.242188 107.46875 13.738281 C 107.503906 14.375 107.398438 15.058594 107.503906 15.683594 C 107.9375 18.25 111.285156 19.128906 112.671875 16.820312 C 112.957031 16.738281 112.898438 17.042969 113.101562 17.261719 C 113.535156 17.71875 114.019531 18.105469 114.5 18.503906 L 112.671875 20.1875 C 110.195312 17.0625 106.78125 19.894531 107.46875 23.269531 C 105.933594 22.992188 104.1875 23.851562 103.867188 25.457031 C 103.535156 27.113281 105.09375 28.800781 106.734375 28.03125 C 107.804688 27.527344 107.5625 26.097656 106.957031 26.199219 C 106.578125 26.261719 107.136719 26.863281 106.585938 27.292969 C 105.421875 28.199219 103.605469 26.113281 105.191406 24.582031 C 106.121094 23.683594 107.394531 23.816406 108.492188 24.292969 C 107.917969 22.609375 107.957031 19.589844 110.328125 19.589844 C 113.011719 19.589844 112.5 23.433594 110.390625 22.761719 C 109.425781 22.453125 109.523438 21 110.332031 20.917969 C 111.210938 20.824219 110.589844 21.847656 110.695312 21.945312 C 111.339844 22.558594 111.796875 20.058594 110.101562 20.390625 C 108.359375 20.738281 108.644531 24.082031 111.320312 23.527344 C 112.730469 23.234375 112.621094 22.050781 113.007812 21.109375 C 113.445312 20.046875 115.054688 18.96875 116.113281 18.574219 L 114.515625 17.613281 C 113.234375 16.636719 113.320312 16.238281 112.820312 14.914062 C 112.242188 13.386719 110.210938 12.761719 109.253906 14.277344 C 108.613281 15.292969 109.335938 16.765625 110.4375 16.644531 C 111.90625 16.484375 111.09375 14.5625 110.546875 15.058594 C 110.363281 15.230469 111.128906 15.5625 110.628906 15.949219 C 109.78125 16.601562 109.125 14.578125 110.359375 14.210938 C 112.433594 13.59375 112.957031 17.167969 110.621094 17.40625 C 107.992188 17.679688 107.867188 14.546875 108.496094 12.714844 C 107.382812 13.191406 106.132812 13.324219 105.191406 12.425781 C 103.265625 10.597656 106.121094 8.40625 106.816406 10.074219 C 106.890625 10.25 106.863281 10.644531 106.882812 10.664062 M 21.390625 26.449219 C 22.292969 25.257812 19.605469 23.730469 18.292969 25.621094 C 17.132812 27.300781 18.371094 29.414062 20.222656 29.828125 L 58.148438 29.863281 C 60.496094 30.1875 62.460938 31.796875 63.355469 33.964844 C 64.664062 32 66.078125 30.265625 68.570312 29.878906 L 106.371094 29.863281 C 108.1875 29.589844 109.578125 28 108.941406 26.117188 C 108.519531 24.867188 106.492188 24.15625 105.640625 25.320312 C 105.28125 25.8125 105.285156 26.570312 106.003906 26.636719 C 105.757812 26.039062 106.019531 25.570312 106.675781 25.472656 C 108.960938 25.128906 108.992188 28.757812 106.355469 29.117188 L 68.277344 29.140625 C 66.324219 29.574219 64.566406 30.765625 63.570312 32.503906 C 62.964844 32.019531 62.652344 31.34375 62.035156 30.8125 C 61.074219 29.988281 59.5625 29.246094 58.292969 29.132812 L 20.496094 29.117188 C 18.996094 28.929688 17.820312 27.003906 19.082031 25.824219 C 19.867188 25.09375 21.199219 25.464844 20.996094 26.636719 C 21.011719 26.65625 21.363281 26.484375 21.390625 26.449219 " fill-opacity="1" fill-rule="nonzero"/></g><g clip-path="url(#a7a38dda24)"><g transform="matrix(1, 0, 0, 1, 0.000000000000000111, -0.000000000000001478)"><g clip-path="url(#363a1ece98)"><g clip-path="url(#b486f5f10b)"><g mask="url(#3413906e37)"><g transform="matrix(1, 0, 0, 1, 0.000000000000000111, -0.000000000000001478)"><g clip-path="url(#ce04a486c4)"><g clip-path="url(#2281b3f671)"><path fill="url(#d89d5c3035)" d="M 6.371094 0 L 6.371094 37.007812 L 120.351562 37.007812 L 120.351562 0 Z M 6.371094 0 " fill-rule="nonzero"/></g></g></g></g></g></g></g></g></svg>